STARTFONT 2.1
COMMENT
COMMENT Converted from OpenType font "NovaMono-Regular.ttf" by "otf2bdf 3.0".
COMMENT
FONT -FreeType-NovaMono-Medium-R-Normal--37-270-100-100-P-164-ISO10646-1
SIZE 27 100 100
FONTBOUNDINGBOX 28 52 -2 -11
STARTPROPERTIES 19
FOUNDRY "FreeType"
FAMILY_NAME "NovaMono"
WEIGHT_NAME "Medium"
SLANT "R"
SETWIDTH_NAME "Normal"
ADD_STYLE_NAME ""
PIXEL_SIZE 37
POINT_SIZE 270
RESOLUTION_X 100
RESOLUTION_Y 100
SPACING "P"
AVERAGE_WIDTH 164
CHARSET_REGISTRY "ISO10646"
CHARSET_ENCODING "1"
FONT_ASCENT 41
FONT_DESCENT 11
COPYRIGHT "wmk69  SIL - Open Font License v.1.1"
_OTF_FONTFILE "NovaMono-Regular.ttf"
_OTF_PSNAME "NovaMono"
ENDPROPERTIES
CHARS 1328
STARTCHAR 0020
ENCODING 32
SWIDTH 560 0
DWIDTH 21 0
BBX 0 0 0 0
BITMAP
ENDCHAR
STARTCHAR 0021
ENCODING 33
SWIDTH 560 0
DWIDTH 21 0
BBX 5 28 8 0
BITMAP
10
70
70
70
70
70
70
70
70
70
70
70
70
70
70
70
70
70
70
70
60
00
00
70
F8
F8
F8
70
ENDCHAR
STARTCHAR 0022
ENCODING 34
SWIDTH 560 0
DWIDTH 21 0
BBX 9 10 6 18
BITMAP
2080
E380
E380
E380
E380
E380
E380
E380
E380
C200
ENDCHAR
STARTCHAR 0023
ENCODING 35
SWIDTH 560 0
DWIDTH 21 0
BBX 19 19 1 5
BITMAP
010400
071C00
071C00
071C00
071C00
7FFFE0
7FFFE0
FFFFC0
071C00
071C00
071C00
7FFFE0
7FFFE0
FFFFC0
071C00
071C00
071C00
071C00
061800
ENDCHAR
STARTCHAR 0024
ENCODING 36
SWIDTH 560 0
DWIDTH 21 0
BBX 17 40 2 -6
BITMAP
00C000
01C000
01C000
01C000
01C000
01C000
07E000
0FF800
1FFC00
3DFC00
39DE00
71CE00
71CE00
71CC00
71C000
39C000
3DC000
1FE000
0FF800
03FC00
01FE00
01CF00
01C700
01C380
01C380
E1C380
E1C380
F1C380
71C780
79C700
3DDF00
1FFE00
0FFC00
03F000
01C000
01C000
01C000
01C000
01C000
018000
ENDCHAR
STARTCHAR 0025
ENCODING 37
SWIDTH 560 0
DWIDTH 21 0
BBX 19 28 1 0
BITMAP
1E0000
7F8000
F3C000
E1C000
E0C000
E1C000
F1C040
7F80E0
3F83E0
1E07C0
001F00
003E00
00FC00
01F000
03E000
0F8000
1F0000
7E0000
F80F80
703FC0
4038E0
0070E0
007060
007060
0078E0
003FE0
001FC0
000F00
ENDCHAR
STARTCHAR 0026
ENCODING 38
SWIDTH 560 0
DWIDTH 21 0
BBX 21 28 0 0
BITMAP
03F800
07F800
0FF800
1E0000
3C0000
380000
380000
380000
380000
3C0000
1E0000
1FC000
0FE030
1FF038
3C7070
7838F0
703CE0
E01DC0
E00FC0
E00F80
E00700
E00F80
F01FC0
781DE0
3C38E0
3FF8F0
0FF078
07F020
ENDCHAR
STARTCHAR 0027
ENCODING 39
SWIDTH 560 0
DWIDTH 21 0
BBX 3 10 9 18
BITMAP
20
E0
E0
E0
E0
E0
E0
E0
E0
80
ENDCHAR
STARTCHAR 0028
ENCODING 40
SWIDTH 560 0
DWIDTH 21 0
BBX 8 40 8 -6
BITMAP
03
07
0F
1E
1E
3C
3C
38
78
78
70
70
F0
F0
F0
E0
E0
E0
E0
E0
E0
E0
E0
E0
E0
F0
F0
F0
70
70
70
78
38
3C
3C
1E
1E
0F
07
03
ENDCHAR
STARTCHAR 0029
ENCODING 41
SWIDTH 560 0
DWIDTH 21 0
BBX 9 40 5 -6
BITMAP
6000
F000
F000
7800
3800
3C00
1C00
1E00
0E00
0E00
0F00
0F00
0700
0700
0700
0700
0700
0700
0780
0780
0780
0780
0700
0700
0700
0700
0700
0700
0F00
0F00
0E00
0E00
1E00
1C00
3C00
3800
7800
F000
F000
6000
ENDCHAR
STARTCHAR 002A
ENCODING 42
SWIDTH 560 0
DWIDTH 21 0
BBX 15 16 3 12
BITMAP
0080
0380
0380
238C
FBBE
7FFE
3FF8
0FE0
0FE0
3FF8
7FFE
FBBE
238C
0380
0380
0300
ENDCHAR
STARTCHAR 002B
ENCODING 43
SWIDTH 560 0
DWIDTH 21 0
BBX 16 15 3 7
BITMAP
0180
0380
0380
0380
0380
0380
7FFF
FFFE
FFFE
0380
0380
0380
0380
0380
0380
ENDCHAR
STARTCHAR 002C
ENCODING 44
SWIDTH 560 0
DWIDTH 21 0
BBX 6 10 7 -5
BITMAP
38
7C
7C
7C
3C
1C
38
38
70
E0
ENDCHAR
STARTCHAR 002D
ENCODING 45
SWIDTH 560 0
DWIDTH 21 0
BBX 16 3 3 13
BITMAP
7FFF
FFFE
FFFE
ENDCHAR
STARTCHAR 002E
ENCODING 46
SWIDTH 560 0
DWIDTH 21 0
BBX 5 5 8 0
BITMAP
70
F8
F8
F8
70
ENDCHAR
STARTCHAR 002F
ENCODING 47
SWIDTH 560 0
DWIDTH 21 0
BBX 19 42 1 -7
BITMAP
0000C0
0000E0
0000E0
0001E0
0001C0
0003C0
000380
000380
000700
000700
000F00
000E00
000E00
001C00
001C00
003C00
003800
007800
007000
007000
00F000
00E000
01E000
01C000
01C000
038000
038000
078000
070000
070000
0E0000
0E0000
1E0000
1C0000
3C0000
380000
380000
700000
700000
F00000
E00000
200000
ENDCHAR
STARTCHAR 0030
ENCODING 48
SWIDTH 560 0
DWIDTH 21 0
BBX 17 28 2 0
BITMAP
03F000
0FFC00
1FFE00
3C1F00
780F00
701F80
F01F80
E03B80
E03B80
E07380
E07380
E0E380
E0E380
E1C380
E1C380
E38380
E38380
E70380
E70380
EE0380
EE0380
FC0380
7C0780
780F00
3C1F00
1FFE00
0FF800
03F000
ENDCHAR
STARTCHAR 0031
ENCODING 49
SWIDTH 560 0
DWIDTH 21 0
BBX 9 28 3 0
BITMAP
0080
0380
0780
0F80
3F80
7F80
FB80
7380
4380
0380
0380
0380
0380
0380
0380
0380
0380
0380
0380
0380
0380
0380
0380
0380
0380
0380
0380
0200
ENDCHAR
STARTCHAR 0032
ENCODING 50
SWIDTH 560 0
DWIDTH 21 0
BBX 17 28 2 0
BITMAP
03E000
0FF800
1FFE00
3C1E00
780F00
700700
E00380
E00380
E00380
800380
000380
000700
000F00
001E00
007C00
00F800
01E000
03C000
078000
0F0000
0E0000
1E0000
3C0000
380000
780000
7FFF80
7FFF80
FFFF00
ENDCHAR
STARTCHAR 0033
ENCODING 51
SWIDTH 560 0
DWIDTH 21 0
BBX 17 28 2 0
BITMAP
3FFF00
3FFE00
7FFE00
001C00
003C00
007800
007800
00F000
00E000
01E000
03C000
03E000
07F800
07FC00
003E00
000F00
000700
000380
200380
E00380
E00380
700380
700780
780F00
3C1F00
1FFE00
0FF800
03F000
ENDCHAR
STARTCHAR 0034
ENCODING 52
SWIDTH 560 0
DWIDTH 21 0
BBX 18 28 2 0
BITMAP
000200
000E00
001E00
001E00
003E00
007E00
007E00
00EE00
01EE00
01CE00
038E00
078E00
070E00
0E0E00
1E0E00
1C0E00
380E00
780E00
7FFFC0
FFFF80
FFFF80
000E00
000E00
000E00
000E00
000E00
000E00
000800
ENDCHAR
STARTCHAR 0035
ENCODING 53
SWIDTH 560 0
DWIDTH 21 0
BBX 17 28 2 0
BITMAP
0FFF00
0FFE00
0FFE00
0E0000
1C0000
1C0000
1C0000
1C0000
1C0000
3C0000
380000
3BE000
3FFC00
3FFE00
181F00
000F00
000780
000380
200380
E00380
E00380
700380
700780
780F00
3C1E00
1FFE00
0FFC00
03F000
ENDCHAR
STARTCHAR 0036
ENCODING 54
SWIDTH 560 0
DWIDTH 21 0
BBX 17 28 2 0
BITMAP
03F000
0FFC00
1FFE00
3C1F00
780700
700780
F00380
E00380
E00300
E00000
E00000
E3F000
EFF800
FFFE00
FC1E00
F80F00
F00780
F00380
E00380
E00380
E00380
F00380
700700
780F00
3C1E00
1FFE00
0FF800
03F000
ENDCHAR
STARTCHAR 0037
ENCODING 55
SWIDTH 560 0
DWIDTH 21 0
BBX 17 28 2 0
BITMAP
7FFF80
7FFF80
FFFF00
000F00
000E00
001E00
001C00
003C00
003800
007800
007000
00F000
00E000
01E000
01C000
03C000
038000
078000
070000
0F0000
0E0000
1E0000
1C0000
1C0000
380000
380000
700000
400000
ENDCHAR
STARTCHAR 0038
ENCODING 56
SWIDTH 560 0
DWIDTH 21 0
BBX 17 28 2 0
BITMAP
03F000
0FFC00
1FFE00
3C1E00
380F00
700700
700700
700700
700700
380F00
3C1E00
1FFE00
0FF800
1FFC00
3E3E00
780F00
700700
700380
E00380
E00380
E00380
700380
700780
780F00
3C1F00
1FFE00
0FF800
03E000
ENDCHAR
STARTCHAR 0039
ENCODING 57
SWIDTH 560 0
DWIDTH 21 0
BBX 17 28 2 0
BITMAP
03F000
0FFC00
1FFE00
3C1F00
780F00
700780
F00380
E00380
E00380
E00380
F00380
700780
780F80
3C1F80
1FFF80
0FFB80
03F380
000380
000380
600380
E00380
E00380
700780
780700
3C1E00
1FFE00
0FF800
03E000
ENDCHAR
STARTCHAR 003A
ENCODING 58
SWIDTH 560 0
DWIDTH 21 0
BBX 5 17 8 0
BITMAP
70
F8
F8
F8
70
00
00
00
00
00
00
00
70
F8
F8
F8
70
ENDCHAR
STARTCHAR 003B
ENCODING 59
SWIDTH 560 0
DWIDTH 21 0
BBX 6 22 7 -5
BITMAP
38
7C
7C
7C
38
00
00
00
00
00
00
00
38
7C
7C
7C
3C
1C
38
78
70
C0
ENDCHAR
STARTCHAR 003C
ENCODING 60
SWIDTH 560 0
DWIDTH 21 0
BBX 16 16 3 6
BITMAP
0006
001E
007F
01FC
07F0
1FC0
7F00
F800
F800
FF00
3FC0
0FF0
03FC
007E
001E
0006
ENDCHAR
STARTCHAR 003D
ENCODING 61
SWIDTH 560 0
DWIDTH 21 0
BBX 16 9 3 10
BITMAP
7FFF
FFFE
FFFE
0000
0000
0000
7FFF
FFFE
FFFE
ENDCHAR
STARTCHAR 003E
ENCODING 62
SWIDTH 560 0
DWIDTH 21 0
BBX 15 16 3 6
BITMAP
4000
F000
FE00
7F80
1FE0
07F8
00FE
003E
003E
00FC
03F8
1FE0
7F00
FC00
F000
4000
ENDCHAR
STARTCHAR 003F
ENCODING 63
SWIDTH 560 0
DWIDTH 21 0
BBX 17 28 2 0
BITMAP
03F000
0FFC00
1FFE00
3C1F00
780F00
700780
F00380
E00380
E00380
800380
000380
000700
000F00
003E00
00FC00
01F000
03C000
038000
030000
030000
000000
000000
000000
038000
078000
078000
078000
038000
ENDCHAR
STARTCHAR 0040
ENCODING 64
SWIDTH 560 0
DWIDTH 21 0
BBX 15 28 3 -7
BITMAP
07E0
0FF8
3FFC
7C3C
781E
F00E
E00E
E00E
E03E
E07E
E1FE
E7EE
EF8E
EF0E
EE0E
EE0E
EE0E
EF0E
E72E
E7EE
E3EE
E1E0
F000
7800
7C00
3FE0
1FE0
07E0
ENDCHAR
STARTCHAR 0041
ENCODING 65
SWIDTH 560 0
DWIDTH 21 0
BBX 17 28 2 0
BITMAP
03F000
0FFC00
1FFE00
3C1F00
780F00
700780
E00380
E00380
E00380
E00380
E00380
E00380
FFFF80
FFFF80
FFFF80
E00380
E00380
E00380
E00380
E00380
E00380
E00380
E00380
E00380
E00380
E00380
E00380
800200
ENDCHAR
STARTCHAR 0042
ENCODING 66
SWIDTH 560 0
DWIDTH 21 0
BBX 17 28 2 0
BITMAP
3FE000
FFF000
FFF800
E03C00
E01C00
E00E00
E00E00
E00E00
E00E00
E01C00
E03C00
FFF800
FFF800
FFFE00
E01E00
E00F00
E00700
E00380
E00380
E00380
E00380
E00380
E00700
E00F00
E01E00
FFFE00
FFF800
FFF000
ENDCHAR
STARTCHAR 0043
ENCODING 67
SWIDTH 560 0
DWIDTH 21 0
BBX 17 28 2 0
BITMAP
03F000
0FF800
1FFE00
3C1E00
780F00
700780
F00380
E00380
E00380
E00200
E00000
E00000
E00000
E00000
E00000
E00000
E00000
E00000
E00080
E00380
E00380
F00380
700780
780F00
3C1F00
1FFE00
0FF800
03F000
ENDCHAR
STARTCHAR 0044
ENCODING 68
SWIDTH 560 0
DWIDTH 21 0
BBX 17 28 2 0
BITMAP
3FF000
FFF800
FFFE00
E01E00
E00F00
E00780
E00380
E00380
E00380
E00380
E00380
E00380
E00380
E00380
E00380
E00380
E00380
E00380
E00380
E00380
E00380
E00380
E00780
E00F00
E01E00
FFFE00
FFF800
FFE000
ENDCHAR
STARTCHAR 0045
ENCODING 69
SWIDTH 560 0
DWIDTH 21 0
BBX 16 28 4 0
BITMAP
3FF8
FFF8
FFF0
E000
E000
E000
E000
E000
E000
E000
E000
E000
FFF8
FFF8
FFF0
E000
E000
E000
E000
E000
E000
E000
E000
E000
E000
FFFF
FFFE
FFFE
ENDCHAR
STARTCHAR 0046
ENCODING 70
SWIDTH 560 0
DWIDTH 21 0
BBX 13 28 4 0
BITMAP
3FF8
FFF8
FFF0
E000
E000
E000
E000
E000
E000
E000
E000
E000
FFF8
FFF8
FFF0
E000
E000
E000
E000
E000
E000
E000
E000
E000
E000
E000
E000
8000
ENDCHAR
STARTCHAR 0047
ENCODING 71
SWIDTH 560 0
DWIDTH 21 0
BBX 17 28 2 0
BITMAP
03F000
0FF800
1FFE00
3C1E00
780F00
700700
F00380
E00380
E00380
E00200
E00000
E00000
E00000
E03F80
E07F80
E07F80
E00380
E00380
E00380
E00380
E00380
F00380
700780
780F00
3C1F00
1FFE00
0FFC00
03F000
ENDCHAR
STARTCHAR 0048
ENCODING 72
SWIDTH 560 0
DWIDTH 21 0
BBX 17 28 2 0
BITMAP
200080
E00380
E00380
E00380
E00380
E00380
E00380
E00380
E00380
E00380
E00380
E00380
FFFF80
FFFF80
FFFF80
E00380
E00380
E00380
E00380
E00380
E00380
E00380
E00380
E00380
E00380
E00380
E00380
800200
ENDCHAR
STARTCHAR 0049
ENCODING 73
SWIDTH 560 0
DWIDTH 21 0
BBX 16 28 3 0
BITMAP
7FFF
FFFE
FFFE
0380
0380
0380
0380
0380
0380
0380
0380
0380
0380
0380
0380
0380
0380
0380
0380
0380
0380
0380
0380
0380
0380
7FFF
FFFE
FFFE
ENDCHAR
STARTCHAR 004A
ENCODING 74
SWIDTH 560 0
DWIDTH 21 0
BBX 17 28 2 0
BITMAP
0FFF80
0FFF80
1FFF80
000380
000380
000380
000380
000380
000380
000380
000380
000380
000380
000380
000380
000380
000380
000380
200380
E00380
E00380
F00380
700780
780F00
3C1E00
1FFE00
0FF800
03E000
ENDCHAR
STARTCHAR 004B
ENCODING 75
SWIDTH 560 0
DWIDTH 21 0
BBX 17 28 2 0
BITMAP
200600
E00F00
E00E00
E01E00
E03C00
E03800
E07000
E0F000
E1E000
E1C000
E38000
E78000
E7F000
EFF800
FFFE00
FC1E00
F80F00
F00700
F00380
E00380
E00380
E00380
E00380
E00380
E00380
E00380
E00380
800200
ENDCHAR
STARTCHAR 004C
ENCODING 76
SWIDTH 560 0
DWIDTH 21 0
BBX 16 28 3 0
BITMAP
6000
E000
E000
E000
E000
E000
E000
E000
E000
E000
E000
E000
E000
E000
E000
E000
E000
E000
E000
E000
E000
E000
E000
E000
E000
FFFF
FFFE
FFFE
ENDCHAR
STARTCHAR 004D
ENCODING 77
SWIDTH 560 0
DWIDTH 21 0
BBX 17 28 2 0
BITMAP
1E3E00
3FFF00
7FFF80
F3E380
E1C380
E1C380
E1C380
E1C380
E1C380
E1C380
E1C380
E1C380
E1C380
E1C380
E1C380
E1C380
E1C380
E1C380
E1C380
E1C380
E1C380
E1C380
E1C380
E1C380
E1C380
E1C380
E1C380
810200
ENDCHAR
STARTCHAR 004E
ENCODING 78
SWIDTH 560 0
DWIDTH 21 0
BBX 17 28 2 0
BITMAP
03F000
0FFC00
1FFE00
3C1F00
780F00
700780
F00380
E00380
E00380
E00380
E00380
E00380
E00380
E00380
E00380
E00380
E00380
E00380
E00380
E00380
E00380
E00380
E00380
E00380
E00380
E00380
E00380
800200
ENDCHAR
STARTCHAR 004F
ENCODING 79
SWIDTH 560 0
DWIDTH 21 0
BBX 17 28 2 0
BITMAP
03F000
0FF800
1FFE00
3C1E00
780F00
700780
F00380
E00380
E00380
E00380
E00380
E00380
E00380
E00380
E00380
E00380
E00380
E00380
E00380
E00380
E00380
F00380
700780
780F00
3C1E00
1FFE00
0FFC00
03F000
ENDCHAR
STARTCHAR 0050
ENCODING 80
SWIDTH 560 0
DWIDTH 21 0
BBX 17 28 2 0
BITMAP
3FF000
FFF800
FFFE00
E01E00
E00F00
E00700
E00380
E00380
E00380
E00380
E00380
E00700
E00F00
E01E00
FFFE00
FFF800
FFF000
E00000
E00000
E00000
E00000
E00000
E00000
E00000
E00000
E00000
E00000
800000
ENDCHAR
STARTCHAR 0051
ENCODING 81
SWIDTH 560 0
DWIDTH 21 0
BBX 17 31 2 -3
BITMAP
07E000
1FF800
3FFC00
7C3E00
700F00
E00700
E00700
E00700
E00700
E00700
E00700
E00700
E00700
E00700
E00700
E00700
E00700
E00700
E00700
E00700
E00700
E0C700
E1E700
70FF00
7C7E00
3FFC00
1FFE00
07EF00
000F00
000780
000300
ENDCHAR
STARTCHAR 0052
ENCODING 82
SWIDTH 560 0
DWIDTH 21 0
BBX 17 28 2 0
BITMAP
3FF000
FFF800
FFFC00
E01E00
E00F00
E00700
E00380
E00380
E00380
E00380
E00380
E00700
E00F00
E01E00
FFFE00
FFF800
FFF000
E07800
E03800
E03C00
E01C00
E01E00
E00E00
E00F00
E00F00
E00780
E00780
800200
ENDCHAR
STARTCHAR 0053
ENCODING 83
SWIDTH 560 0
DWIDTH 21 0
BBX 17 28 2 0
BITMAP
07E000
0FF000
1FFC00
3C3C00
381E00
700E00
700E00
700C00
700000
380000
3C0000
1FE000
0FF800
03FC00
003E00
000F00
000700
000380
200380
E00380
E00380
F00380
700780
780F00
3C1F00
1FFE00
0FF800
03F000
ENDCHAR
STARTCHAR 0054
ENCODING 84
SWIDTH 560 0
DWIDTH 21 0
BBX 19 28 1 0
BITMAP
7FFFE0
FFFFE0
FFFFC0
00E000
00E000
00E000
00E000
00E000
00E000
00E000
00E000
00E000
00E000
00E000
00E000
00E000
00E000
00E000
00E000
00E000
00E000
00E000
00E000
00E000
00E000
00E000
00E000
008000
ENDCHAR
STARTCHAR 0055
ENCODING 85
SWIDTH 560 0
DWIDTH 21 0
BBX 17 28 2 0
BITMAP
200080
E00380
E00380
E00380
E00380
E00380
E00380
E00380
E00380
E00380
E00380
E00380
E00380
E00380
E00380
E00380
E00380
E00380
E00380
E00380
E00380
F00380
700780
780F00
3C1F00
1FFE00
0FF800
03F000
ENDCHAR
STARTCHAR 0056
ENCODING 86
SWIDTH 560 0
DWIDTH 21 0
BBX 19 28 1 0
BITMAP
200040
E000E0
E000E0
7000E0
7001C0
7001C0
7801C0
3803C0
380380
3C0380
1C0380
1C0700
1C0700
0E0700
0E0E00
0E0E00
070E00
071C00
071C00
079C00
03B800
03B800
03F800
01F000
01F000
01F000
00F000
008000
ENDCHAR
STARTCHAR 0057
ENCODING 87
SWIDTH 560 0
DWIDTH 21 0
BBX 17 28 2 0
BITMAP
204080
E1C380
E1C380
E1C380
E1C380
E1C380
E1C380
E1C380
E1C380
E1C380
E1C380
E1C380
E1C380
E1C380
E1C380
E1C380
E1C380
E1C380
E1C380
E1C380
E1C380
E1C380
E1C380
E1C380
F3E780
7FFF80
7FFF00
1E3E00
ENDCHAR
STARTCHAR 0058
ENCODING 88
SWIDTH 560 0
DWIDTH 21 0
BBX 18 28 2 0
BITMAP
400100
E003C0
F00380
700780
780700
380E00
1C1E00
1E1C00
0E3C00
0F3800
077000
03F000
03E000
01E000
01E000
03E000
03F000
077000
0F3800
0E3C00
1E1C00
1C1E00
380E00
780F00
700780
F00380
E003C0
600100
ENDCHAR
STARTCHAR 0059
ENCODING 89
SWIDTH 560 0
DWIDTH 21 0
BBX 17 28 2 0
BITMAP
200080
E00380
E00380
E00380
E00380
E00380
E00380
E00380
E00380
E00380
E00380
E00380
F00380
700780
780F00
3C1F00
3FFE00
0FFC00
07F000
01C000
01C000
01C000
01C000
01C000
01C000
01C000
01C000
010000
ENDCHAR
STARTCHAR 005A
ENCODING 90
SWIDTH 560 0
DWIDTH 21 0
BBX 17 28 2 0
BITMAP
3FFF80
7FFF00
7FFF00
000E00
001E00
001C00
003C00
003800
007800
007000
00F000
00E000
01E000
01C000
03C000
038000
038000
070000
070000
0E0000
0E0000
1C0000
1C0000
380000
380000
7FFF80
7FFF80
FFFF00
ENDCHAR
STARTCHAR 005B
ENCODING 91
SWIDTH 560 0
DWIDTH 21 0
BBX 10 42 8 -7
BITMAP
3FC0
FFC0
FF80
E000
E000
E000
E000
E000
E000
E000
E000
E000
E000
E000
E000
E000
E000
E000
E000
E000
E000
E000
E000
E000
E000
E000
E000
E000
E000
E000
E000
E000
E000
E000
E000
E000
E000
E000
E000
FFC0
FFC0
FF80
ENDCHAR
STARTCHAR 005C
ENCODING 92
SWIDTH 560 0
DWIDTH 21 0
BBX 19 42 1 -7
BITMAP
200000
E00000
F00000
700000
700000
380000
380000
3C0000
1C0000
1E0000
0E0000
0E0000
070000
070000
078000
038000
038000
01C000
01C000
01E000
00E000
00E000
007000
007000
007800
003800
003C00
001C00
001C00
000E00
000E00
000F00
000700
000700
000380
000380
0003C0
0001C0
0001C0
0000E0
0000E0
000040
ENDCHAR
STARTCHAR 005D
ENCODING 93
SWIDTH 560 0
DWIDTH 21 0
BBX 10 42 3 -7
BITMAP
7FC0
7FC0
FFC0
01C0
01C0
01C0
01C0
01C0
01C0
01C0
01C0
01C0
01C0
01C0
01C0
01C0
01C0
01C0
01C0
01C0
01C0
01C0
01C0
01C0
01C0
01C0
01C0
01C0
01C0
01C0
01C0
01C0
01C0
01C0
01C0
01C0
01C0
01C0
01C0
7FC0
7FC0
FF00
ENDCHAR
STARTCHAR 005E
ENCODING 94
SWIDTH 560 0
DWIDTH 21 0
BBX 15 8 3 20
BITMAP
0100
07C0
0FE0
1FF0
7C7C
F83E
700E
4004
ENDCHAR
STARTCHAR 005F
ENCODING 95
SWIDTH 560 0
DWIDTH 21 0
BBX 16 3 3 0
BITMAP
7FFF
FFFE
FFFE
ENDCHAR
STARTCHAR 0060
ENCODING 96
SWIDTH 560 0
DWIDTH 21 0
BBX 7 9 7 19
BITMAP
40
60
F0
F8
7C
1E
0E
06
04
ENDCHAR
STARTCHAR 0061
ENCODING 97
SWIDTH 560 0
DWIDTH 21 0
BBX 14 21 4 0
BITMAP
0F80
3FE0
7FF0
7878
F038
E038
E01C
C03C
00FC
03FC
1FFC
7F1C
FC1C
F01C
E01C
E01C
E01C
F01C
7F9C
3F9C
1F90
ENDCHAR
STARTCHAR 0062
ENCODING 98
SWIDTH 560 0
DWIDTH 21 0
BBX 14 28 4 0
BITMAP
6000
E000
E000
E000
E000
E000
E000
EF80
FFE0
FFF0
F878
F038
E03C
E01C
E01C
E01C
E01C
E01C
E01C
E01C
E01C
E01C
E03C
F038
7878
7FF0
3FE0
0F80
ENDCHAR
STARTCHAR 0063
ENCODING 99
SWIDTH 560 0
DWIDTH 21 0
BBX 14 21 4 0
BITMAP
0F80
3FE0
7FF0
7878
F038
E03C
E01C
E018
E000
E000
E000
E000
E004
E01C
E01C
E038
F038
7878
7FF0
3FE0
0F80
ENDCHAR
STARTCHAR 0064
ENCODING 100
SWIDTH 560 0
DWIDTH 21 0
BBX 14 28 4 0
BITMAP
000C
001C
001C
001C
001C
001C
001C
0F9C
3FFC
7FFC
787C
F03C
E03C
E01C
E01C
E01C
E01C
E01C
E01C
E01C
E01C
E01C
E03C
F038
7878
7FF0
3FE0
0F80
ENDCHAR
STARTCHAR 0065
ENCODING 101
SWIDTH 560 0
DWIDTH 21 0
BBX 14 21 4 0
BITMAP
0F80
3FE0
7FF0
78F8
F038
E038
E01C
E03C
E1FC
E7F0
FFC0
FF00
FC04
E01C
E01C
E038
F038
7878
7FF0
3FE0
0F80
ENDCHAR
STARTCHAR 0066
ENCODING 102
SWIDTH 560 0
DWIDTH 21 0
BBX 16 28 2 0
BITMAP
03E0
0FF8
1FFC
3E1E
380E
380F
3807
3804
3800
3800
3800
3800
FFF8
FFF8
FFF0
3800
3800
3800
3800
3800
3800
3800
3800
3800
3800
3800
3800
2000
ENDCHAR
STARTCHAR 0067
ENCODING 103
SWIDTH 560 0
DWIDTH 21 0
BBX 14 28 4 -7
BITMAP
0F80
3FE0
7FF0
7878
F038
E03C
E01C
E01C
E01C
E01C
E01C
E01C
E01C
E01C
E01C
E03C
F03C
787C
7FFC
3FFC
0F9C
001C
003C
E038
F878
7FF0
3FE0
0F80
ENDCHAR
STARTCHAR 0068
ENCODING 104
SWIDTH 560 0
DWIDTH 21 0
BBX 14 28 4 0
BITMAP
6000
E000
E000
E000
E000
E000
E000
EF80
FFE0
FFF0
F878
F038
E03C
E01C
E01C
E01C
E01C
E01C
E01C
E01C
E01C
E01C
E01C
E01C
E01C
E01C
E01C
8010
ENDCHAR
STARTCHAR 0069
ENCODING 105
SWIDTH 560 0
DWIDTH 21 0
BBX 15 28 3 0
BITMAP
7000
F000
F800
F000
7000
0000
0000
1000
7000
7000
7000
7000
7000
7000
7000
7000
7000
7000
7000
7000
700E
700E
701E
781C
3C3C
3FF8
1FF0
07C0
ENDCHAR
STARTCHAR 006A
ENCODING 106
SWIDTH 560 0
DWIDTH 21 0
BBX 15 35 4 -7
BITMAP
001C
003C
003E
003C
001C
0000
0000
000C
001C
001C
001C
001C
001C
001C
001C
001C
001C
001C
001C
201C
E01C
E01C
E01C
E01C
E01C
E01C
E01C
E01C
E01C
E03C
F038
7878
7FF0
3FE0
0F80
ENDCHAR
STARTCHAR 006B
ENCODING 107
SWIDTH 560 0
DWIDTH 21 0
BBX 14 28 4 0
BITMAP
6000
E000
E000
E000
E000
E000
E000
E030
E078
E0F0
E1F0
E3E0
E7C0
EF80
FFC0
FFE0
FFF0
F078
E038
E03C
E01C
E01C
E01C
E01C
E01C
E01C
E01C
8010
ENDCHAR
STARTCHAR 006C
ENCODING 108
SWIDTH 560 0
DWIDTH 21 0
BBX 14 28 4 0
BITMAP
6000
E000
E000
E000
E000
E000
E000
E000
E000
E000
E000
E000
E000
E000
E000
E000
E000
E000
E000
E000
E01C
E01C
E03C
F038
7878
7FF0
3FE0
0F80
ENDCHAR
STARTCHAR 006D
ENCODING 109
SWIDTH 560 0
DWIDTH 21 0
BBX 17 21 2 0
BITMAP
1E3E00
3FFF00
7FFF80
F3E380
E1C380
E1C380
E1C380
E1C380
E1C380
E1C380
E1C380
E1C380
E1C380
E1C380
E1C380
E1C380
E1C380
E1C380
E1C380
E1C380
810200
ENDCHAR
STARTCHAR 006E
ENCODING 110
SWIDTH 560 0
DWIDTH 21 0
BBX 14 21 4 0
BITMAP
0F80
3FE0
7FF0
7878
F038
E03C
E01C
E01C
E01C
E01C
E01C
E01C
E01C
E01C
E01C
E01C
E01C
E01C
E01C
E01C
8010
ENDCHAR
STARTCHAR 006F
ENCODING 111
SWIDTH 560 0
DWIDTH 21 0
BBX 14 21 4 0
BITMAP
0F80
3FE0
7FF0
7878
F038
E03C
E01C
E01C
E01C
E01C
E01C
E01C
E01C
E01C
E01C
E03C
F038
7878
7FF0
3FE0
0F80
ENDCHAR
STARTCHAR 0070
ENCODING 112
SWIDTH 560 0
DWIDTH 21 0
BBX 14 28 4 -7
BITMAP
0F80
3FE0
7FF0
7878
F038
E03C
E01C
E01C
E01C
E01C
E01C
E01C
E01C
E01C
E01C
E03C
F038
F878
FFF0
FFE0
EF80
E000
E000
E000
E000
E000
E000
8000
ENDCHAR
STARTCHAR 0071
ENCODING 113
SWIDTH 560 0
DWIDTH 21 0
BBX 18 28 4 -7
BITMAP
0F8000
3FE000
7FF000
787800
F03800
E03C00
E01C00
E01C00
E01C00
E01C00
E01C00
E01C00
E01C00
E01C00
E01C00
E03C00
F03C00
787C00
7FFC00
3FFC00
0F9C00
001C00
001C80
001F80
001FC0
001F80
001C00
001000
ENDCHAR
STARTCHAR 0072
ENCODING 114
SWIDTH 560 0
DWIDTH 21 0
BBX 14 21 4 0
BITMAP
0F80
3FE0
7FF0
7878
F038
E038
E01C
E018
E000
E000
E000
E000
E000
E000
E000
E000
E000
E000
E000
E000
8000
ENDCHAR
STARTCHAR 0073
ENCODING 115
SWIDTH 560 0
DWIDTH 21 0
BBX 14 21 4 0
BITMAP
0780
1FE0
3FE0
38F0
7070
7040
7800
3C00
3FC0
1FE0
07F0
0078
0038
E03C
E01C
E038
F038
7878
3FF0
1FE0
0FC0
ENDCHAR
STARTCHAR 0074
ENCODING 116
SWIDTH 560 0
DWIDTH 21 0
BBX 16 28 2 0
BITMAP
0800
3800
3800
3800
3800
3800
3800
3800
FFFC
FFF8
FFF8
3800
3800
3800
3800
3800
3800
3800
3800
3800
3803
3807
380F
380E
1E1E
1FFC
0FF8
03E0
ENDCHAR
STARTCHAR 0075
ENCODING 117
SWIDTH 560 0
DWIDTH 21 0
BBX 14 21 4 0
BITMAP
2004
E01C
E01C
E01C
E01C
E01C
E01C
E01C
E01C
E01C
E01C
E01C
E01C
E01C
E01C
E03C
F038
7878
7FF0
3FE0
0F80
ENDCHAR
STARTCHAR 0076
ENCODING 118
SWIDTH 560 0
DWIDTH 21 0
BBX 19 21 1 0
BITMAP
200080
F000E0
7001C0
7001C0
3803C0
380380
3C0380
1C0700
1C0700
0E0F00
0E0E00
0F0E00
071C00
071C00
039C00
03B800
03F800
01F000
01F000
00F000
008000
ENDCHAR
STARTCHAR 0077
ENCODING 119
SWIDTH 560 0
DWIDTH 21 0
BBX 17 21 2 0
BITMAP
204080
E1C380
E1C380
E1C380
E1C380
E1C380
E1C380
E1C380
E1C380
E1C380
E1C380
E1C380
E1C380
E1C380
E1C380
E1C380
E1C380
F3E780
7FFF80
7FFF00
1E3C00
ENDCHAR
STARTCHAR 0078
ENCODING 120
SWIDTH 560 0
DWIDTH 21 0
BBX 17 21 2 0
BITMAP
200200
F00780
780700
380F00
1C1E00
1E1C00
0F3800
077800
07F000
03E000
01E000
03E000
07F000
077800
0F3800
1E3C00
1C1E00
380F00
780700
F00780
200200
ENDCHAR
STARTCHAR 0079
ENCODING 121
SWIDTH 560 0
DWIDTH 21 0
BBX 14 28 4 -7
BITMAP
2004
E01C
E01C
E01C
E01C
E01C
E01C
E01C
E01C
E01C
E01C
E01C
E01C
E01C
E01C
E03C
F03C
787C
7FFC
3FFC
0F9C
001C
003C
E038
F878
7FF0
3FE0
0F80
ENDCHAR
STARTCHAR 007A
ENCODING 122
SWIDTH 560 0
DWIDTH 21 0
BBX 15 20 3 0
BITMAP
3FFE
7FFC
7FFC
0038
0078
0070
00E0
01E0
01C0
03C0
0380
0780
0F00
0E00
1E00
1C00
3C00
3FFE
7FFE
FFFC
ENDCHAR
STARTCHAR 007B
ENCODING 123
SWIDTH 560 0
DWIDTH 21 0
BBX 17 41 1 -6
BITMAP
000780
001F00
007F00
007800
00F000
00E000
01C000
01C000
01C000
01C000
01C000
01C000
01C000
01C000
01C000
01C000
03C000
078000
0F8000
7F0000
7E0000
FF0000
0F8000
038000
03C000
01C000
01C000
01C000
01C000
01C000
01C000
01C000
01C000
01C000
01C000
00E000
00F000
007800
003F80
001F00
000700
ENDCHAR
STARTCHAR 007C
ENCODING 124
SWIDTH 560 0
DWIDTH 21 0
BBX 3 40 9 -6
BITMAP
60
E0
E0
E0
E0
E0
E0
E0
E0
E0
E0
E0
E0
E0
E0
E0
E0
E0
E0
E0
E0
E0
E0
E0
E0
E0
E0
E0
E0
E0
E0
E0
E0
E0
E0
E0
E0
E0
E0
C0
ENDCHAR
STARTCHAR 007D
ENCODING 125
SWIDTH 560 0
DWIDTH 21 0
BBX 16 41 4 -6
BITMAP
E000
FC00
FE00
1F00
0700
0780
0380
0380
0380
0380
0380
0380
0380
0380
0380
0380
01C0
01E0
00F0
007F
003E
007E
00F0
01E0
01C0
03C0
0380
0380
0380
0380
0380
0380
0380
0380
0380
0780
0700
1F00
FE00
FC00
F000
ENDCHAR
STARTCHAR 007E
ENCODING 126
SWIDTH 560 0
DWIDTH 21 0
BBX 17 6 2 11
BITMAP
1F0080
3F8380
7FE700
71FF00
F07E00
C03C00
ENDCHAR
STARTCHAR 00A0
ENCODING 160
SWIDTH 560 0
DWIDTH 21 0
BBX 0 0 0 0
BITMAP
ENDCHAR
STARTCHAR 00A1
ENCODING 161
SWIDTH 560 0
DWIDTH 21 0
BBX 5 28 8 0
BITMAP
70
F8
F8
F8
70
00
00
30
70
70
70
70
70
70
70
70
70
70
70
70
70
70
70
70
70
70
70
40
ENDCHAR
STARTCHAR 00A2
ENCODING 162
SWIDTH 560 0
DWIDTH 21 0
BBX 14 33 4 -7
BITMAP
0300
0700
0700
0700
0700
0700
0780
1FE0
7FF0
7FF8
F738
E738
E71C
E718
E700
E700
E700
E700
E704
E71C
E71C
E738
F738
7F78
7FF0
3FE0
0F80
0700
0700
0700
0700
0700
0600
ENDCHAR
STARTCHAR 00A3
ENCODING 163
SWIDTH 560 0
DWIDTH 21 0
BBX 18 28 2 0
BITMAP
03E000
0FF800
1FFC00
1E1E00
3C0E00
380F00
380700
380600
380000
380000
380000
380000
380000
380000
380000
7FF000
FFE000
FFE000
380000
380000
380000
380000
380000
380000
380000
3FFFC0
3FFF80
3FFF80
ENDCHAR
STARTCHAR 00A4
ENCODING 164
SWIDTH 560 0
DWIDTH 21 0
BBX 18 16 2 6
BITMAP
600300
F1E780
7FFF00
3FFE00
1E1E00
3C0E00
380700
380700
380700
380700
3C0F00
1E1E00
3FFF00
7FFF80
F3E7C0
600300
ENDCHAR
STARTCHAR 00A5
ENCODING 165
SWIDTH 560 0
DWIDTH 21 0
BBX 19 28 1 0
BITMAP
200040
E000E0
F001E0
7001C0
7803C0
380380
3C0780
1C0700
1E0F00
0E0E00
0F1E00
071C00
1FFF80
1FFF80
3FFF80
01F000
01F000
00F000
1FFF80
1FFF80
3FFF80
00E000
00E000
00E000
00E000
00E000
00E000
008000
ENDCHAR
STARTCHAR 00A6
ENCODING 166
SWIDTH 560 0
DWIDTH 21 0
BBX 3 40 9 -6
BITMAP
60
E0
E0
E0
E0
E0
E0
E0
E0
E0
E0
E0
E0
E0
E0
E0
E0
C0
00
00
00
00
60
E0
E0
E0
E0
E0
E0
E0
E0
E0
E0
E0
E0
E0
E0
E0
E0
C0
ENDCHAR
STARTCHAR 00A7
ENCODING 167
SWIDTH 560 0
DWIDTH 21 0
BBX 13 28 4 0
BITMAP
0F80
1FC0
3FE0
78F0
7070
7000
7800
3F80
3FE0
7FF0
78F8
F038
E038
E038
E038
E038
F038
7878
7FF0
3FE0
0FE0
00F0
0070
3070
38F0
3FE0
1FC0
0F80
ENDCHAR
STARTCHAR 00A8
ENCODING 168
SWIDTH 560 0
DWIDTH 21 0
BBX 13 5 4 23
BITMAP
7070
F878
F8F8
F878
7070
ENDCHAR
STARTCHAR 00A9
ENCODING 169
SWIDTH 560 0
DWIDTH 21 0
BBX 21 21 0 3
BITMAP
01FC00
070300
0C00C0
100060
307820
61FC30
418E10
438618
C38418
C38018
C38218
438618
438E18
61FE10
61FC30
207820
100060
1800C0
0C0180
030700
00FC00
ENDCHAR
STARTCHAR 00AA
ENCODING 170
SWIDTH 560 0
DWIDTH 21 0
BBX 16 16 3 12
BITMAP
03C0
0FE0
0C70
1C70
1C70
03F0
0FF0
1F30
1C30
1C30
0FF0
07F0
0000
7FFF
FFFE
FFFE
ENDCHAR
STARTCHAR 00AB
ENCODING 171
SWIDTH 560 0
DWIDTH 21 0
BBX 16 21 3 4
BITMAP
0104
038F
078E
0F1C
0E3C
1E78
3C70
38F0
71E0
F1C0
E380
F3C0
71E0
78E0
3CF0
1C78
0E3C
0F1C
079E
038F
0304
ENDCHAR
STARTCHAR 00AC
ENCODING 172
SWIDTH 560 0
DWIDTH 21 0
BBX 16 10 3 6
BITMAP
7FFF
FFFE
FFFE
001C
003C
003C
0038
0078
0070
0060
ENDCHAR
STARTCHAR 00AD
ENCODING 173
SWIDTH 560 0
DWIDTH 21 0
BBX 16 3 3 13
BITMAP
7FFF
FFFE
FFFE
ENDCHAR
STARTCHAR 00AE
ENCODING 174
SWIDTH 560 0
DWIDTH 21 0
BBX 21 21 0 3
BITMAP
00FC00
070700
0C0180
180040
31F860
21FE30
618E10
418710
418718
C18E18
C1FC18
C1FC18
419C18
418E18
618F10
218630
300020
180040
0C0180
070300
01FC00
ENDCHAR
STARTCHAR 00AF
ENCODING 175
SWIDTH 560 0
DWIDTH 21 0
BBX 16 3 3 25
BITMAP
7FFF
FFFE
FFFE
ENDCHAR
STARTCHAR 00B0
ENCODING 176
SWIDTH 560 0
DWIDTH 21 0
BBX 13 12 4 16
BITMAP
0F80
1FE0
3FF0
7870
7038
E038
E038
7038
7870
3FF0
1FE0
0F80
ENDCHAR
STARTCHAR 00B1
ENCODING 177
SWIDTH 560 0
DWIDTH 21 0
BBX 16 19 3 6
BITMAP
0180
0380
0380
0380
0380
0380
7FFF
FFFE
FFFE
0380
0380
0380
0380
0380
0200
0000
7FFF
FFFE
FFFE
ENDCHAR
STARTCHAR 00B2
ENCODING 178
SWIDTH 560 0
DWIDTH 21 0
BBX 9 13 6 15
BITMAP
3E00
7F00
E380
E180
E380
0780
0F00
1E00
3800
7800
7000
FF80
FF80
ENDCHAR
STARTCHAR 00B3
ENCODING 179
SWIDTH 560 0
DWIDTH 21 0
BBX 9 12 6 16
BITMAP
7F80
FF00
0E00
0E00
1C00
3F00
1F80
6380
E380
E380
7F00
3E00
ENDCHAR
STARTCHAR 00B4
ENCODING 180
SWIDTH 560 0
DWIDTH 21 0
BBX 7 9 7 19
BITMAP
04
06
0E
1E
7C
F8
F0
60
40
ENDCHAR
STARTCHAR 00B5
ENCODING 181
SWIDTH 560 0
DWIDTH 21 0
BBX 14 28 4 -7
BITMAP
2004
E01C
E01C
E01C
E01C
E01C
E01C
E01C
E01C
E01C
E01C
E01C
E01C
E01C
E01C
E03C
F038
F878
FFF0
FFE0
EF80
E000
E000
E000
E000
E000
E000
8000
ENDCHAR
STARTCHAR 00B6
ENCODING 182
SWIDTH 560 0
DWIDTH 21 0
BBX 12 28 5 0
BITMAP
07F0
1FD0
3FD0
7FD0
7FD0
FFD0
FFD0
FFD0
FFD0
FFD0
FFD0
FFD0
7FD0
7FD0
3FD0
1FD0
07D0
0050
0050
0050
0050
0050
0050
0050
0050
0050
0050
0040
ENDCHAR
STARTCHAR 00B7
ENCODING 183
SWIDTH 560 0
DWIDTH 21 0
BBX 5 5 8 12
BITMAP
70
F8
F8
F8
70
ENDCHAR
STARTCHAR 00B8
ENCODING 184
SWIDTH 560 0
DWIDTH 21 0
BBX 6 12 8 -9
BITMAP
20
30
70
70
38
38
1C
1C
7C
FC
E0
80
ENDCHAR
STARTCHAR 00B9
ENCODING 185
SWIDTH 560 0
DWIDTH 21 0
BBX 6 13 7 15
BITMAP
0C
3C
7C
FC
FC
5C
1C
1C
1C
1C
1C
1C
18
ENDCHAR
STARTCHAR 00BA
ENCODING 186
SWIDTH 560 0
DWIDTH 21 0
BBX 16 16 3 12
BITMAP
03C0
0FE0
1C70
1C30
1C30
1C30
1C30
1C30
1C30
1C70
0FE0
07C0
0000
7FFF
FFFE
FFFE
ENDCHAR
STARTCHAR 00BB
ENCODING 187
SWIDTH 560 0
DWIDTH 21 0
BBX 16 21 3 4
BITMAP
4180
E3C0
F1C0
71E0
38F0
3C70
1E78
0E3C
071C
078E
038F
078E
071E
0F3C
1E38
3C78
38F0
79E0
F1C0
E3C0
4180
ENDCHAR
STARTCHAR 00BC
ENCODING 188
SWIDTH 560 0
DWIDTH 21 0
BBX 19 28 1 0
BITMAP
0C0000
3C0000
7C0000
FC0000
FC0000
1C0000
1C0040
1C00E0
1C03E0
1C07C0
1C1F00
1C3E00
18FC00
01F000
03E000
0F80C0
1F01C0
7E01C0
F803C0
7007C0
400EC0
000EC0
001CC0
003FE0
003FE0
0000C0
0000C0
000080
ENDCHAR
STARTCHAR 00BD
ENCODING 189
SWIDTH 560 0
DWIDTH 21 0
BBX 19 28 1 0
BITMAP
0C0000
3C0000
7C0000
FC0000
FC0000
1C0000
1C0040
1C00E0
1C03E0
1C07C0
1C1F00
1C3E00
10FC00
01F000
03E000
0F8F00
1F1FC0
7E39C0
F830E0
7030E0
4000E0
0003C0
000780
000E00
001C00
003C00
003FE0
007FC0
ENDCHAR
STARTCHAR 00BE
ENCODING 190
SWIDTH 560 0
DWIDTH 21 0
BBX 19 28 1 0
BITMAP
7F8000
FF0000
0E0000
1E0000
1C0000
3E0000
3F0040
4380E0
C383E0
E307C0
7F1F00
3C3E00
00FC00
01F000
03E000
0F80C0
1F01C0
7E03C0
F803C0
7007C0
400EC0
000EC0
001CC0
003FE0
003FE0
0000C0
0000C0
000080
ENDCHAR
STARTCHAR 00BF
ENCODING 191
SWIDTH 560 0
DWIDTH 21 0
BBX 17 28 2 0
BITMAP
007000
00F000
00F800
00F000
007000
000000
000000
000000
007000
007000
00F000
01E000
07C000
0F8000
3E0000
3C0000
700000
700000
E00080
E00380
E00380
F00380
700780
780F00
3C1E00
1FFE00
0FF800
03E000
ENDCHAR
STARTCHAR 00C0
ENCODING 192
SWIDTH 560 0
DWIDTH 21 0
BBX 17 38 2 0
BITMAP
080000
0C0000
0E0000
0F0000
078000
03C000
01C000
018000
008000
000000
03F000
0FFC00
1FFE00
3C1F00
780F00
700780
E00380
E00380
E00380
E00380
E00380
E00380
FFFF80
FFFF80
FFFF80
E00380
E00380
E00380
E00380
E00380
E00380
E00380
E00380
E00380
E00380
E00380
E00380
800200
ENDCHAR
STARTCHAR 00C1
ENCODING 193
SWIDTH 560 0
DWIDTH 21 0
BBX 17 38 2 0
BITMAP
000800
001800
001C00
003C00
007800
00F000
00E000
00C000
008000
000000
03F000
0FFC00
1FFE00
3C1F00
780F00
700780
E00380
E00380
E00380
E00380
E00380
E00380
FFFF80
FFFF80
FFFF80
E00380
E00380
E00380
E00380
E00380
E00380
E00380
E00380
E00380
E00380
E00380
E00380
800200
ENDCHAR
STARTCHAR 00C2
ENCODING 194
SWIDTH 560 0
DWIDTH 21 0
BBX 17 36 2 1
BITMAP
01C000
03E000
07F000
0F7800
0E3800
041800
000000
000000
03F000
0FFC00
1FFE00
3C1F00
780F00
700780
E00380
E00380
E00380
E00380
E00380
E00380
FFFF80
FFFF80
FFFF80
E00380
E00380
E00380
E00380
E00380
E00380
E00380
E00380
E00380
E00380
E00380
E00380
800200
ENDCHAR
STARTCHAR 00C3
ENCODING 195
SWIDTH 560 0
DWIDTH 21 0
BBX 17 37 2 0
BITMAP
030400
078E00
0FCE00
1FFC00
3DF800
38F000
106000
000000
000000
03F000
0FFC00
3FFE00
3C1F00
780F00
700780
E00380
E00380
E00380
E00380
E00380
E00380
FFFF80
FFFF80
FFFF80
E00380
E00380
E00380
E00380
E00380
E00380
E00380
E00380
E00380
E00380
E00380
E00380
800200
ENDCHAR
STARTCHAR 00C4
ENCODING 196
SWIDTH 560 0
DWIDTH 21 0
BBX 17 35 2 0
BITMAP
1C1C00
3E1E00
3E3E00
3E1E00
1C1C00
000000
000000
03F000
0FFC00
1FFE00
3C1F00
780F00
700780
E00380
E00380
E00380
E00380
E00380
E00380
FFFF80
FFFF80
FFFF80
E00380
E00380
E00380
E00380
E00380
E00380
E00380
E00380
E00380
E00380
E00380
E00380
800200
ENDCHAR
STARTCHAR 00C5
ENCODING 197
SWIDTH 560 0
DWIDTH 21 0
BBX 17 38 2 0
BITMAP
01E000
03F000
07F000
073800
0E3800
0E3800
073800
07F000
01E000
000000
03F000
0FFC00
1FFE00
3C1F00
780F00
700780
E00380
E00380
E00380
E00380
E00380
E00380
FFFF80
FFFF80
FFFF80
E00380
E00380
E00380
E00380
E00380
E00380
E00380
E00380
E00380
E00380
E00380
E00380
800200
ENDCHAR
STARTCHAR 00C6
ENCODING 198
SWIDTH 560 0
DWIDTH 21 0
BBX 19 28 2 0
BITMAP
1F7F00
3FFF00
7FFE00
F3C000
E1C000
E1C000
E1C000
E1C000
E1C000
E1C000
E1C000
E1C000
E1C000
FFFF00
FFFF00
FFFE00
E1C000
E1C000
E1C000
E1C000
E1C000
E1C000
E1C000
E1C000
E1C000
E1FFE0
E1FFC0
C1FFC0
ENDCHAR
STARTCHAR 00C7
ENCODING 199
SWIDTH 560 0
DWIDTH 21 0
BBX 17 37 2 -9
BITMAP
03F000
0FF800
1FFE00
3C1E00
780F00
700780
F00380
E00380
E00380
E00200
E00000
E00000
E00000
E00000
E00000
E00000
E00000
E00000
E00000
E00380
E00380
E00380
700780
780700
3C1F00
1FFE00
0FFC00
07F000
01C000
01E000
00E000
00E000
006000
01F000
03F000
038000
020000
ENDCHAR
STARTCHAR 00C8
ENCODING 200
SWIDTH 560 0
DWIDTH 21 0
BBX 16 38 4 0
BITMAP
2000
3000
3800
3C00
1E00
0F00
0700
0600
0200
0000
3FF8
FFF8
FFF0
E000
E000
E000
E000
E000
E000
E000
E000
E000
FFF8
FFF8
FFF0
E000
E000
E000
E000
E000
E000
E000
E000
E000
E000
FFFF
FFFE
FFFE
ENDCHAR
STARTCHAR 00C9
ENCODING 201
SWIDTH 560 0
DWIDTH 21 0
BBX 16 38 4 0
BITMAP
0020
0060
0070
00F0
01E0
03C0
0380
0300
0200
0000
3FF8
FFF8
FFF0
E000
E000
E000
E000
E000
E000
E000
E000
E000
FFF8
FFF8
FFF0
E000
E000
E000
E000
E000
E000
E000
E000
E000
E000
FFFF
FFFE
FFFE
ENDCHAR
STARTCHAR 00CA
ENCODING 202
SWIDTH 560 0
DWIDTH 21 0
BBX 16 36 4 1
BITMAP
0700
0F80
1FC0
3DE0
38E0
1060
0000
0000
3FF8
FFF8
FFF0
E000
E000
E000
E000
E000
E000
E000
E000
E000
FFF8
FFF8
FFF0
E000
E000
E000
E000
E000
E000
E000
E000
E000
E000
FFFF
FFFE
FFFE
ENDCHAR
STARTCHAR 00CB
ENCODING 203
SWIDTH 560 0
DWIDTH 21 0
BBX 16 35 4 0
BITMAP
7070
F878
F8F8
F878
7070
0000
0000
3FF8
FFF8
FFF0
E000
E000
E000
E000
E000
E000
E000
E000
E000
FFF8
FFF8
FFF0
E000
E000
E000
E000
E000
E000
E000
E000
E000
E000
FFFF
FFFE
FFFE
ENDCHAR
STARTCHAR 00CC
ENCODING 204
SWIDTH 560 0
DWIDTH 21 0
BBX 16 38 3 0
BITMAP
1000
1800
1C00
1E00
0F00
0780
0380
0300
0100
0000
7FFF
FFFE
FFFE
0380
0380
0380
0380
0380
0380
0380
0380
0380
0380
0380
0380
0380
0380
0380
0380
0380
0380
0380
0380
0380
0380
7FFF
FFFE
FFFE
ENDCHAR
STARTCHAR 00CD
ENCODING 205
SWIDTH 560 0
DWIDTH 21 0
BBX 16 38 3 0
BITMAP
0010
0030
0038
0078
00F0
01E0
01C0
0180
0100
0000
7FFF
FFFE
FFFE
0380
0380
0380
0380
0380
0380
0380
0380
0380
0380
0380
0380
0380
0380
0380
0380
0380
0380
0380
0380
0380
0380
7FFF
FFFE
FFFE
ENDCHAR
STARTCHAR 00CE
ENCODING 206
SWIDTH 560 0
DWIDTH 21 0
BBX 16 36 3 1
BITMAP
0380
07C0
0FE0
1EF0
1C70
0830
0000
0000
7FFF
FFFE
FFFE
0380
0380
0380
0380
0380
0380
0380
0380
0380
0380
0380
0380
0380
0380
0380
0380
0380
0380
0380
0380
0380
0380
7FFF
FFFE
FFFE
ENDCHAR
STARTCHAR 00CF
ENCODING 207
SWIDTH 560 0
DWIDTH 21 0
BBX 16 35 3 0
BITMAP
3838
7C3C
7C7C
7C3C
3838
0000
0000
7FFF
FFFE
FFFE
0380
0380
0380
0380
0380
0380
0380
0380
0380
0380
0380
0380
0380
0380
0380
0380
0380
0380
0380
0380
0380
0380
7FFF
FFFE
FFFE
ENDCHAR
STARTCHAR 00D0
ENCODING 208
SWIDTH 560 0
DWIDTH 21 0
BBX 18 28 1 0
BITMAP
1FF800
7FFC00
7FFF00
700F00
700780
7003C0
7001C0
7001C0
7001C0
7001C0
7001C0
7001C0
7FE1C0
FFE1C0
FFE1C0
7001C0
7001C0
7001C0
7001C0
7001C0
7001C0
7001C0
7003C0
700780
700F00
7FFF00
7FFC00
7FF000
ENDCHAR
STARTCHAR 00D1
ENCODING 209
SWIDTH 560 0
DWIDTH 21 0
BBX 17 36 2 1
BITMAP
030400
078E00
0FDE00
3DFC00
38F800
106000
000000
000000
03F000
0FFC00
1FFE00
3C1F00
780F00
700780
F00380
E00380
E00380
E00380
E00380
E00380
E00380
E00380
E00380
E00380
E00380
E00380
E00380
E00380
E00380
E00380
E00380
E00380
E00380
E00380
E00380
800200
ENDCHAR
STARTCHAR 00D2
ENCODING 210
SWIDTH 560 0
DWIDTH 21 0
BBX 17 38 2 0
BITMAP
080000
0C0000
0E0000
0F0000
078000
03C000
01C000
018000
008000
000000
03F000
0FF800
1FFE00
3C1E00
780F00
700780
F00380
E00380
E00380
E00380
E00380
E00380
E00380
E00380
E00380
E00380
E00380
E00380
E00380
E00380
E00380
F00380
700780
780F00
3C1E00
1FFE00
0FFC00
03F000
ENDCHAR
STARTCHAR 00D3
ENCODING 211
SWIDTH 560 0
DWIDTH 21 0
BBX 17 38 2 0
BITMAP
000800
001800
001C00
003C00
007800
00F000
00E000
00C000
008000
000000
03F000
0FFC00
1FFE00
3C1F00
780F00
700780
F00380
E00380
E00380
E00380
E00380
E00380
E00380
E00380
E00380
E00380
E00380
E00380
E00380
E00380
E00380
F00380
700780
780F00
3C1F00
1FFE00
0FF800
03F000
ENDCHAR
STARTCHAR 00D4
ENCODING 212
SWIDTH 560 0
DWIDTH 21 0
BBX 17 36 2 1
BITMAP
01C000
03E000
07F000
0F7800
0E3800
041800
000000
000000
03F000
0FF800
1FFE00
3C1E00
780F00
700780
F00380
E00380
E00380
E00380
E00380
E00380
E00380
E00380
E00380
E00380
E00380
E00380
E00380
E00380
E00380
F00380
700780
780F00
3C1E00
1FFE00
0FFC00
03F000
ENDCHAR
STARTCHAR 00D5
ENCODING 213
SWIDTH 560 0
DWIDTH 21 0
BBX 17 36 2 1
BITMAP
030400
078E00
0FDE00
3DFC00
38F800
106000
000000
000000
03F000
0FF800
1FFE00
3C1E00
780F00
700780
F00380
E00380
E00380
E00380
E00380
E00380
E00380
E00380
E00380
E00380
E00380
E00380
E00380
E00380
E00380
F00380
700780
780F00
3C1E00
1FFE00
0FFC00
03F000
ENDCHAR
STARTCHAR 00D6
ENCODING 214
SWIDTH 560 0
DWIDTH 21 0
BBX 17 35 2 0
BITMAP
1C1C00
3E1E00
3E3E00
3E1E00
1C1C00
000000
000000
03F000
0FF800
1FFE00
3C1E00
780F00
700780
F00380
E00380
E00380
E00380
E00380
E00380
E00380
E00380
E00380
E00380
E00380
E00380
E00380
E00380
E00380
F00380
700780
780F00
3C1E00
1FFE00
0FFC00
03F000
ENDCHAR
STARTCHAR 00D7
ENCODING 215
SWIDTH 560 0
DWIDTH 21 0
BBX 13 12 4 8
BITMAP
2030
F078
78F0
3DE0
1FC0
0F80
0F80
1FC0
3DE0
78F0
F078
2030
ENDCHAR
STARTCHAR 00D8
ENCODING 216
SWIDTH 560 0
DWIDTH 21 0
BBX 19 32 1 -2
BITMAP
0000C0
0000E0
01F9E0
07FFC0
0FFFC0
1E0F80
3C0780
3807C0
780FC0
701FC0
701DC0
703DC0
7039C0
7079C0
7071C0
70F1C0
70E1C0
71E1C0
71C1C0
73C1C0
7381C0
7701C0
7701C0
7E01C0
3E03C0
3C0780
3E0F00
3FFF00
7FFE00
71F800
F00000
200000
ENDCHAR
STARTCHAR 00D9
ENCODING 217
SWIDTH 560 0
DWIDTH 21 0
BBX 17 38 2 0
BITMAP
080000
0C0000
0E0000
0F0000
078000
03C000
01C000
018000
008000
000000
200080
E00380
E00380
E00380
E00380
E00380
E00380
E00380
E00380
E00380
E00380
E00380
E00380
E00380
E00380
E00380
E00380
E00380
E00380
E00380
E00380
F00380
700780
780F00
3C1F00
1FFE00
0FF800
03F000
ENDCHAR
STARTCHAR 00DA
ENCODING 218
SWIDTH 560 0
DWIDTH 21 0
BBX 17 38 2 0
BITMAP
000800
001800
001C00
003C00
007800
00F000
00E000
00C000
008000
000000
200080
E00380
E00380
E00380
E00380
E00380
E00380
E00380
E00380
E00380
E00380
E00380
E00380
E00380
E00380
E00380
E00380
E00380
E00380
E00380
E00380
F00380
700780
780F00
3C1F00
1FFE00
0FF800
03F000
ENDCHAR
STARTCHAR 00DB
ENCODING 219
SWIDTH 560 0
DWIDTH 21 0
BBX 17 36 2 1
BITMAP
01C000
03E000
07F000
0F7800
0E3800
041800
000000
000000
200080
E00380
E00380
E00380
E00380
E00380
E00380
E00380
E00380
E00380
E00380
E00380
E00380
E00380
E00380
E00380
E00380
E00380
E00380
E00380
E00380
F00380
700780
780F00
3C1F00
1FFE00
0FF800
03F000
ENDCHAR
STARTCHAR 00DC
ENCODING 220
SWIDTH 560 0
DWIDTH 21 0
BBX 17 35 2 0
BITMAP
1C1C00
3E1E00
3E3E00
3E1E00
1C1C00
000000
000000
200080
E00380
E00380
E00380
E00380
E00380
E00380
E00380
E00380
E00380
E00380
E00380
E00380
E00380
E00380
E00380
E00380
E00380
E00380
E00380
E00380
F00380
700780
780F00
3C1F00
1FFE00
0FF800
03F000
ENDCHAR
STARTCHAR 00DD
ENCODING 221
SWIDTH 560 0
DWIDTH 21 0
BBX 17 38 2 0
BITMAP
000800
001800
001C00
003C00
007800
00F000
00E000
00C000
008000
000000
200080
E00380
E00380
E00380
E00380
E00380
E00380
E00380
E00380
E00380
E00380
E00380
F00380
700780
780F00
3C1F00
3FFE00
0FFC00
07F000
01C000
01C000
01C000
01C000
01C000
01C000
01C000
01C000
010000
ENDCHAR
STARTCHAR 00DE
ENCODING 222
SWIDTH 560 0
DWIDTH 21 0
BBX 15 28 3 0
BITMAP
2000
E000
E000
E000
E000
E000
FFC0
FFF0
FFF8
E03C
E01E
E00E
E00E
E006
E006
E00E
E00E
E01E
E03C
FFF8
FFF0
FFC0
E000
E000
E000
E000
E000
8000
ENDCHAR
STARTCHAR 00DF
ENCODING 223
SWIDTH 560 0
DWIDTH 21 0
BBX 17 28 2 0
BITMAP
07C000
1FF000
3FF800
783C00
701E00
F00E00
E00E00
E00E00
E00E00
E01E00
E03C00
E0F800
E1F800
E1FE00
E01E00
E00F00
E00700
E00380
E00380
E00380
E00380
E00380
E00700
E00F00
E01E00
E3FE00
E3F800
C7F000
ENDCHAR
STARTCHAR 00E0
ENCODING 224
SWIDTH 560 0
DWIDTH 21 0
BBX 14 30 4 0
BITMAP
2000
3000
3800
3C00
1E00
0F00
0600
0200
0000
0F80
3FE0
7FF0
7878
F038
E038
E01C
C03C
00FC
03FC
1FFC
7F1C
FC1C
F01C
E01C
E01C
E01C
F01C
7F9C
3F9C
1F90
ENDCHAR
STARTCHAR 00E1
ENCODING 225
SWIDTH 560 0
DWIDTH 21 0
BBX 14 30 4 0
BITMAP
0020
0060
00F0
01E0
03C0
0380
0300
0200
0000
0F80
3FE0
7FF0
7878
F038
E038
E01C
C03C
00FC
03FC
1FFC
7F1C
FC1C
F01C
E01C
E01C
E01C
F01C
7F9C
3F9C
1F90
ENDCHAR
STARTCHAR 00E2
ENCODING 226
SWIDTH 560 0
DWIDTH 21 0
BBX 14 29 4 0
BITMAP
0200
0700
0F80
1FC0
3CE0
3860
1040
0000
0F80
3FE0
7FF0
7878
F038
E038
E01C
C03C
00FC
03FC
1FFC
7F1C
FC1C
F01C
E01C
E01C
E01C
F01C
7F9C
3F9C
1F90
ENDCHAR
STARTCHAR 00E3
ENCODING 227
SWIDTH 560 0
DWIDTH 21 0
BBX 14 29 4 0
BITMAP
0410
0E18
3F38
7FF8
F3F0
61C0
4080
0000
0F80
1FE0
3FF0
7878
F038
E038
E01C
C03C
00FC
03FC
1FFC
7F1C
FC1C
F01C
E01C
E01C
E01C
F01C
7F9C
3F9C
1F90
ENDCHAR
STARTCHAR 00E4
ENCODING 228
SWIDTH 560 0
DWIDTH 21 0
BBX 14 28 4 0
BITMAP
7070
F878
F8F8
F878
7070
0000
0000
0F80
3FE0
7FF0
7878
F038
E038
E01C
C03C
00FC
03FC
1FFC
7F1C
FC1C
F01C
E01C
E01C
E01C
F01C
7F9C
3F9C
1F90
ENDCHAR
STARTCHAR 00E5
ENCODING 229
SWIDTH 560 0
DWIDTH 21 0
BBX 14 31 4 0
BITMAP
0780
0FC0
1FC0
1CE0
18E0
1CE0
1FC0
0780
0000
0000
0F80
3FE0
7FF0
7878
F038
E038
E01C
C03C
00FC
03FC
1FFC
7F1C
FC1C
F01C
E01C
E01C
E01C
F01C
7F9C
3F9C
1F90
ENDCHAR
STARTCHAR 00E6
ENCODING 230
SWIDTH 560 0
DWIDTH 21 0
BBX 18 21 2 0
BITMAP
1F3E00
3FFF00
7FFF80
71E380
E1E3C0
E1C1C0
81C1C0
01C3C0
01CFC0
03FF00
1FFC00
7FF000
7DC000
F1C000
E1C040
E1C1C0
E1E3C0
F1E380
7DFF80
3DFF00
1DBE00
ENDCHAR
STARTCHAR 00E7
ENCODING 231
SWIDTH 560 0
DWIDTH 21 0
BBX 14 30 4 -9
BITMAP
0F80
3FE0
7FF0
7878
F038
E038
E01C
E018
E000
E000
E000
E000
E000
E01C
E01C
E03C
E038
F078
7FF0
3FE0
1FC0
0700
0780
0380
0380
0180
07C0
0FC0
0E00
0800
ENDCHAR
STARTCHAR 00E8
ENCODING 232
SWIDTH 560 0
DWIDTH 21 0
BBX 14 30 4 0
BITMAP
2000
3000
3800
3C00
1E00
0F00
0600
0200
0000
0F80
3FE0
7FF0
78F8
F038
E038
E01C
E03C
E1FC
E7F0
FFC0
FF00
FC04
E01C
E01C
E038
F038
7878
7FF0
3FE0
0F80
ENDCHAR
STARTCHAR 00E9
ENCODING 233
SWIDTH 560 0
DWIDTH 21 0
BBX 14 30 4 0
BITMAP
0020
0060
00F0
01E0
03C0
0380
0300
0200
0000
0F80
3FE0
7FF0
78F8
F038
E038
E01C
E03C
E1FC
E7F0
FFC0
FF00
FC04
E01C
E01C
E038
F038
7878
7FF0
3FE0
0F80
ENDCHAR
STARTCHAR 00EA
ENCODING 234
SWIDTH 560 0
DWIDTH 21 0
BBX 14 29 4 0
BITMAP
0200
0700
0F80
1FC0
3CE0
3860
1040
0000
0F80
3FE0
7FF0
78F8
F038
E038
E01C
E03C
E1FC
E7F0
FFC0
FF00
FC04
E01C
E01C
E038
F038
7878
7FF0
3FE0
0F80
ENDCHAR
STARTCHAR 00EB
ENCODING 235
SWIDTH 560 0
DWIDTH 21 0
BBX 14 28 4 0
BITMAP
7070
F878
F8F8
F878
7070
0000
0000
0F80
3FE0
7FF0
7878
F038
E038
E01C
E03C
E1FC
E7F0
FFC0
FF00
FC04
E01C
E01C
E038
F038
7878
7FF0
3FE0
0F80
ENDCHAR
STARTCHAR 00EC
ENCODING 236
SWIDTH 560 0
DWIDTH 21 0
BBX 18 30 0 0
BITMAP
400000
600000
F00000
F80000
3C0000
1C0000
0C0000
040000
000000
020000
0E0000
0E0000
0E0000
0E0000
0E0000
0E0000
0E0000
0E0000
0E0000
0E0000
0E0000
0E0000
0E01C0
0E01C0
0E03C0
0F0380
078780
07FF00
03FE00
00F800
ENDCHAR
STARTCHAR 00ED
ENCODING 237
SWIDTH 560 0
DWIDTH 21 0
BBX 14 30 4 0
BITMAP
0800
0C00
3C00
7C00
F800
F000
E000
4000
0000
2000
E000
E000
E000
E000
E000
E000
E000
E000
E000
E000
E000
E000
E01C
E01C
E03C
F038
7878
7FF0
3FE0
0F80
ENDCHAR
STARTCHAR 00EE
ENCODING 238
SWIDTH 560 0
DWIDTH 21 0
BBX 18 29 0 0
BITMAP
040000
0E0000
3F0000
7F8000
F3C000
618000
408000
000000
020000
0E0000
0E0000
0E0000
0E0000
0E0000
0E0000
0E0000
0E0000
0E0000
0E0000
0E0000
0E0000
0E01C0
0E01C0
0E03C0
0F0380
078780
07FF00
03FE00
00F800
ENDCHAR
STARTCHAR 00EF
ENCODING 239
SWIDTH 560 0
DWIDTH 21 0
BBX 19 28 -1 0
BITMAP
707000
F87800
F8F800
F87800
707000
000000
000000
010000
070000
070000
070000
070000
070000
070000
070000
070000
070000
070000
070000
070000
0700E0
0700E0
0701E0
0781C0
03C3C0
03FF80
01FF00
007C00
ENDCHAR
STARTCHAR 00F0
ENCODING 240
SWIDTH 560 0
DWIDTH 21 0
BBX 16 28 4 0
BITMAP
00C0
00E7
01FE
01FE
01F8
01DC
001C
0F9C
3FFC
7FFC
787C
F03C
E03C
E01C
E01C
E01C
E01C
E01C
E01C
E01C
E01C
E01C
E03C
F038
7878
7FF0
3FE0
0F80
ENDCHAR
STARTCHAR 00F1
ENCODING 241
SWIDTH 560 0
DWIDTH 21 0
BBX 14 29 4 0
BITMAP
0400
0E18
1F38
3FF8
F3F0
61E0
4080
0000
0F80
3FE0
7FF0
7878
F038
E03C
E01C
E01C
E01C
E01C
E01C
E01C
E01C
E01C
E01C
E01C
E01C
E01C
E01C
E01C
8010
ENDCHAR
STARTCHAR 00F2
ENCODING 242
SWIDTH 560 0
DWIDTH 21 0
BBX 14 30 4 0
BITMAP
2000
3000
3800
3C00
1E00
0F00
0600
0200
0000
0F80
3FE0
7FF0
7878
F038
E03C
E01C
E01C
E01C
E01C
E01C
E01C
E01C
E01C
E01C
E03C
F038
7878
7FF0
3FE0
0F80
ENDCHAR
STARTCHAR 00F3
ENCODING 243
SWIDTH 560 0
DWIDTH 21 0
BBX 14 30 4 0
BITMAP
0020
0060
00F0
01E0
03C0
0380
0300
0200
0000
0F80
3FE0
7FF0
7878
F038
E03C
E01C
E01C
E01C
E01C
E01C
E01C
E01C
E01C
E01C
E03C
F038
7878
7FF0
3FE0
0F80
ENDCHAR
STARTCHAR 00F4
ENCODING 244
SWIDTH 560 0
DWIDTH 21 0
BBX 14 29 4 0
BITMAP
0200
0700
0F80
1FC0
3CE0
3860
1040
0000
0F80
3FE0
7FF0
7878
F038
E03C
E01C
E01C
E01C
E01C
E01C
E01C
E01C
E01C
E01C
E03C
F038
7878
7FF0
3FE0
0F80
ENDCHAR
STARTCHAR 00F5
ENCODING 245
SWIDTH 560 0
DWIDTH 21 0
BBX 14 29 4 0
BITMAP
0400
0E18
1F38
3FF8
F3F0
61E0
4080
0000
0F80
3FE0
7FF0
7878
F038
E03C
E01C
E01C
E01C
E01C
E01C
E01C
E01C
E01C
E01C
E03C
F038
7878
7FF0
3FE0
0F80
ENDCHAR
STARTCHAR 00F6
ENCODING 246
SWIDTH 560 0
DWIDTH 21 0
BBX 14 28 4 0
BITMAP
7070
F878
F8F8
F878
7070
0000
0000
0F80
3FE0
7FF0
7878
F038
E03C
E01C
E01C
E01C
E01C
E01C
E01C
E01C
E01C
E01C
E03C
F038
7878
7FF0
3FE0
0F80
ENDCHAR
STARTCHAR 00F7
ENCODING 247
SWIDTH 560 0
DWIDTH 21 0
BBX 16 20 3 4
BITMAP
0380
07C0
07C0
07C0
0380
0000
0000
0000
7FFF
FFFE
FFFE
0000
0000
0000
0000
0380
07C0
07C0
07C0
0380
ENDCHAR
STARTCHAR 00F8
ENCODING 248
SWIDTH 560 0
DWIDTH 21 0
BBX 19 25 1 -2
BITMAP
0000C0
0000E0
01F1C0
07FFC0
0FFF80
0F1F00
1E0F00
1C1F80
1C1F80
1C3F80
1C7B80
1C7380
1CE380
1DE380
1FC380
1F8380
1F8380
1F0780
1E0700
1F0F00
3FFE00
3FFC00
79F000
F00000
200000
ENDCHAR
STARTCHAR 00F9
ENCODING 249
SWIDTH 560 0
DWIDTH 21 0
BBX 14 30 4 0
BITMAP
2000
3000
3800
3C00
1E00
0F00
0600
0200
0000
2004
E01C
E01C
E01C
E01C
E01C
E01C
E01C
E01C
E01C
E01C
E01C
E01C
E01C
E01C
E03C
F038
7878
7FF0
3FE0
0F80
ENDCHAR
STARTCHAR 00FA
ENCODING 250
SWIDTH 560 0
DWIDTH 21 0
BBX 14 30 4 0
BITMAP
0020
0060
00F0
01E0
03C0
0380
0300
0200
0000
2004
E01C
E01C
E01C
E01C
E01C
E01C
E01C
E01C
E01C
E01C
E01C
E01C
E01C
E01C
E03C
F038
7878
7FF0
3FE0
0F80
ENDCHAR
STARTCHAR 00FB
ENCODING 251
SWIDTH 560 0
DWIDTH 21 0
BBX 14 29 4 0
BITMAP
0200
0700
0F80
1FC0
3CE0
3860
1040
0000
2004
E01C
E01C
E01C
E01C
E01C
E01C
E01C
E01C
E01C
E01C
E01C
E01C
E01C
E01C
E03C
F038
7878
7FF0
3FE0
0F80
ENDCHAR
STARTCHAR 00FC
ENCODING 252
SWIDTH 560 0
DWIDTH 21 0
BBX 14 28 4 0
BITMAP
7070
F878
F8F8
F878
7070
0000
0000
2004
E01C
E01C
E01C
E01C
E01C
E01C
E01C
E01C
E01C
E01C
E01C
E01C
E01C
E01C
E03C
F038
7878
7FF0
3FE0
0F80
ENDCHAR
STARTCHAR 00FD
ENCODING 253
SWIDTH 560 0
DWIDTH 21 0
BBX 14 37 4 -7
BITMAP
0020
0060
00F0
01E0
03C0
0380
0300
0200
0000
2004
E01C
E01C
E01C
E01C
E01C
E01C
E01C
E01C
E01C
E01C
E01C
E01C
E01C
E01C
E03C
F03C
787C
7FFC
3FFC
0F9C
001C
003C
E038
F878
7FF0
3FE0
0F80
ENDCHAR
STARTCHAR 00FE
ENCODING 254
SWIDTH 560 0
DWIDTH 21 0
BBX 14 35 4 -7
BITMAP
6000
E000
E000
E000
E000
E000
E000
EF80
FFE0
FFF0
F878
F038
E03C
E01C
E01C
E01C
E01C
E01C
E01C
E01C
E01C
E01C
E03C
F038
F878
FFF0
FFE0
EF80
E000
E000
E000
E000
E000
E000
8000
ENDCHAR
STARTCHAR 00FF
ENCODING 255
SWIDTH 560 0
DWIDTH 21 0
BBX 14 35 4 -7
BITMAP
7070
F878
F8F8
F878
7070
0000
0000
2004
E01C
E01C
E01C
E01C
E01C
E01C
E01C
E01C
E01C
E01C
E01C
E01C
E01C
E01C
E03C
F03C
787C
7FFC
3FFC
0F9C
001C
003C
E038
F878
7FF0
3FE0
0F80
ENDCHAR
STARTCHAR 0100
ENCODING 256
SWIDTH 560 0
DWIDTH 21 0
BBX 17 34 2 0
BITMAP
1FFE00
1FFE00
3FFC00
000000
000000
000000
03F000
0FFC00
1FFE00
3C1F00
780F00
700780
E00380
E00380
E00380
E00380
E00380
E00380
FFFF80
FFFF80
FFFF80
E00380
E00380
E00380
E00380
E00380
E00380
E00380
E00380
E00380
E00380
E00380
E00380
800200
ENDCHAR
STARTCHAR 0101
ENCODING 257
SWIDTH 560 0
DWIDTH 21 0
BBX 14 26 4 0
BITMAP
7FF8
7FF8
FFF0
0000
0000
0F80
3FE0
7FF0
7878
F038
E038
E01C
C03C
00FC
03FC
1FFC
7F1C
FC1C
F01C
E01C
E01C
E01C
F01C
7F9C
3F9C
1F90
ENDCHAR
STARTCHAR 0102
ENCODING 258
SWIDTH 560 0
DWIDTH 21 0
BBX 17 35 2 0
BITMAP
001000
0E3C00
0FF800
07F800
03E000
000000
000000
03F000
0FFC00
1FFE00
3C1F00
780F00
700780
E00380
E00380
E00380
E00380
E00380
E00380
FFFF80
FFFF80
FFFF80
E00380
E00380
E00380
E00380
E00380
E00380
E00380
E00380
E00380
E00380
E00380
E00380
800200
ENDCHAR
STARTCHAR 0103
ENCODING 259
SWIDTH 560 0
DWIDTH 21 0
BBX 14 27 4 1
BITMAP
3870
3FF0
1FE0
0F80
0000
0000
0F80
3FE0
7FF0
7878
F038
E038
E01C
C03C
00FC
03FC
1FFC
7F1C
FC1C
F01C
E01C
E01C
E01C
F01C
7F9C
3F9C
1F90
ENDCHAR
STARTCHAR 0104
ENCODING 260
SWIDTH 560 0
DWIDTH 21 0
BBX 19 36 2 -8
BITMAP
03F000
0FFC00
1FFE00
3C1F00
780F00
700780
E00380
E00380
E00380
E00380
E00380
E00380
FFFF80
FFFF80
FFFF80
E00380
E00380
E00380
E00380
E00380
E00380
E00380
E00380
E00380
E00380
E00380
E003C0
800380
000780
000700
000700
000700
0007C0
0007E0
0001E0
000060
ENDCHAR
STARTCHAR 0105
ENCODING 261
SWIDTH 560 0
DWIDTH 21 0
BBX 15 29 4 -8
BITMAP
0F80
3FE0
7FF0
7878
F038
E038
E01C
C03C
00FC
07FC
1FFC
7F1C
FC1C
F01C
E01C
E01C
E01C
F01C
7F9C
3F9C
1FBC
0038
0038
0078
0070
007C
007E
000E
0002
ENDCHAR
STARTCHAR 0106
ENCODING 262
SWIDTH 560 0
DWIDTH 21 0
BBX 17 38 2 0
BITMAP
000800
001800
001C00
003C00
007800
00F000
00E000
00C000
008000
000000
03F000
0FF800
1FFE00
3C1E00
780F00
700780
F00380
E00380
E00380
E00200
E00000
E00000
E00000
E00000
E00000
E00000
E00000
E00000
E00080
E00380
E00380
F00380
700780
780F00
3C1F00
1FFE00
0FF800
03F000
ENDCHAR
STARTCHAR 0107
ENCODING 263
SWIDTH 560 0
DWIDTH 21 0
BBX 14 30 4 0
BITMAP
0020
0060
00F0
01E0
03C0
0380
0300
0200
0000
0F80
3FE0
7FF0
7878
F038
E03C
E01C
E018
E000
E000
E000
E000
E004
E01C
E01C
E038
F038
7878
7FF0
3FE0
0F80
ENDCHAR
STARTCHAR 0108
ENCODING 264
SWIDTH 560 0
DWIDTH 21 0
BBX 17 36 2 1
BITMAP
01C000
03E000
07F000
0F7800
0E3800
041800
000000
000000
03F000
0FF800
1FFE00
3C1E00
780F00
700780
F00380
E00380
E00380
E00200
E00000
E00000
E00000
E00000
E00000
E00000
E00000
E00000
E00080
E00380
E00380
F00380
700780
780F00
3C1F00
1FFE00
0FF800
03F000
ENDCHAR
STARTCHAR 0109
ENCODING 265
SWIDTH 560 0
DWIDTH 21 0
BBX 14 29 4 0
BITMAP
0200
0700
0F80
1FC0
3CE0
3860
1040
0000
0F80
3FE0
7FF0
7878
F038
E03C
E01C
E018
E000
E000
E000
E000
E004
E01C
E01C
E038
F038
7878
7FF0
3FE0
0F80
ENDCHAR
STARTCHAR 010A
ENCODING 266
SWIDTH 560 0
DWIDTH 21 0
BBX 17 35 2 0
BITMAP
01C000
03E000
03E000
03E000
01C000
000000
000000
03F000
0FF800
1FFE00
3C1E00
780F00
700780
F00380
E00380
E00380
E00200
E00000
E00000
E00000
E00000
E00000
E00000
E00000
E00000
E00080
E00380
E00380
F00380
700780
780F00
3C1F00
1FFE00
0FF800
03F000
ENDCHAR
STARTCHAR 010B
ENCODING 267
SWIDTH 560 0
DWIDTH 21 0
BBX 14 28 4 0
BITMAP
0700
0F80
0F80
0F80
0700
0000
0000
0F80
3FE0
7FF0
7878
F038
E03C
E01C
E018
E000
E000
E000
E000
E004
E01C
E01C
E038
F038
7878
7FF0
3FE0
0F80
ENDCHAR
STARTCHAR 010C
ENCODING 268
SWIDTH 560 0
DWIDTH 21 0
BBX 17 36 2 1
BITMAP
041800
0E3800
0F7800
07F000
01E000
00C000
000000
000000
03F000
0FF800
1FFE00
3C1E00
780F00
700780
F00380
E00380
E00380
E00200
E00000
E00000
E00000
E00000
E00000
E00000
E00000
E00000
E00080
E00380
E00380
F00380
700780
780F00
3C1F00
1FFE00
0FF800
03F000
ENDCHAR
STARTCHAR 010D
ENCODING 269
SWIDTH 560 0
DWIDTH 21 0
BBX 14 28 4 1
BITMAP
3060
38E0
1DE0
0FC0
0700
0200
0000
0F80
3FE0
7FF0
7878
F038
E03C
E01C
E018
E000
E000
E000
E000
E004
E01C
E01C
E038
F038
7878
7FF0
3FE0
0F80
ENDCHAR
STARTCHAR 010E
ENCODING 270
SWIDTH 560 0
DWIDTH 21 0
BBX 17 36 2 1
BITMAP
041800
0E3800
0F7800
07F000
01E000
00C000
000000
000000
3FF000
FFF800
FFFE00
E01E00
E00F00
E00780
E00380
E00380
E00380
E00380
E00380
E00380
E00380
E00380
E00380
E00380
E00380
E00380
E00380
E00380
E00380
E00380
E00780
E00F00
E01E00
FFFE00
FFF800
FFE000
ENDCHAR
STARTCHAR 010F
ENCODING 271
SWIDTH 560 0
DWIDTH 21 0
BBX 21 30 0 0
BITMAP
000010
000038
000478
001CF8
001DF0
001DE0
001DC0
001D00
001C00
0FDC00
1FFC00
3FFC00
787C00
703C00
E01C00
E01C00
E01C00
E01C00
E01C00
E01C00
E01C00
E01C00
E01C00
E01C00
E01C00
703C00
787800
3FF800
1FF000
0FC000
ENDCHAR
STARTCHAR 0110
ENCODING 272
SWIDTH 560 0
DWIDTH 21 0
BBX 18 28 1 0
BITMAP
1FF800
7FFC00
7FFF00
700F00
700780
7003C0
7001C0
7001C0
7001C0
7001C0
7001C0
7001C0
7FE1C0
FFE1C0
FFE1C0
7001C0
7001C0
7001C0
7001C0
7001C0
7001C0
7001C0
7003C0
700780
700F00
7FFF00
7FFC00
7FF000
ENDCHAR
STARTCHAR 0111
ENCODING 273
SWIDTH 560 0
DWIDTH 21 0
BBX 16 28 4 0
BITMAP
000C
07FF
0FFF
0FFF
001C
001C
001C
0F9C
3FFC
7FFC
787C
F03C
E03C
E01C
E01C
E01C
E01C
E01C
E01C
E01C
E01C
E01C
E038
F038
7878
7FF0
3FE0
0F80
ENDCHAR
STARTCHAR 0112
ENCODING 274
SWIDTH 560 0
DWIDTH 21 0
BBX 16 34 4 0
BITMAP
7FF8
7FF8
FFF0
0000
0000
0000
3FF8
FFF8
FFF0
E000
E000
E000
E000
E000
E000
E000
E000
E000
FFF8
FFF8
FFF0
E000
E000
E000
E000
E000
E000
E000
E000
E000
E000
FFFF
FFFE
FFFE
ENDCHAR
STARTCHAR 0113
ENCODING 275
SWIDTH 560 0
DWIDTH 21 0
BBX 14 26 4 0
BITMAP
7FF8
7FF8
FFF0
0000
0000
0F80
3FE0
7FF0
78F8
F038
E038
E01C
E03C
E1FC
E7F0
FFC0
FF00
FC04
E01C
E01C
E038
F038
7878
7FF0
3FE0
0F80
ENDCHAR
STARTCHAR 0114
ENCODING 276
SWIDTH 560 0
DWIDTH 21 0
BBX 16 35 4 0
BITMAP
0040
38F0
3FE0
1FE0
0F80
0000
0000
3FF8
FFF8
FFF0
E000
E000
E000
E000
E000
E000
E000
E000
E000
FFF8
FFF8
FFF0
E000
E000
E000
E000
E000
E000
E000
E000
E000
E000
FFFF
FFFE
FFFE
ENDCHAR
STARTCHAR 0115
ENCODING 277
SWIDTH 560 0
DWIDTH 21 0
BBX 14 27 4 1
BITMAP
3870
3FF0
1FE0
0F80
0000
0000
0F80
3FE0
7FF0
78F8
F038
E038
E01C
E03C
E1FC
E7F0
FFC0
FF00
FC04
E01C
E01C
E038
F038
7878
7FF0
3FE0
0F80
ENDCHAR
STARTCHAR 0116
ENCODING 278
SWIDTH 560 0
DWIDTH 21 0
BBX 16 35 4 0
BITMAP
0700
0F80
0F80
0F80
0700
0000
0000
3FF8
FFF8
FFF0
E000
E000
E000
E000
E000
E000
E000
E000
E000
FFF8
FFF8
FFF0
E000
E000
E000
E000
E000
E000
E000
E000
E000
E000
FFFF
FFFE
FFFE
ENDCHAR
STARTCHAR 0117
ENCODING 279
SWIDTH 560 0
DWIDTH 21 0
BBX 14 28 4 0
BITMAP
0700
0F80
0F80
0F80
0700
0000
0000
0F80
3FE0
7FF0
7878
F038
E038
E01C
E03C
E1FC
E7F0
FFC0
FF00
FC04
E01C
E01C
E038
F038
7878
7FF0
3FE0
0F80
ENDCHAR
STARTCHAR 0118
ENCODING 280
SWIDTH 560 0
DWIDTH 21 0
BBX 16 36 4 -8
BITMAP
3FF8
FFF8
FFF0
E000
E000
E000
E000
E000
E000
E000
E000
E000
FFF8
FFF8
FFF0
E000
E000
E000
E000
E000
E000
E000
E000
E000
E000
FFFF
FFFE
FFFE
001E
001C
001C
0018
003E
003F
0007
0001
ENDCHAR
STARTCHAR 0119
ENCODING 281
SWIDTH 560 0
DWIDTH 21 0
BBX 14 28 4 -7
BITMAP
0F80
3FE0
7FF0
78F8
F038
E038
E01C
E03C
E1FC
E7F0
FFC0
FF00
FC04
E01C
E01C
E038
F038
7878
7FF0
3FF8
0FF0
0070
00E0
00E0
00F8
00FC
003C
0004
ENDCHAR
STARTCHAR 011A
ENCODING 282
SWIDTH 560 0
DWIDTH 21 0
BBX 16 36 4 1
BITMAP
1060
38E0
3DE0
1FC0
0780
0300
0000
0000
3FF8
FFF8
FFF0
E000
E000
E000
E000
E000
E000
E000
E000
E000
FFF8
FFF8
FFF0
E000
E000
E000
E000
E000
E000
E000
E000
E000
E000
FFFF
FFFE
FFFE
ENDCHAR
STARTCHAR 011B
ENCODING 283
SWIDTH 560 0
DWIDTH 21 0
BBX 14 28 4 1
BITMAP
3060
38E0
1DE0
0FC0
0700
0200
0000
0F80
3FE0
7FF0
78F8
F038
E038
E01C
E03C
E1FC
E7F0
FFC0
FF00
FC04
E01C
E01C
E038
F038
7878
7FF0
3FE0
0F80
ENDCHAR
STARTCHAR 011C
ENCODING 284
SWIDTH 560 0
DWIDTH 21 0
BBX 17 36 2 1
BITMAP
01C000
03E000
07F000
0F7800
0E3800
041800
000000
000000
03F000
0FF800
1FFE00
3C1E00
780F00
700700
F00380
E00380
E00380
E00200
E00000
E00000
E00000
E03F80
E07F80
E07F80
E00380
E00380
E00380
E00380
E00380
F00380
700780
780F00
3C1F00
1FFE00
0FFC00
03F000
ENDCHAR
STARTCHAR 011D
ENCODING 285
SWIDTH 560 0
DWIDTH 21 0
BBX 14 36 4 -7
BITMAP
0200
0700
0F80
1FC0
3CE0
3860
1040
0000
0F80
3FE0
7FF0
7878
F038
E03C
E01C
E01C
E01C
E01C
E01C
E01C
E01C
E01C
E01C
E03C
F03C
787C
7FFC
3FFC
0F9C
001C
003C
E038
F878
7FF0
3FE0
0F80
ENDCHAR
STARTCHAR 011E
ENCODING 286
SWIDTH 560 0
DWIDTH 21 0
BBX 17 35 2 0
BITMAP
001000
0E3C00
0FF800
07F800
03E000
000000
000000
03F000
0FF800
1FFE00
3C1E00
780F00
700700
F00380
E00380
E00380
E00200
E00000
E00000
E00000
E03F80
E07F80
E07F80
E00380
E00380
E00380
E00380
E00380
F00380
700780
780F00
3C1F00
1FFE00
0FFC00
03F000
ENDCHAR
STARTCHAR 011F
ENCODING 287
SWIDTH 560 0
DWIDTH 21 0
BBX 14 34 4 -6
BITMAP
3870
3FF0
1FE0
0F80
0000
0000
0F80
3FE0
7FF0
7878
F038
E03C
E01C
E01C
E01C
E01C
E01C
E01C
E01C
E01C
E01C
E03C
F03C
787C
7FFC
3FFC
0F9C
001C
003C
E038
F878
7FF0
3FE0
0F80
ENDCHAR
STARTCHAR 0120
ENCODING 288
SWIDTH 560 0
DWIDTH 21 0
BBX 17 35 2 0
BITMAP
01C000
03E000
03E000
03E000
01C000
000000
000000
03F000
0FF800
1FFE00
3C1E00
780F00
700700
F00380
E00380
E00380
E00200
E00000
E00000
E00000
E03F80
E07F80
E07F80
E00380
E00380
E00380
E00380
E00380
F00380
700780
780F00
3C1F00
1FFE00
0FFC00
03F000
ENDCHAR
STARTCHAR 0121
ENCODING 289
SWIDTH 560 0
DWIDTH 21 0
BBX 14 35 4 -7
BITMAP
0700
0F80
0F80
0F80
0700
0000
0000
0F80
3FE0
7FF0
7878
F038
E03C
E01C
E01C
E01C
E01C
E01C
E01C
E01C
E01C
E01C
E03C
F03C
787C
7FFC
3FFC
0F9C
001C
003C
E038
F878
7FF0
3FE0
0F80
ENDCHAR
STARTCHAR 0122
ENCODING 290
SWIDTH 560 0
DWIDTH 21 0
BBX 17 37 2 -9
BITMAP
03F000
0FF800
1FFE00
3C1E00
780F00
700700
F00380
E00380
E00380
E00200
E00000
E00000
E00000
E03F80
E07F80
E07F80
E00380
E00380
E00380
E00380
E00380
F00380
700780
780F00
3C1F00
1FFE00
0FFC00
03F000
000000
008000
018000
03C000
078000
0F0000
0E0000
0C0000
080000
ENDCHAR
STARTCHAR 0123
ENCODING 291
SWIDTH 560 0
DWIDTH 21 0
BBX 14 37 4 -7
BITMAP
0020
0060
00F0
01E0
03C0
0380
0300
0200
0000
0F80
3FE0
7FF0
7878
F038
E03C
E01C
E01C
E01C
E01C
E01C
E01C
E01C
E01C
E01C
E03C
F03C
787C
7FFC
3FFC
0F9C
001C
003C
E038
F878
7FF0
3FE0
0F80
ENDCHAR
STARTCHAR 0124
ENCODING 292
SWIDTH 560 0
DWIDTH 21 0
BBX 17 36 2 1
BITMAP
01C000
03E000
07F000
0F7800
0E3800
041800
000000
000000
200080
E00380
E00380
E00380
E00380
E00380
E00380
E00380
E00380
E00380
E00380
E00380
FFFF80
FFFF80
FFFF80
E00380
E00380
E00380
E00380
E00380
E00380
E00380
E00380
E00380
E00380
E00380
E00380
800200
ENDCHAR
STARTCHAR 0125
ENCODING 293
SWIDTH 560 0
DWIDTH 21 0
BBX 14 29 4 0
BITMAP
0080
61C0
E3E0
E770
EE38
EC18
E000
E000
EF80
FFE0
FFF0
F878
F038
E03C
E01C
E01C
E01C
E01C
E01C
E01C
E01C
E01C
E01C
E01C
E01C
E01C
E01C
E01C
8010
ENDCHAR
STARTCHAR 0126
ENCODING 294
SWIDTH 560 0
DWIDTH 21 0
BBX 21 28 0 0
BITMAP
080020
3800E0
7FFFF8
7FFFF8
FFFFF0
3800E0
3800E0
3800E0
3800E0
3800E0
3800E0
3800E0
3FFFE0
3FFFE0
3FFFE0
3800E0
3800E0
3800E0
3800E0
3800E0
3800E0
3800E0
3800E0
3800E0
3800E0
3800E0
3800E0
200080
ENDCHAR
STARTCHAR 0127
ENCODING 295
SWIDTH 560 0
DWIDTH 21 0
BBX 18 28 0 0
BITMAP
060000
7FF800
7FF800
FFF000
0E0000
0E0000
0E0000
0EF800
0FFE00
0FFF00
0F8780
0F0380
0E03C0
0E01C0
0E01C0
0E01C0
0E01C0
0E01C0
0E01C0
0E01C0
0E01C0
0E01C0
0E01C0
0E01C0
0E01C0
0E01C0
0E01C0
080100
ENDCHAR
STARTCHAR 0128
ENCODING 296
SWIDTH 560 0
DWIDTH 21 0
BBX 16 36 3 1
BITMAP
0608
0F1C
1FBC
7BF8
71F0
20C0
0000
0000
7FFF
FFFE
FFFE
0380
0380
0380
0380
0380
0380
0380
0380
0380
0380
0380
0380
0380
0380
0380
0380
0380
0380
0380
0380
0380
0380
7FFF
FFFE
FFFE
ENDCHAR
STARTCHAR 0129
ENCODING 297
SWIDTH 560 0
DWIDTH 21 0
BBX 19 28 -1 1
BITMAP
0E1800
3F3800
7FF800
F3F000
61C000
408000
000000
010000
070000
070000
070000
070000
070000
070000
070000
070000
070000
070000
070000
070000
0700E0
0700E0
0701E0
0781C0
03C3C0
03FF80
01FF00
007C00
ENDCHAR
STARTCHAR 012A
ENCODING 298
SWIDTH 560 0
DWIDTH 21 0
BBX 16 34 3 0
BITMAP
3FFC
3FFC
7FF8
0000
0000
0000
7FFF
FFFE
FFFE
0380
0380
0380
0380
0380
0380
0380
0380
0380
0380
0380
0380
0380
0380
0380
0380
0380
0380
0380
0380
0380
0380
7FFF
FFFE
FFFE
ENDCHAR
STARTCHAR 012B
ENCODING 299
SWIDTH 560 0
DWIDTH 21 0
BBX 19 26 -1 0
BITMAP
7FF800
FFF000
FFF000
000000
000000
010000
070000
070000
070000
070000
070000
070000
070000
070000
070000
070000
070000
070000
0700E0
0700E0
0701E0
0781C0
03C3C0
03FF80
01FF00
007C00
ENDCHAR
STARTCHAR 012C
ENCODING 300
SWIDTH 560 0
DWIDTH 21 0
BBX 16 35 3 0
BITMAP
0020
1C78
1FF0
0FF0
07C0
0000
0000
7FFF
FFFE
FFFE
0380
0380
0380
0380
0380
0380
0380
0380
0380
0380
0380
0380
0380
0380
0380
0380
0380
0380
0380
0380
0380
0380
7FFF
FFFE
FFFE
ENDCHAR
STARTCHAR 012D
ENCODING 301
SWIDTH 560 0
DWIDTH 21 0
BBX 18 28 0 0
BITMAP
60C000
FFC000
7F8000
1F0000
000000
000000
000000
020000
0E0000
0E0000
0E0000
0E0000
0E0000
0E0000
0E0000
0E0000
0E0000
0E0000
0E0000
0E0000
0E01C0
0E01C0
0E03C0
0F0380
078780
07FF00
03FE00
00F800
ENDCHAR
STARTCHAR 012E
ENCODING 302
SWIDTH 560 0
DWIDTH 21 0
BBX 16 37 3 -9
BITMAP
7FFF
FFFE
FFFE
0380
0380
0380
0380
0380
0380
0380
0380
0380
0380
0380
0380
0380
0380
0380
0380
0380
0380
0380
0380
0380
0380
7FFF
FFFE
FFFE
01C0
0380
0380
0780
0700
07C0
07E0
00E0
0020
ENDCHAR
STARTCHAR 012F
ENCODING 303
SWIDTH 560 0
DWIDTH 21 0
BBX 15 37 3 -9
BITMAP
7000
F000
F800
F000
7000
0000
0000
1000
7000
7000
7000
7000
7000
7000
7000
7000
7000
7000
7000
7000
700E
700E
701E
781C
3C7C
3FF8
1FF0
07C0
01C0
0380
0380
0780
0700
07C0
07E0
00E0
0020
ENDCHAR
STARTCHAR 0130
ENCODING 304
SWIDTH 560 0
DWIDTH 21 0
BBX 16 35 3 0
BITMAP
0380
07C0
07C0
07C0
0380
0000
0000
7FFF
FFFE
FFFE
0380
0380
0380
0380
0380
0380
0380
0380
0380
0380
0380
0380
0380
0380
0380
0380
0380
0380
0380
0380
0380
0380
7FFF
FFFE
FFFE
ENDCHAR
STARTCHAR 0131
ENCODING 305
SWIDTH 560 0
DWIDTH 21 0
BBX 14 21 4 0
BITMAP
2000
E000
E000
E000
E000
E000
E000
E000
E000
E000
E000
E000
E000
E01C
E01C
E03C
F038
7878
7FF0
3FE0
0F80
ENDCHAR
STARTCHAR 0132
ENCODING 306
SWIDTH 560 0
DWIDTH 21 0
BBX 20 28 0 0
BITMAP
7FCFF0
7FDFF0
FF9FF0
0E0070
0E0070
0E0070
0E0070
0E0070
0E0070
0E0070
0E0070
0E0070
0E0070
0E0070
0E0070
0E0070
0E0070
0E0070
0E0070
0E0070
0E0070
0E2070
0E3870
0E3870
0E3C70
7FDFF0
7FCFE0
FF87C0
ENDCHAR
STARTCHAR 0133
ENCODING 307
SWIDTH 560 0
DWIDTH 21 0
BBX 16 35 3 -7
BITMAP
700E
F01E
F81F
F01E
700E
0000
0000
1002
700E
700E
700E
700E
700E
700E
700E
700E
700E
700E
700E
700E
700E
702E
70EE
70EE
71EE
7FCE
3F8E
1F0E
000E
001E
101C
3C3C
3FF8
1FF0
07C0
ENDCHAR
STARTCHAR 0134
ENCODING 308
SWIDTH 560 0
DWIDTH 21 0
BBX 17 36 2 1
BITMAP
01C000
03E000
07F000
0F7800
0E3800
041800
000000
000000
0FFF80
0FFF80
1FFF80
000380
000380
000380
000380
000380
000380
000380
000380
000380
000380
000380
000380
000380
000380
000380
200380
E00380
E00380
F00380
700780
780F00
3C1E00
1FFE00
0FF800
03E000
ENDCHAR
STARTCHAR 0135
ENCODING 309
SWIDTH 560 0
DWIDTH 21 0
BBX 17 36 4 -7
BITMAP
000800
003C00
007E00
00FF00
01E780
00C300
008100
000000
000400
001C00
001C00
001C00
001C00
001C00
001C00
001C00
001C00
001C00
001C00
001C00
201C00
E01C00
E01C00
E01C00
E01C00
E01C00
E01C00
E01C00
E01C00
E01C00
E03C00
F03800
787800
7FF000
3FE000
0F8000
ENDCHAR
STARTCHAR 0136
ENCODING 310
SWIDTH 560 0
DWIDTH 21 0
BBX 17 37 2 -9
BITMAP
200600
E00F00
E00E00
E01E00
E03C00
E03800
E07000
E0F000
E1E000
E1C000
E38000
E78000
E7F000
EFF800
FFFE00
FC1E00
F80F00
F00700
F00380
E00380
E00380
E00380
E00380
E00380
E00380
E00380
E00380
800200
000000
008000
018000
03C000
078000
0F0000
0E0000
0C0000
080000
ENDCHAR
STARTCHAR 0137
ENCODING 311
SWIDTH 560 0
DWIDTH 21 0
BBX 14 37 4 -9
BITMAP
6000
E000
E000
E000
E000
E000
E000
E030
E078
E0F0
E1F0
E3E0
E7C0
EF80
FFC0
FFE0
FFF0
F078
E038
E03C
E01C
E01C
E01C
E01C
E01C
E01C
E01C
8010
0000
0200
0600
0F00
1E00
3C00
3800
3000
2000
ENDCHAR
STARTCHAR 0138
ENCODING 312
SWIDTH 560 0
DWIDTH 21 0
BBX 14 21 4 0
BITMAP
2030
E078
E0F0
E1F0
E3E0
E7C0
EF80
FFC0
FFE0
FFF0
F078
E038
E03C
E01C
E01C
E01C
E01C
E01C
E01C
E01C
8010
ENDCHAR
STARTCHAR 0139
ENCODING 313
SWIDTH 560 0
DWIDTH 21 0
BBX 16 38 3 0
BITMAP
0400
0C00
1C00
3C00
7800
7000
F000
6000
4000
0000
6000
E000
E000
E000
E000
E000
E000
E000
E000
E000
E000
E000
E000
E000
E000
E000
E000
E000
E000
E000
E000
E000
E000
E000
E000
FFFF
FFFE
FFFE
ENDCHAR
STARTCHAR 013A
ENCODING 314
SWIDTH 560 0
DWIDTH 21 0
BBX 14 38 4 0
BITMAP
0800
0C00
1C00
3C00
7800
F000
E000
4000
4000
0000
6000
E000
E000
E000
E000
E000
E000
E000
E000
E000
E000
E000
E000
E000
E000
E000
E000
E000
E000
E000
E01C
E01C
E03C
F038
7878
7FF0
3FE0
0F80
ENDCHAR
STARTCHAR 013B
ENCODING 315
SWIDTH 560 0
DWIDTH 21 0
BBX 16 37 3 -9
BITMAP
6000
E000
E000
E000
E000
E000
E000
E000
E000
E000
E000
E000
E000
E000
E000
E000
E000
E000
E000
E000
E000
E000
E000
E000
E000
FFFF
FFFE
FFFE
0000
0100
0300
0780
0F00
1E00
1C00
1800
1000
ENDCHAR
STARTCHAR 013C
ENCODING 316
SWIDTH 560 0
DWIDTH 21 0
BBX 14 37 4 -9
BITMAP
6000
E000
E000
E000
E000
E000
E000
E000
E000
E000
E000
E000
E000
E000
E000
E000
E000
E000
E000
E000
E01C
E01C
E03C
F038
7878
7FF0
3FE0
0F80
0000
0200
0600
0F00
1E00
3C00
3800
3000
2000
ENDCHAR
STARTCHAR 013D
ENCODING 317
SWIDTH 560 0
DWIDTH 21 0
BBX 16 30 3 0
BITMAP
0010
0030
6078
E0F0
E1E0
E1C0
E180
E100
E000
E000
E000
E000
E000
E000
E000
E000
E000
E000
E000
E000
E000
E000
E000
E000
E000
E000
E000
FFFF
FFFE
FFFE
ENDCHAR
STARTCHAR 013E
ENCODING 318
SWIDTH 560 0
DWIDTH 21 0
BBX 14 30 4 0
BITMAP
0020
0060
60F0
E1E0
E3C0
E380
E300
E200
E000
E000
E000
E000
E000
E000
E000
E000
E000
E000
E000
E000
E000
E000
E01C
E01C
E03C
F038
7878
7FF0
3FE0
0F80
ENDCHAR
STARTCHAR 013F
ENCODING 319
SWIDTH 560 0
DWIDTH 21 0
BBX 16 28 3 0
BITMAP
6380
E7C0
E7C0
E7C0
E380
E000
E000
E000
E000
E000
E000
E000
E000
E000
E000
E000
E000
E000
E000
E000
E000
E000
E000
E000
E000
FFFF
FFFE
FFFE
ENDCHAR
STARTCHAR 0140
ENCODING 320
SWIDTH 560 0
DWIDTH 21 0
BBX 14 28 4 0
BITMAP
2700
EF80
EF80
EF80
E700
E000
E000
E000
E000
E000
E000
E000
E000
E000
E000
E000
E000
E000
E000
E000
E00C
E01C
E03C
F038
7878
7FF0
3FE0
0F80
ENDCHAR
STARTCHAR 0141
ENCODING 321
SWIDTH 560 0
DWIDTH 21 0
BBX 19 28 0 0
BITMAP
0C0000
1C0000
1C0000
1C0000
1C0000
1C0000
1C0000
1C2000
1C7800
1CF000
1DE000
1FC000
1F8000
1F0000
1E0000
3C0000
7C0000
FC0000
7C0000
1C0000
1C0000
1C0000
1C0000
1C0000
1C0000
1FFFE0
1FFFC0
1FFFC0
ENDCHAR
STARTCHAR 0142
ENCODING 322
SWIDTH 560 0
DWIDTH 21 0
BBX 17 28 1 0
BITMAP
0C0000
1C0000
1C0000
1C0000
1C0000
1C0000
1C0000
1C3000
1C7800
1CF000
1DE000
1FC000
1F8000
1F0000
1E0000
3C0000
7C0000
FC0000
3C0000
1C0000
1C0380
1C0380
1C0780
1E0700
0F0F00
0FFE00
07FC00
01F000
ENDCHAR
STARTCHAR 0143
ENCODING 323
SWIDTH 560 0
DWIDTH 21 0
BBX 17 38 2 0
BITMAP
000800
001800
001C00
003C00
007800
00F000
00E000
00C000
008000
000000
03F000
0FFC00
1FFE00
3C1F00
780F00
700780
F00380
E00380
E00380
E00380
E00380
E00380
E00380
E00380
E00380
E00380
E00380
E00380
E00380
E00380
E00380
E00380
E00380
E00380
E00380
E00380
E00380
800200
ENDCHAR
STARTCHAR 0144
ENCODING 324
SWIDTH 560 0
DWIDTH 21 0
BBX 14 30 4 0
BITMAP
0020
0060
00F0
01E0
03C0
0380
0300
0200
0000
0F80
3FE0
7FF0
7878
F038
E03C
E01C
E01C
E01C
E01C
E01C
E01C
E01C
E01C
E01C
E01C
E01C
E01C
E01C
E01C
8010
ENDCHAR
STARTCHAR 0145
ENCODING 325
SWIDTH 560 0
DWIDTH 21 0
BBX 17 37 2 -9
BITMAP
03F000
0FFC00
1FFE00
3C1F00
780F00
700780
F00380
E00380
E00380
E00380
E00380
E00380
E00380
E00380
E00380
E00380
E00380
E00380
E00380
E00380
E00380
E00380
E00380
E00380
E00380
E00380
E00380
800200
000000
008000
018000
03C000
078000
0F0000
0E0000
0C0000
080000
ENDCHAR
STARTCHAR 0146
ENCODING 326
SWIDTH 560 0
DWIDTH 21 0
BBX 14 30 4 -9
BITMAP
0F80
3FE0
7FF0
7878
F038
E03C
E01C
E01C
E01C
E01C
E01C
E01C
E01C
E01C
E01C
E01C
E01C
E01C
E01C
E01C
8010
0000
0200
0600
0F00
1E00
3C00
3800
3000
2000
ENDCHAR
STARTCHAR 0147
ENCODING 327
SWIDTH 560 0
DWIDTH 21 0
BBX 17 36 2 1
BITMAP
041800
0E3800
0F7800
07F000
01E000
00C000
000000
000000
03F000
0FFC00
1FFE00
3C1F00
780F00
700780
F00380
E00380
E00380
E00380
E00380
E00380
E00380
E00380
E00380
E00380
E00380
E00380
E00380
E00380
E00380
E00380
E00380
E00380
E00380
E00380
E00380
800200
ENDCHAR
STARTCHAR 0148
ENCODING 328
SWIDTH 560 0
DWIDTH 21 0
BBX 14 28 4 1
BITMAP
3060
38E0
1DE0
0FC0
0700
0200
0000
0F80
3FE0
7FF0
7878
F038
E03C
E01C
E01C
E01C
E01C
E01C
E01C
E01C
E01C
E01C
E01C
E01C
E01C
E01C
E01C
8010
ENDCHAR
STARTCHAR 0149
ENCODING 329
SWIDTH 560 0
DWIDTH 21 0
BBX 18 24 0 0
BITMAP
040000
0C0000
1C0000
3CF800
7BFE00
F7FF00
678780
4F0380
0E0380
0E01C0
0E01C0
0E01C0
0E01C0
0E01C0
0E01C0
0E01C0
0E01C0
0E01C0
0E01C0
0E01C0
0E01C0
0E01C0
0E01C0
080100
ENDCHAR
STARTCHAR 014A
ENCODING 330
SWIDTH 560 0
DWIDTH 21 0
BBX 17 35 2 -7
BITMAP
03F000
0FF800
1FFE00
3C1F00
780F00
700780
F00380
E00380
E00380
E00380
E00380
E00380
E00380
E00380
E00380
E00380
E00380
E00380
E00380
E00380
E00380
E00380
E00380
E00380
E00380
E00380
E00380
800380
000380
000380
000780
010F00
07FE00
03FC00
01F800
ENDCHAR
STARTCHAR 014B
ENCODING 331
SWIDTH 560 0
DWIDTH 21 0
BBX 14 28 4 -7
BITMAP
0F80
3FE0
7FF0
7878
F038
E03C
E01C
E01C
E01C
E01C
E01C
E01C
E01C
E01C
E01C
E01C
E01C
E01C
E01C
E01C
801C
001C
001C
001C
0038
03F8
07F0
03E0
ENDCHAR
STARTCHAR 014C
ENCODING 332
SWIDTH 560 0
DWIDTH 21 0
BBX 17 34 2 0
BITMAP
1FFE00
1FFE00
3FFC00
000000
000000
000000
03F000
0FF800
1FFE00
3C1E00
780F00
700780
F00380
E00380
E00380
E00380
E00380
E00380
E00380
E00380
E00380
E00380
E00380
E00380
E00380
E00380
E00380
F00380
700780
780F00
3C1E00
1FFE00
0FFC00
03F000
ENDCHAR
STARTCHAR 014D
ENCODING 333
SWIDTH 560 0
DWIDTH 21 0
BBX 14 26 4 0
BITMAP
7FF8
7FF8
FFF0
0000
0000
0F80
3FE0
7FF0
7878
F038
E03C
E01C
E01C
E01C
E01C
E01C
E01C
E01C
E01C
E01C
E03C
F038
7878
7FF0
3FE0
0F80
ENDCHAR
STARTCHAR 014E
ENCODING 334
SWIDTH 560 0
DWIDTH 21 0
BBX 17 35 2 0
BITMAP
001000
0E3C00
0FF800
07F800
03E000
000000
000000
03F000
0FF800
1FFE00
3C1E00
780F00
700780
F00380
E00380
E00380
E00380
E00380
E00380
E00380
E00380
E00380
E00380
E00380
E00380
E00380
E00380
E00380
F00380
700780
780F00
3C1E00
1FFE00
0FFC00
03F000
ENDCHAR
STARTCHAR 014F
ENCODING 335
SWIDTH 560 0
DWIDTH 21 0
BBX 14 27 4 1
BITMAP
3870
3FF0
1FE0
0F80
0000
0000
0F80
3FE0
7FF0
7878
F038
E03C
E01C
E01C
E01C
E01C
E01C
E01C
E01C
E01C
E01C
E03C
F038
7878
7FF0
3FE0
0F80
ENDCHAR
STARTCHAR 0150
ENCODING 336
SWIDTH 560 0
DWIDTH 21 0
BBX 18 38 2 0
BITMAP
004080
00C180
01E3C0
01C380
03C780
078F00
0F0E00
060C00
040800
000000
03F000
0FF800
1FFE00
3C1E00
780F00
700780
F00380
E00380
E00380
E00380
E00380
E00380
E00380
E00380
E00380
E00380
E00380
E00380
E00380
E00380
E00380
F00380
700780
780F00
3C1E00
1FFE00
0FFC00
03F000
ENDCHAR
STARTCHAR 0151
ENCODING 337
SWIDTH 560 0
DWIDTH 21 0
BBX 15 30 4 0
BITMAP
0002
0306
070E
1F1E
3E7C
3C78
3830
1020
0000
0F80
3FE0
7FF0
7878
F038
E03C
E01C
E01C
E01C
E01C
E01C
E01C
E01C
E01C
E01C
E03C
F038
7878
7FF0
3FE0
0F80
ENDCHAR
STARTCHAR 0152
ENCODING 338
SWIDTH 560 0
DWIDTH 21 0
BBX 19 28 2 0
BITMAP
1F7F00
3FFF00
7FFE00
F3C000
E1C000
E1C000
E1C000
E1C000
E1C000
E1C000
E1C000
E1C000
E1C000
E1FF00
E1FF00
E1FE00
E1C000
E1C000
E1C000
E1C000
E1C000
E1C000
E1C000
E1C000
F3C000
7FFFE0
7FFFC0
1FFFC0
ENDCHAR
STARTCHAR 0153
ENCODING 339
SWIDTH 560 0
DWIDTH 21 0
BBX 17 21 2 0
BITMAP
1E3C00
7FFF00
7FFF80
F3E780
E1C380
E1C380
E1C380
E1C780
E1DF80
E1FF00
E1FC00
E1F000
E1C000
E1C000
E1C080
E1C380
E1C380
F3E780
7FFF80
7FFF00
1E3E00
ENDCHAR
STARTCHAR 0154
ENCODING 340
SWIDTH 560 0
DWIDTH 21 0
BBX 17 38 2 0
BITMAP
000800
001800
001C00
003C00
007800
00F000
00E000
00C000
008000
000000
3FF000
FFF800
FFFC00
E01E00
E00F00
E00700
E00380
E00380
E00380
E00380
E00380
E00700
E00F00
E01E00
FFFE00
FFF800
FFF000
E07800
E03800
E03C00
E01C00
E01E00
E00E00
E00F00
E00F00
E00780
E00780
800200
ENDCHAR
STARTCHAR 0155
ENCODING 341
SWIDTH 560 0
DWIDTH 21 0
BBX 14 30 4 0
BITMAP
0020
0060
00F0
01E0
03C0
0380
0300
0200
0000
0F80
3FE0
7FF0
7878
F038
E038
E01C
E018
E000
E000
E000
E000
E000
E000
E000
E000
E000
E000
E000
E000
8000
ENDCHAR
STARTCHAR 0156
ENCODING 342
SWIDTH 560 0
DWIDTH 21 0
BBX 17 37 2 -9
BITMAP
3FF000
FFF800
FFFC00
E01E00
E00F00
E00700
E00380
E00380
E00380
E00380
E00380
E00700
E00F00
E01E00
FFFE00
FFF800
FFF000
E07800
E03800
E03C00
E01C00
E01E00
E00E00
E00F00
E00F00
E00780
E00780
800200
000000
008000
018000
03C000
078000
0F0000
0E0000
0C0000
080000
ENDCHAR
STARTCHAR 0157
ENCODING 343
SWIDTH 560 0
DWIDTH 21 0
BBX 14 30 4 -9
BITMAP
0F80
3FE0
7FF0
7878
F038
E038
E01C
E018
E000
E000
E000
E000
E000
E000
E000
E000
E000
E000
E000
E000
8000
0000
0200
0600
0F00
1E00
3C00
3800
3000
2000
ENDCHAR
STARTCHAR 0158
ENCODING 344
SWIDTH 560 0
DWIDTH 21 0
BBX 17 36 2 1
BITMAP
041800
0E3800
0F7800
07F000
01E000
00C000
000000
000000
3FF000
FFF800
FFFC00
E01E00
E00F00
E00700
E00380
E00380
E00380
E00380
E00380
E00700
E00F00
E01E00
FFFE00
FFF800
FFF000
E07800
E03800
E03C00
E01C00
E01E00
E00E00
E00F00
E00F00
E00780
E00780
800200
ENDCHAR
STARTCHAR 0159
ENCODING 345
SWIDTH 560 0
DWIDTH 21 0
BBX 14 28 4 1
BITMAP
3060
38E0
1DE0
0FC0
0700
0200
0000
0F80
3FE0
7FF0
7878
F038
E038
E01C
E018
E000
E000
E000
E000
E000
E000
E000
E000
E000
E000
E000
E000
8000
ENDCHAR
STARTCHAR 015A
ENCODING 346
SWIDTH 560 0
DWIDTH 21 0
BBX 17 38 2 0
BITMAP
000800
001800
001C00
003C00
007800
00F000
00E000
00C000
008000
000000
07E000
0FF000
1FFC00
3C3C00
381E00
700E00
700E00
700C00
700000
380000
3C0000
1FE000
0FF800
03FC00
003E00
000F00
000700
000380
200380
E00380
E00380
F00380
700780
780F00
3C1F00
1FFE00
0FF800
03F000
ENDCHAR
STARTCHAR 015B
ENCODING 347
SWIDTH 560 0
DWIDTH 21 0
BBX 14 30 4 0
BITMAP
0020
0060
00F0
01E0
03C0
0380
0300
0200
0000
0780
1FE0
3FE0
38F0
7070
7040
7800
3C00
3FC0
1FE0
07F0
0078
0038
E03C
E01C
E038
F038
7878
3FF0
1FE0
0FC0
ENDCHAR
STARTCHAR 015C
ENCODING 348
SWIDTH 560 0
DWIDTH 21 0
BBX 17 36 2 1
BITMAP
01C000
03E000
07F000
0F7800
0E3800
041800
000000
000000
07E000
0FF000
1FFC00
3C3C00
381E00
700E00
700E00
700C00
700000
380000
3C0000
1FE000
0FF800
03FC00
003E00
000F00
000700
000380
200380
E00380
E00380
F00380
700780
780F00
3C1F00
1FFE00
0FF800
03F000
ENDCHAR
STARTCHAR 015D
ENCODING 349
SWIDTH 560 0
DWIDTH 21 0
BBX 14 29 4 0
BITMAP
0200
0700
0F80
1FC0
3CE0
3860
1040
0000
0780
1FE0
3FE0
38F0
7070
7040
7800
3C00
3FC0
1FE0
07F0
0078
0038
E03C
E01C
E038
F038
7878
3FF0
1FE0
0FC0
ENDCHAR
STARTCHAR 015E
ENCODING 350
SWIDTH 560 0
DWIDTH 21 0
BBX 17 37 2 -9
BITMAP
07E000
0FF000
1FF800
3C3C00
381E00
700E00
700E00
700E00
700000
380000
3C0000
1FC000
0FF800
07FC00
007E00
000F00
000700
000380
000380
600380
E00380
E00380
700780
780700
3C0F00
3FFE00
1FFC00
07F000
01C000
01E000
00E000
00E000
006000
01E000
07E000
078000
020000
ENDCHAR
STARTCHAR 015F
ENCODING 351
SWIDTH 560 0
DWIDTH 21 0
BBX 14 30 4 -9
BITMAP
0780
1FC0
3FE0
38F0
7870
7040
7800
3800
3F80
1FE0
03F0
0078
0038
6038
E01C
E03C
F038
7878
7FF0
3FE0
0FC0
0700
0780
0380
0380
0180
07C0
0FC0
0E00
0800
ENDCHAR
STARTCHAR 0160
ENCODING 352
SWIDTH 560 0
DWIDTH 21 0
BBX 17 36 2 1
BITMAP
041800
0E3800
0F7800
07F000
01E000
00C000
000000
000000
07E000
0FF000
1FFC00
3C3C00
381E00
700E00
700E00
700C00
700000
380000
3C0000
1FE000
0FF800
03FC00
003E00
000F00
000700
000380
200380
E00380
E00380
F00380
700780
780F00
3C1F00
1FFE00
0FF800
03F000
ENDCHAR
STARTCHAR 0161
ENCODING 353
SWIDTH 560 0
DWIDTH 21 0
BBX 14 28 4 1
BITMAP
3060
38E0
1DE0
0FC0
0700
0200
0000
0780
1FE0
3FE0
38F0
7070
7040
7800
3C00
3FC0
1FE0
07F0
0078
0038
E03C
E01C
E038
F038
7878
3FF0
1FE0
0FC0
ENDCHAR
STARTCHAR 0162
ENCODING 354
SWIDTH 560 0
DWIDTH 21 0
BBX 19 37 1 -9
BITMAP
7FFFE0
FFFFE0
FFFFC0
00E000
00E000
00E000
00E000
00E000
00E000
00E000
00E000
00E000
00E000
00E000
00E000
00E000
00E000
00E000
00E000
00E000
00E000
00E000
00E000
00E000
00E000
00E000
00E000
00E000
00E000
007000
007000
007800
003800
00F800
01F800
01C000
010000
ENDCHAR
STARTCHAR 0163
ENCODING 355
SWIDTH 560 0
DWIDTH 21 0
BBX 16 37 2 -9
BITMAP
0800
3800
3800
3800
3800
3800
3800
3800
FFFC
FFF8
FFF8
3800
3800
3800
3800
3800
3800
3800
3800
3800
3803
3807
380F
380E
3C1E
1FFC
0FF8
07F0
01C0
01E0
00E0
00F0
0070
01F0
03F0
0380
0200
ENDCHAR
STARTCHAR 0164
ENCODING 356
SWIDTH 560 0
DWIDTH 21 0
BBX 19 36 1 1
BITMAP
020C00
071C00
07BC00
03F800
00F000
006000
000000
000000
7FFFE0
FFFFE0
FFFFC0
00E000
00E000
00E000
00E000
00E000
00E000
00E000
00E000
00E000
00E000
00E000
00E000
00E000
00E000
00E000
00E000
00E000
00E000
00E000
00E000
00E000
00E000
00E000
00E000
008000
ENDCHAR
STARTCHAR 0165
ENCODING 357
SWIDTH 560 0
DWIDTH 21 0
BBX 16 30 2 0
BITMAP
0008
0018
183C
3878
38F0
38E0
38C0
3880
3800
3800
FFFC
FFF8
FFF8
3800
3800
3800
3800
3800
3800
3800
3800
3800
3803
3807
380F
380E
1E1E
1FFC
0FF8
03E0
ENDCHAR
STARTCHAR 0166
ENCODING 358
SWIDTH 560 0
DWIDTH 21 0
BBX 19 28 1 0
BITMAP
7FFFE0
FFFFE0
FFFFC0
00E000
00E000
00E000
00E000
00E000
0FFF00
0FFF00
1FFE00
00E000
00E000
00E000
00E000
00E000
00E000
00E000
00E000
00E000
00E000
00E000
00E000
00E000
00E000
00E000
00E000
008000
ENDCHAR
STARTCHAR 0167
ENCODING 359
SWIDTH 560 0
DWIDTH 21 0
BBX 16 28 2 0
BITMAP
0800
3800
3800
3800
3800
3800
3800
3800
FFFC
FFF8
FFF8
3800
3800
3800
FFF0
FFE0
FFE0
3800
3800
3800
3803
3807
380F
380E
3E1E
1FFC
0FF8
03E0
ENDCHAR
STARTCHAR 0168
ENCODING 360
SWIDTH 560 0
DWIDTH 21 0
BBX 17 36 2 1
BITMAP
030400
078E00
0FDE00
3DFC00
38F800
106000
000000
000000
200080
E00380
E00380
E00380
E00380
E00380
E00380
E00380
E00380
E00380
E00380
E00380
E00380
E00380
E00380
E00380
E00380
E00380
E00380
E00380
E00380
F00380
700780
780F00
3C1F00
1FFE00
0FF800
03F000
ENDCHAR
STARTCHAR 0169
ENCODING 361
SWIDTH 560 0
DWIDTH 21 0
BBX 14 29 4 0
BITMAP
0400
0E18
1F38
3FF8
F3F0
61E0
4080
0000
2004
E01C
E01C
E01C
E01C
E01C
E01C
E01C
E01C
E01C
E01C
E01C
E01C
E01C
E01C
E03C
F038
7878
7FF0
3FE0
0F80
ENDCHAR
STARTCHAR 016A
ENCODING 362
SWIDTH 560 0
DWIDTH 21 0
BBX 17 34 2 0
BITMAP
1FFE00
1FFE00
3FFC00
000000
000000
000000
200080
E00380
E00380
E00380
E00380
E00380
E00380
E00380
E00380
E00380
E00380
E00380
E00380
E00380
E00380
E00380
E00380
E00380
E00380
E00380
E00380
F00380
700780
780F00
3C1F00
1FFE00
0FF800
03F000
ENDCHAR
STARTCHAR 016B
ENCODING 363
SWIDTH 560 0
DWIDTH 21 0
BBX 14 26 4 0
BITMAP
7FF8
7FF8
FFF0
0000
0000
2004
E01C
E01C
E01C
E01C
E01C
E01C
E01C
E01C
E01C
E01C
E01C
E01C
E01C
E01C
E03C
F038
7878
7FF0
3FE0
0F80
ENDCHAR
STARTCHAR 016C
ENCODING 364
SWIDTH 560 0
DWIDTH 21 0
BBX 17 35 2 0
BITMAP
001000
0E3C00
0FF800
07F800
03E000
000000
000000
200080
E00380
E00380
E00380
E00380
E00380
E00380
E00380
E00380
E00380
E00380
E00380
E00380
E00380
E00380
E00380
E00380
E00380
E00380
E00380
E00380
F00380
700780
780F00
3C1F00
1FFE00
0FF800
03F000
ENDCHAR
STARTCHAR 016D
ENCODING 365
SWIDTH 560 0
DWIDTH 21 0
BBX 14 27 4 1
BITMAP
3870
3FF0
1FE0
0F80
0000
0000
2004
E01C
E01C
E01C
E01C
E01C
E01C
E01C
E01C
E01C
E01C
E01C
E01C
E01C
E01C
E03C
F038
7878
7FF0
3FE0
0F80
ENDCHAR
STARTCHAR 016E
ENCODING 366
SWIDTH 560 0
DWIDTH 21 0
BBX 17 38 2 0
BITMAP
01E000
03F000
07F000
073800
0E3800
0E3800
073800
07F000
01E000
000000
200080
E00380
E00380
E00380
E00380
E00380
E00380
E00380
E00380
E00380
E00380
E00380
E00380
E00380
E00380
E00380
E00380
E00380
E00380
E00380
E00380
F00380
700780
780F00
3C1F00
1FFE00
0FF800
03F000
ENDCHAR
STARTCHAR 016F
ENCODING 367
SWIDTH 560 0
DWIDTH 21 0
BBX 14 31 4 0
BITMAP
0780
1FC0
1FC0
18E0
38E0
18E0
1FC0
0F80
0000
0000
2004
E01C
E01C
E01C
E01C
E01C
E01C
E01C
E01C
E01C
E01C
E01C
E01C
E01C
E01C
E03C
F038
7878
7FF0
3FE0
0F80
ENDCHAR
STARTCHAR 0170
ENCODING 368
SWIDTH 560 0
DWIDTH 21 0
BBX 18 38 2 0
BITMAP
004080
00C180
01E3C0
01C380
03C780
078F00
0F0E00
060C00
040800
000000
200080
E00380
E00380
E00380
E00380
E00380
E00380
E00380
E00380
E00380
E00380
E00380
E00380
E00380
E00380
E00380
E00380
E00380
E00380
E00380
E00380
F00380
700780
780F00
3C1F00
1FFE00
0FF800
03F000
ENDCHAR
STARTCHAR 0171
ENCODING 369
SWIDTH 560 0
DWIDTH 21 0
BBX 15 30 4 0
BITMAP
0002
0306
070E
1F1E
3E7C
3C78
3830
1020
0000
2004
E01C
E01C
E01C
E01C
E01C
E01C
E01C
E01C
E01C
E01C
E01C
E01C
E01C
E01C
E03C
F038
7878
7FF0
3FE0
0F80
ENDCHAR
STARTCHAR 0172
ENCODING 370
SWIDTH 560 0
DWIDTH 21 0
BBX 17 37 2 -9
BITMAP
200080
E00380
E00380
E00380
E00380
E00380
E00380
E00380
E00380
E00380
E00380
E00380
E00380
E00380
E00380
E00380
E00380
E00380
E00380
E00380
E00380
F00380
700780
780F00
3C1E00
1FFE00
0FF800
03F800
003800
007800
007000
007000
006000
007800
007E00
001E00
000600
ENDCHAR
STARTCHAR 0173
ENCODING 371
SWIDTH 560 0
DWIDTH 21 0
BBX 14 30 4 -9
BITMAP
2004
E01C
E01C
E01C
E01C
E01C
E01C
E01C
E01C
E01C
E01C
E01C
E01C
E01C
E01C
E03C
F038
7878
7FF0
3FE0
0FE0
01E0
01C0
01C0
0380
0380
03E0
03F0
00F0
0010
ENDCHAR
STARTCHAR 0174
ENCODING 372
SWIDTH 560 0
DWIDTH 21 0
BBX 17 36 2 1
BITMAP
01C000
03E000
07F000
0F7800
0E3800
041800
000000
000000
204080
E1C380
E1C380
E1C380
E1C380
E1C380
E1C380
E1C380
E1C380
E1C380
E1C380
E1C380
E1C380
E1C380
E1C380
E1C380
E1C380
E1C380
E1C380
E1C380
E1C380
E1C380
E1C380
E1C380
F3E780
7FFF80
7FFF00
1E3E00
ENDCHAR
STARTCHAR 0175
ENCODING 373
SWIDTH 560 0
DWIDTH 21 0
BBX 17 29 2 0
BITMAP
008000
01C000
03E000
07F000
0F3800
0E1800
041000
000000
204080
E1C380
E1C380
E1C380
E1C380
E1C380
E1C380
E1C380
E1C380
E1C380
E1C380
E1C380
E1C380
E1C380
E1C380
E1C380
E1C380
F3E780
7FFF80
7FFF00
1E3C00
ENDCHAR
STARTCHAR 0176
ENCODING 374
SWIDTH 560 0
DWIDTH 21 0
BBX 17 36 2 1
BITMAP
01C000
03E000
07F000
0F7800
0E3800
041800
000000
000000
200080
E00380
E00380
E00380
E00380
E00380
E00380
E00380
E00380
E00380
E00380
E00380
F00380
700780
780F00
3C1F00
3FFE00
0FFC00
07F000
01C000
01C000
01C000
01C000
01C000
01C000
01C000
01C000
010000
ENDCHAR
STARTCHAR 0177
ENCODING 375
SWIDTH 560 0
DWIDTH 21 0
BBX 14 36 4 -7
BITMAP
0200
0700
0F80
1FC0
3CE0
3860
1040
0000
2004
E01C
E01C
E01C
E01C
E01C
E01C
E01C
E01C
E01C
E01C
E01C
E01C
E01C
E01C
E03C
F03C
787C
7FFC
3FFC
0F9C
001C
003C
E038
F878
7FF0
3FE0
0F80
ENDCHAR
STARTCHAR 0178
ENCODING 376
SWIDTH 560 0
DWIDTH 21 0
BBX 17 35 2 0
BITMAP
1C1C00
3E1E00
3E3E00
3E1E00
1C1C00
000000
000000
200080
E00380
E00380
E00380
E00380
E00380
E00380
E00380
E00380
E00380
E00380
E00380
F00380
700780
780F00
3C1F00
3FFE00
0FFC00
07F000
01C000
01C000
01C000
01C000
01C000
01C000
01C000
01C000
010000
ENDCHAR
STARTCHAR 0179
ENCODING 377
SWIDTH 560 0
DWIDTH 21 0
BBX 17 38 2 0
BITMAP
000800
001800
001C00
003C00
007800
00F000
00E000
00C000
008000
000000
3FFF80
7FFF00
7FFF00
000E00
001E00
001C00
003C00
003800
007800
007000
00F000
00E000
01E000
01C000
03C000
038000
038000
070000
070000
0E0000
0E0000
1C0000
1C0000
380000
380000
7FFF80
7FFF80
FFFF00
ENDCHAR
STARTCHAR 017A
ENCODING 378
SWIDTH 560 0
DWIDTH 21 0
BBX 15 30 3 0
BITMAP
0010
0030
0078
00F0
01E0
01C0
0180
0100
0000
0000
3FFE
7FFC
7FFC
0038
0078
0070
00E0
01E0
01C0
03C0
0380
0780
0F00
0E00
1E00
1C00
3C00
3FFE
7FFE
FFFC
ENDCHAR
STARTCHAR 017B
ENCODING 379
SWIDTH 560 0
DWIDTH 21 0
BBX 17 35 2 0
BITMAP
01C000
03E000
03E000
03E000
01C000
000000
000000
3FFF80
7FFF00
7FFF00
000E00
001E00
001C00
003C00
003800
007800
007000
00F000
00E000
01E000
01C000
03C000
038000
038000
070000
070000
0E0000
0E0000
1C0000
1C0000
380000
380000
7FFF80
7FFF80
FFFF00
ENDCHAR
STARTCHAR 017C
ENCODING 380
SWIDTH 560 0
DWIDTH 21 0
BBX 15 28 3 0
BITMAP
0380
07C0
07C0
07C0
0380
0000
0000
0000
3FFE
7FFC
7FFC
0038
0078
0070
00E0
01E0
01C0
03C0
0380
0780
0F00
0E00
1E00
1C00
3C00
3FFE
7FFE
FFFC
ENDCHAR
STARTCHAR 017D
ENCODING 381
SWIDTH 560 0
DWIDTH 21 0
BBX 17 36 2 1
BITMAP
041800
0E3800
0F7800
07F000
01E000
00C000
000000
000000
3FFF80
7FFF00
7FFF00
000E00
001E00
001C00
003C00
003800
007800
007000
00F000
00E000
01E000
01C000
03C000
038000
038000
070000
070000
0E0000
0E0000
1C0000
1C0000
380000
380000
7FFF80
7FFF80
FFFF00
ENDCHAR
STARTCHAR 017E
ENCODING 382
SWIDTH 560 0
DWIDTH 21 0
BBX 15 28 3 1
BITMAP
1830
1C70
0EF0
07E0
0380
0100
0000
0000
3FFE
7FFC
7FFC
0038
0078
0070
00E0
01E0
01C0
03C0
0380
0780
0F00
0E00
1E00
1C00
3C00
3FFE
7FFE
FFFC
ENDCHAR
STARTCHAR 017F
ENCODING 383
SWIDTH 560 0
DWIDTH 21 0
BBX 18 28 0 0
BITMAP
00F800
03FE00
07FF00
0F8780
0E0380
0E03C0
0E01C0
0E0100
0E0000
0E0000
0E0000
0E0000
7E0000
7E0000
FE0000
0E0000
0E0000
0E0000
0E0000
0E0000
0E0000
0E0000
0E0000
0E0000
0E0000
0E0000
0E0000
080000
ENDCHAR
STARTCHAR 0192
ENCODING 402
SWIDTH 560 0
DWIDTH 21 0
BBX 18 35 0 -7
BITMAP
00F800
03FE00
07FF00
0F8780
0E0380
0E03C0
0E01C0
0E0100
0E0000
0E0000
0E0000
0E0000
3FFE00
3FFE00
3FFC00
0E0000
0E0000
0E0000
0E0000
0E0000
0E0000
0E0000
0E0000
0E0000
0E0000
0E0000
0E0000
0E0000
0E0000
1E0000
1C0000
3C0000
F80000
F00000
C00000
ENDCHAR
STARTCHAR 01C4
ENCODING 452
SWIDTH 560 0
DWIDTH 21 0
BBX 19 36 2 1
BITMAP
003040
0038E0
003DE0
001F80
000F00
000600
000000
000000
FE1FC0
FF3FC0
FFBFC0
E38380
E38380
E1C380
E1C780
E1C780
E1C700
E1C700
E1C700
E1CF00
E1CF00
E1CE00
E1CE00
E1CE00
E1DE00
E1DE00
E1DC00
E1DC00
E1DC00
E1FC00
E1FC00
E3BC00
E3B800
FFBFC0
FF7FC0
FE7F80
ENDCHAR
STARTCHAR 01C5
ENCODING 453
SWIDTH 560 0
DWIDTH 21 0
BBX 19 29 2 0
BITMAP
002040
FE30C0
FF79E0
FFBFC0
E39F80
E38F00
E1C600
E1C000
E1C000
E1DFC0
E1FFC0
E1FFC0
E1C380
E1C380
E1C380
E1C700
E1C700
E1C700
E1CE00
E1CE00
E1CE00
E1DE00
E1DC00
E1DC00
E39C00
E3B800
FFBFC0
FF3FC0
FE7F80
ENDCHAR
STARTCHAR 01C6
ENCODING 454
SWIDTH 560 0
DWIDTH 21 0
BBX 20 29 1 0
BITMAP
001020
005860
01FCF0
01DFE0
01CFC0
01C780
01C100
01C000
1FCFE0
3FCFE0
7FDFE0
F3C1E0
E1C1C0
E1C1C0
E1C1C0
E1C380
E1C380
E1C380
E1C780
E1C700
E1C700
E1C700
E1CE00
E1CE00
E1CE00
F3DE00
7FDFF0
3F9FE0
1E1FE0
ENDCHAR
STARTCHAR 01C7
ENCODING 455
SWIDTH 560 0
DWIDTH 21 0
BBX 19 28 1 0
BITMAP
203FE0
E03FE0
E03FE0
E000E0
E000E0
E000E0
E000E0
E000E0
E000E0
E000E0
E000E0
E000E0
E000E0
E000E0
E000E0
E000E0
E000E0
E000E0
E000E0
E000E0
E000E0
E000E0
E060E0
E070E0
E079E0
FF3FC0
FF3FC0
FF0F00
ENDCHAR
STARTCHAR 01C8
ENCODING 456
SWIDTH 560 0
DWIDTH 21 0
BBX 16 35 3 -7
BITMAP
600E
E01E
E01F
E01E
E00E
E000
E000
E002
E00E
E00E
E00E
E00E
E00E
E00E
E00E
E00E
E00E
E00E
E00E
E00E
E00E
E00E
E00E
E00E
E00E
FFCE
FFCE
FF8E
000E
001E
101C
3C3C
3FF8
1FF0
07C0
ENDCHAR
STARTCHAR 01C9
ENCODING 457
SWIDTH 560 0
DWIDTH 21 0
BBX 15 35 4 -7
BITMAP
201C
E03C
E03E
E03C
E01C
E000
E000
E004
E01C
E01C
E01C
E01C
E01C
E01C
E01C
E01C
E01C
E01C
E01C
E01C
E01C
E05C
E1DC
E1DC
E3DC
FF9C
7F1C
3E1C
001C
003C
2038
7878
7FF0
3FE0
0F80
ENDCHAR
STARTCHAR 01CA
ENCODING 458
SWIDTH 560 0
DWIDTH 21 0
BBX 19 28 1 0
BITMAP
3E1FE0
7F3FE0
FFBFE0
F3C0E0
E1C0E0
E1C0E0
E1C0E0
E1C0E0
E1C0E0
E1C0E0
E1C0E0
E1C0E0
E1C0E0
E1C0E0
E1C0E0
E1C0E0
E1C0E0
E1C0E0
E1C0E0
E1C0E0
E1C0E0
E1E0E0
E1F8E0
E1F8E0
E1DCE0
E1DFE0
E1CFC0
810780
ENDCHAR
STARTCHAR 01CB
ENCODING 459
SWIDTH 560 0
DWIDTH 21 0
BBX 16 35 3 -7
BITMAP
1E06
7F8F
FF8F
F3CF
E1CE
E1C0
E1C0
E1C2
E1C6
E1C6
E1C6
E1C6
E1C6
E1C6
E1C6
E1C6
E1C6
E1C6
E1C6
E1C6
E1C6
E1C6
E1C6
E1C6
E1C6
E1C6
E1C6
8106
000E
000E
080E
3C3E
1FFC
0FF8
03E0
ENDCHAR
STARTCHAR 01CC
ENCODING 460
SWIDTH 560 0
DWIDTH 21 0
BBX 16 35 3 -7
BITMAP
0006
000F
000F
000F
000E
0000
0000
1E02
7F06
FF86
F3C6
E1C6
E1C6
E1C6
E1C6
E1C6
E1C6
E1C6
E1C6
E1C6
E1C6
E1C6
E1C6
E1C6
E1C6
E1C6
E1C6
8106
000E
000E
080E
3C3E
1FFC
0FF8
03E0
ENDCHAR
STARTCHAR 01E4
ENCODING 484
SWIDTH 560 0
DWIDTH 21 0
BBX 19 28 2 0
BITMAP
03F000
0FF800
1FFE00
3C1E00
780F00
700700
F00380
E00380
E00380
E00200
E00000
E00000
E00000
E03F80
E07F80
E07F80
E00380
E01FE0
E01FE0
E03FC0
E00380
F00380
700780
780F00
3C1F00
1FFE00
0FFC00
03F000
ENDCHAR
STARTCHAR 01E5
ENCODING 485
SWIDTH 560 0
DWIDTH 21 0
BBX 17 28 4 -7
BITMAP
0F8000
3FE000
7FF000
787800
F03800
E03800
E01C00
E01C00
E01C00
E01C00
E01C00
E01C00
E01C00
E01C00
E01C00
E03C00
F03C00
787C00
7FFC00
3FFC00
0F9C00
001C00
01FF80
63FF80
FBFF00
7FF000
3FE000
0FC000
ENDCHAR
STARTCHAR 01F1
ENCODING 497
SWIDTH 560 0
DWIDTH 21 0
BBX 18 28 2 0
BITMAP
FE1FC0
FF3FC0
FFBFC0
E38380
E38380
E1C380
E1C780
E1C780
E1C700
E1C700
E1C700
E1CF00
E1CF00
E1CE00
E1CE00
E1CE00
E1DE00
E1DE00
E1DC00
E1DC00
E1DC00
E1FC00
E1FC00
E3BC00
E3B800
FFBFC0
FF7FC0
FE7F80
ENDCHAR
STARTCHAR 01F2
ENCODING 498
SWIDTH 560 0
DWIDTH 21 0
BBX 18 28 2 0
BITMAP
FE0000
FF0000
FF8000
E38000
E38000
E1C000
E1C000
E1C000
E1DFC0
E1FFC0
E1FFC0
E1C380
E1C380
E1C380
E1C700
E1C700
E1C700
E1CE00
E1CE00
E1CE00
E1DE00
E1DC00
E1DC00
E39C00
E3B800
FFBFC0
FF3FC0
FE7F80
ENDCHAR
STARTCHAR 01F3
ENCODING 499
SWIDTH 560 0
DWIDTH 21 0
BBX 20 28 1 0
BITMAP
004000
01C000
01C000
01C000
01C000
01C000
01C000
1FCFE0
3FCFE0
7FDFE0
F3C1E0
E1C1C0
E1C1C0
E1C1C0
E1C380
E1C380
E1C380
E1C780
E1C700
E1C700
E1C700
E1CE00
E1CE00
E1CE00
F3DE00
7FDFF0
3F9FE0
1E1FE0
ENDCHAR
STARTCHAR 01FA
ENCODING 506
SWIDTH 560 0
DWIDTH 21 0
BBX 17 41 2 0
BITMAP
000800
001800
003C00
007C00
00F000
00E000
00C000
008000
01E000
03F000
07F000
073800
0E3800
0E3800
073800
07F000
01E000
03F000
0FF800
1FFE00
3C1E00
780F00
700780
F00380
E00380
E00380
E00380
E00380
E00380
E00380
FFFF80
FFFF80
FFFF80
E00380
E00380
E00380
E00380
E00380
E00380
E00380
800200
ENDCHAR
STARTCHAR 01FB
ENCODING 507
SWIDTH 560 0
DWIDTH 21 0
BBX 14 38 4 0
BITMAP
0020
0060
00F0
01F0
03C0
0380
0300
0200
0780
0FC0
1FC0
1CE0
38E0
38E0
1CE0
1FC0
0780
0F80
3FE0
7FF0
7878
F038
E038
E01C
C03C
00FC
03FC
1FFC
7F1C
FC1C
F01C
E01C
E01C
E01C
F01C
7F9C
3F9C
1F90
ENDCHAR
STARTCHAR 01FC
ENCODING 508
SWIDTH 560 0
DWIDTH 21 0
BBX 19 38 2 0
BITMAP
000800
001800
003C00
007C00
00F800
00F000
00E000
00C000
000000
000000
1F7F00
7FFF00
FFFE00
F3C000
E1C000
E1C000
E1C000
E1C000
E1C000
E1C000
E1C000
E1C000
E1C000
FFFF00
FFFF00
FFFE00
E1C000
E1C000
E1C000
E1C000
E1C000
E1C000
E1C000
E1C000
E1C000
E1FFE0
E1FFC0
C1FFC0
ENDCHAR
STARTCHAR 01FD
ENCODING 509
SWIDTH 560 0
DWIDTH 21 0
BBX 18 30 2 0
BITMAP
000800
001800
003C00
007800
00F000
00E000
00C000
008000
000000
1F3E00
3FFF00
7FFF80
71E380
E1E3C0
E1C1C0
81C1C0
01C3C0
01CFC0
03FF00
1FFC00
7FF000
7DC000
F1C000
E1C040
E1C1C0
E1E3C0
F1E380
7DFF80
3DFF00
1DBE00
ENDCHAR
STARTCHAR 01FE
ENCODING 510
SWIDTH 560 0
DWIDTH 21 0
BBX 19 40 1 -2
BITMAP
000400
000C00
000E00
001E00
003C00
007800
007000
006000
004000
0000E0
01F1E0
07FDC0
0FFFC0
1E0F80
3C0780
380780
780FC0
700FC0
701FC0
701DC0
7039C0
7079C0
7071C0
70F1C0
70E1C0
71E1C0
71C1C0
73C1C0
7381C0
7781C0
7701C0
7E01C0
3E03C0
3C0780
3E0F80
3FFF00
7FFC00
71F800
F00000
200000
ENDCHAR
STARTCHAR 01FF
ENCODING 511
SWIDTH 560 0
DWIDTH 21 0
BBX 19 32 1 -2
BITMAP
000400
000C00
001E00
003C00
007800
007000
006000
0040C0
0000E0
01F1C0
07FFC0
0FFF80
0F1F00
1E0F00
1C1F80
1C1F80
1C3F80
1C7B80
1C7380
1CE380
1DE380
1FC380
1F8380
1F8380
1F0780
1E0700
1F0F00
3FFE00
3FFC00
79F000
F00000
200000
ENDCHAR
STARTCHAR 0200
ENCODING 512
SWIDTH 560 0
DWIDTH 21 0
BBX 17 38 2 0
BITMAP
800000
C18000
E1C000
F1E000
78F000
3C7800
1C3800
0C1800
081000
000000
03F000
0FFC00
1FFE00
3C1F00
780F00
700780
E00380
E00380
E00380
E00380
E00380
E00380
FFFF80
FFFF80
FFFF80
E00380
E00380
E00380
E00380
E00380
E00380
E00380
E00380
E00380
E00380
E00380
E00380
800200
ENDCHAR
STARTCHAR 0201
ENCODING 513
SWIDTH 560 0
DWIDTH 21 0
BBX 16 30 2 0
BITMAP
4080
E0C0
F1E0
F9F0
7CF8
3C38
0C18
0808
0000
03E0
0FF8
1FFC
1E1E
3C0E
380E
3807
300F
003F
00FF
07FF
1FC7
3F07
3C07
3807
3807
3807
3C07
1FE7
0FE7
07E4
ENDCHAR
STARTCHAR 0202
ENCODING 514
SWIDTH 560 0
DWIDTH 21 0
BBX 17 35 2 0
BITMAP
03E000
07F800
0FF800
0E3C00
041000
000000
000000
03F000
0FFC00
1FFE00
3C1F00
780F00
700780
E00380
E00380
E00380
E00380
E00380
E00380
FFFF80
FFFF80
FFFF80
E00380
E00380
E00380
E00380
E00380
E00380
E00380
E00380
E00380
E00380
E00380
E00380
800200
ENDCHAR
STARTCHAR 0203
ENCODING 515
SWIDTH 560 0
DWIDTH 21 0
BBX 14 28 4 0
BITMAP
0F80
1FE0
3FF0
3870
0000
0000
0000
0F80
3FE0
7FF0
7878
F038
E038
E01C
C03C
00FC
03FC
1FFC
7F1C
FC1C
F01C
E01C
E01C
E01C
F01C
7F9C
3F9C
1F90
ENDCHAR
STARTCHAR 0204
ENCODING 516
SWIDTH 560 0
DWIDTH 21 0
BBX 18 38 2 0
BITMAP
800000
C18000
E1C000
F1E000
78F000
3C7800
1C3800
0C1800
081000
000000
0FFE00
3FFE00
3FFC00
380000
380000
380000
380000
380000
380000
380000
380000
380000
3FFE00
3FFE00
3FFC00
380000
380000
380000
380000
380000
380000
380000
380000
380000
380000
3FFFC0
3FFF80
3FFF80
ENDCHAR
STARTCHAR 0205
ENCODING 517
SWIDTH 560 0
DWIDTH 21 0
BBX 16 30 2 0
BITMAP
4080
E0C0
F1E0
F9F0
7CF8
3C38
0C18
0808
0000
03E0
0FF8
1FFC
1E3E
3C0E
380E
3807
380F
387F
39FC
3FF0
3FC0
3F01
3807
3807
380E
3C0E
1E1E
1FFC
0FF8
03E0
ENDCHAR
STARTCHAR 0206
ENCODING 518
SWIDTH 560 0
DWIDTH 21 0
BBX 16 35 4 0
BITMAP
0F80
1FE0
3FE0
38F0
0040
0000
0000
3FF8
FFF8
FFF0
E000
E000
E000
E000
E000
E000
E000
E000
E000
FFF8
FFF8
FFF0
E000
E000
E000
E000
E000
E000
E000
E000
E000
E000
FFFF
FFFE
FFFE
ENDCHAR
STARTCHAR 0207
ENCODING 519
SWIDTH 560 0
DWIDTH 21 0
BBX 14 28 4 0
BITMAP
0F80
1FE0
3FF0
3870
0000
0000
0000
0F80
3FE0
7FF0
78F8
F038
E038
E01C
E03C
E1FC
E7F0
FFC0
FF00
FC04
E01C
E01C
E038
F038
7878
7FF0
3FE0
0F80
ENDCHAR
STARTCHAR 0208
ENCODING 520
SWIDTH 560 0
DWIDTH 21 0
BBX 17 38 2 0
BITMAP
800000
C18000
E1C000
F1E000
78F000
3C7800
1C3800
0C1800
081000
000000
3FFF80
7FFF00
7FFF00
01C000
01C000
01C000
01C000
01C000
01C000
01C000
01C000
01C000
01C000
01C000
01C000
01C000
01C000
01C000
01C000
01C000
01C000
01C000
01C000
01C000
01C000
3FFF80
7FFF00
7FFF00
ENDCHAR
STARTCHAR 0209
ENCODING 521
SWIDTH 560 0
DWIDTH 21 0
BBX 20 30 -2 0
BITMAP
408000
60C000
F0E000
78F000
3C7800
1C3C00
0C1800
040800
000000
008000
038000
038000
038000
038000
038000
038000
038000
038000
038000
038000
038000
038000
038070
038070
0380F0
03C0E0
01E1E0
01FFC0
00FF80
003E00
ENDCHAR
STARTCHAR 020A
ENCODING 522
SWIDTH 560 0
DWIDTH 21 0
BBX 16 35 3 0
BITMAP
07C0
0FF0
1FF0
1C78
0020
0000
0000
7FFF
FFFE
FFFE
0380
0380
0380
0380
0380
0380
0380
0380
0380
0380
0380
0380
0380
0380
0380
0380
0380
0380
0380
0380
0380
0380
7FFF
FFFE
FFFE
ENDCHAR
STARTCHAR 020B
ENCODING 523
SWIDTH 560 0
DWIDTH 21 0
BBX 18 28 0 0
BITMAP
1F0000
7F8000
FFC000
E1C000
000000
000000
000000
020000
0E0000
0E0000
0E0000
0E0000
0E0000
0E0000
0E0000
0E0000
0E0000
0E0000
0E0000
0E0000
0E01C0
0E01C0
0E03C0
0F0380
078780
07FF00
03FE00
00F800
ENDCHAR
STARTCHAR 020C
ENCODING 524
SWIDTH 560 0
DWIDTH 21 0
BBX 17 38 2 0
BITMAP
800000
C18000
E1C000
F1E000
78F000
3C7800
1C3800
0C1800
081000
000000
03F000
0FF800
1FFE00
3C1E00
780F00
700780
F00380
E00380
E00380
E00380
E00380
E00380
E00380
E00380
E00380
E00380
E00380
E00380
E00380
E00380
E00380
F00380
700780
780F00
3C1E00
1FFE00
0FFC00
03F000
ENDCHAR
STARTCHAR 020D
ENCODING 525
SWIDTH 560 0
DWIDTH 21 0
BBX 16 30 2 0
BITMAP
4080
E0C0
F1E0
F9F0
7CF8
3C38
0C18
0808
0000
03E0
0FF8
1FFC
1E1E
3C0E
380F
3807
3807
3807
3807
3807
3807
3807
3807
3807
380F
3C0E
1E1E
1FFC
0FF8
03E0
ENDCHAR
STARTCHAR 020E
ENCODING 526
SWIDTH 560 0
DWIDTH 21 0
BBX 17 35 2 0
BITMAP
03E000
07F800
0FF800
0E3C00
041000
000000
000000
03F000
0FF800
1FFE00
3C1E00
780F00
700780
F00380
E00380
E00380
E00380
E00380
E00380
E00380
E00380
E00380
E00380
E00380
E00380
E00380
E00380
E00380
F00380
700780
780F00
3C1E00
1FFE00
0FFC00
03F000
ENDCHAR
STARTCHAR 020F
ENCODING 527
SWIDTH 560 0
DWIDTH 21 0
BBX 14 28 4 0
BITMAP
0F80
1FE0
3FF0
3870
0000
0000
0000
0F80
3FE0
7FF0
7878
F038
E03C
E01C
E01C
E01C
E01C
E01C
E01C
E01C
E01C
E01C
E03C
F038
7878
7FF0
3FE0
0F80
ENDCHAR
STARTCHAR 0210
ENCODING 528
SWIDTH 560 0
DWIDTH 21 0
BBX 17 38 2 0
BITMAP
800000
C18000
E1C000
F1E000
78F000
3C7800
1C3800
0C1800
081000
000000
3FF000
FFF800
FFFC00
E01E00
E00F00
E00700
E00380
E00380
E00380
E00380
E00380
E00700
E00F00
E01E00
FFFE00
FFF800
FFF000
E07800
E03800
E03C00
E01C00
E01E00
E00E00
E00F00
E00F00
E00780
E00780
800200
ENDCHAR
STARTCHAR 0211
ENCODING 529
SWIDTH 560 0
DWIDTH 21 0
BBX 16 30 2 0
BITMAP
4080
E0C0
F1E0
F9F0
7CF8
3C38
0C18
0808
0000
03E0
0FF8
1FFC
1E1E
3C0E
380E
3807
3806
3800
3800
3800
3800
3800
3800
3800
3800
3800
3800
3800
3800
2000
ENDCHAR
STARTCHAR 0212
ENCODING 530
SWIDTH 560 0
DWIDTH 21 0
BBX 17 35 2 0
BITMAP
03E000
07F800
0FF800
0E3C00
001000
000000
000000
3FF000
FFF800
FFFC00
E01E00
E00F00
E00700
E00380
E00380
E00380
E00380
E00380
E00700
E00F00
E01E00
FFFE00
FFF800
FFF000
E07800
E03800
E03C00
E01C00
E01E00
E00E00
E00F00
E00F00
E00780
E00780
800200
ENDCHAR
STARTCHAR 0213
ENCODING 531
SWIDTH 560 0
DWIDTH 21 0
BBX 14 28 4 0
BITMAP
0F80
1FE0
3FF0
3870
0000
0000
0000
0F80
3FE0
7FF0
7878
F038
E038
E01C
E018
E000
E000
E000
E000
E000
E000
E000
E000
E000
E000
E000
E000
8000
ENDCHAR
STARTCHAR 0214
ENCODING 532
SWIDTH 560 0
DWIDTH 21 0
BBX 17 38 2 0
BITMAP
800000
C18000
E1C000
F1E000
78F000
3C7800
1C3800
0C1800
081000
000000
200080
E00380
E00380
E00380
E00380
E00380
E00380
E00380
E00380
E00380
E00380
E00380
E00380
E00380
E00380
E00380
E00380
E00380
E00380
E00380
E00380
F00380
700780
780F00
3C1F00
1FFE00
0FF800
03F000
ENDCHAR
STARTCHAR 0215
ENCODING 533
SWIDTH 560 0
DWIDTH 21 0
BBX 16 30 2 0
BITMAP
4080
E0C0
F1E0
F9F0
7CF8
3C38
0C18
0808
0000
0801
3807
3807
3807
3807
3807
3807
3807
3807
3807
3807
3807
3807
3807
3807
380F
3C0E
1E1E
1FFC
0FF8
03E0
ENDCHAR
STARTCHAR 0216
ENCODING 534
SWIDTH 560 0
DWIDTH 21 0
BBX 17 35 2 0
BITMAP
03E000
07F800
0FF800
0E3C00
041000
000000
000000
200080
E00380
E00380
E00380
E00380
E00380
E00380
E00380
E00380
E00380
E00380
E00380
E00380
E00380
E00380
E00380
E00380
E00380
E00380
E00380
E00380
F00380
700780
780F00
3C1F00
1FFE00
0FF800
03F000
ENDCHAR
STARTCHAR 0217
ENCODING 535
SWIDTH 560 0
DWIDTH 21 0
BBX 14 28 4 0
BITMAP
0F80
1FE0
3FF0
3870
0000
0000
0000
2004
E01C
E01C
E01C
E01C
E01C
E01C
E01C
E01C
E01C
E01C
E01C
E01C
E01C
E01C
E03C
F038
7878
7FF0
3FE0
0F80
ENDCHAR
STARTCHAR 0218
ENCODING 536
SWIDTH 560 0
DWIDTH 21 0
BBX 17 37 2 -9
BITMAP
07E000
0FF000
1FFC00
3C3C00
381E00
700E00
700E00
700C00
700000
380000
3C0000
1FE000
0FF800
03FC00
003E00
000F00
000700
000380
200380
E00380
E00380
F00380
700780
780F00
3C1F00
1FFE00
0FF800
03F000
000000
008000
018000
03C000
078000
0F0000
0E0000
0C0000
080000
ENDCHAR
STARTCHAR 0219
ENCODING 537
SWIDTH 560 0
DWIDTH 21 0
BBX 14 30 4 -9
BITMAP
0780
1FE0
3FE0
38F0
7070
7040
7800
3C00
3FC0
1FE0
07F0
0078
0038
E03C
E01C
E038
F038
7878
3FF0
1FE0
0FC0
0000
0200
0600
0F00
1E00
3C00
3800
3000
2000
ENDCHAR
STARTCHAR 021A
ENCODING 538
SWIDTH 560 0
DWIDTH 21 0
BBX 19 37 1 -9
BITMAP
7FFFE0
FFFFE0
FFFFC0
00E000
00E000
00E000
00E000
00E000
00E000
00E000
00E000
00E000
00E000
00E000
00E000
00E000
00E000
00E000
00E000
00E000
00E000
00E000
00E000
00E000
00E000
00E000
00E000
008000
000000
004000
00C000
01E000
03C000
078000
070000
060000
040000
ENDCHAR
STARTCHAR 021B
ENCODING 539
SWIDTH 560 0
DWIDTH 21 0
BBX 16 37 2 -9
BITMAP
0800
3800
3800
3800
3800
3800
3800
3800
FFFC
FFF8
FFF8
3800
3800
3800
3800
3800
3800
3800
3800
3800
3803
3807
380F
380E
1E1E
1FFC
0FF8
03E0
0000
0080
0180
03C0
0780
0F00
0E00
0C00
0800
ENDCHAR
STARTCHAR 0237
ENCODING 567
SWIDTH 560 0
DWIDTH 21 0
BBX 14 28 4 -7
BITMAP
000C
001C
001C
001C
001C
001C
001C
001C
001C
001C
001C
001C
201C
E01C
E01C
E01C
E01C
E01C
E01C
E01C
E01C
E01C
E03C
F038
7878
7FF0
3FE0
0F80
ENDCHAR
STARTCHAR 02C6
ENCODING 710
SWIDTH 560 0
DWIDTH 21 0
BBX 9 7 6 22
BITMAP
0800
1C00
3E00
7F80
F380
E180
4100
ENDCHAR
STARTCHAR 02C7
ENCODING 711
SWIDTH 560 0
DWIDTH 21 0
BBX 9 7 6 22
BITMAP
4100
E180
F380
7F80
3E00
1C00
0800
ENDCHAR
STARTCHAR 02C9
ENCODING 713
SWIDTH 560 0
DWIDTH 21 0
BBX 13 3 4 23
BITMAP
7FF8
7FF8
FFF0
ENDCHAR
STARTCHAR 02D8
ENCODING 728
SWIDTH 560 0
DWIDTH 21 0
BBX 10 4 6 24
BITMAP
E3C0
FFC0
7F80
3E00
ENDCHAR
STARTCHAR 02D9
ENCODING 729
SWIDTH 560 0
DWIDTH 21 0
BBX 5 5 8 23
BITMAP
70
F8
F8
F8
70
ENDCHAR
STARTCHAR 02DA
ENCODING 730
SWIDTH 560 0
DWIDTH 21 0
BBX 9 9 6 22
BITMAP
1E00
3F00
7F00
7380
E380
E380
7380
7F00
1E00
ENDCHAR
STARTCHAR 02DB
ENCODING 731
SWIDTH 560 0
DWIDTH 21 0
BBX 6 12 8 -9
BITMAP
20
30
78
70
F0
E0
E0
C0
F8
FC
3C
0C
ENDCHAR
STARTCHAR 02DC
ENCODING 732
SWIDTH 560 0
DWIDTH 21 0
BBX 13 7 4 22
BITMAP
0C10
1E38
3F78
7FF0
F3E0
61C0
4080
ENDCHAR
STARTCHAR 02DD
ENCODING 733
SWIDTH 560 0
DWIDTH 21 0
BBX 13 8 6 22
BITMAP
0808
0C18
1C38
7C78
F9F0
F1E0
E0C0
4080
ENDCHAR
STARTCHAR 0308
ENCODING 776
SWIDTH 560 0
DWIDTH 21 0
BBX 13 5 4 23
BITMAP
7070
F878
F8F8
F878
7070
ENDCHAR
STARTCHAR 0370
ENCODING 880
SWIDTH 560 0
DWIDTH 21 0
BBX 15 28 3 0
BITMAP
2000
E000
E000
E000
E000
E000
E000
E000
E000
E000
E000
E000
FFFE
FFFE
FFFC
E000
E000
E000
E000
E000
E000
E000
E000
E000
E000
E000
E000
8000
ENDCHAR
STARTCHAR 0371
ENCODING 881
SWIDTH 560 0
DWIDTH 21 0
BBX 12 21 5 0
BITMAP
6000
E000
E000
E000
E000
E000
E000
E000
E000
FFF0
FFE0
FFE0
E000
E000
E000
E000
E000
E000
E000
E000
8000
ENDCHAR
STARTCHAR 0372
ENCODING 882
SWIDTH 560 0
DWIDTH 21 0
BBX 20 28 1 0
BITMAP
FFFFF0
FFFFF0
FFFFF0
E0E070
E0E070
E0E070
E0E0F0
E0E0F0
E0E0F0
80E0C0
00E000
00E000
00E000
00E000
00E000
00E000
00E000
00E000
00E000
00E000
00E000
00E000
00E000
00E000
00E000
00E000
00E000
008000
ENDCHAR
STARTCHAR 0373
ENCODING 883
SWIDTH 560 0
DWIDTH 21 0
BBX 15 28 3 0
BITMAP
FFFE
FFFE
FFFE
E38E
E38E
E38E
E38E
E38E
E38E
C38C
0380
0380
0380
0380
0380
0380
0380
0380
0380
0380
0380
0380
0380
0380
0380
0380
0380
0200
ENDCHAR
STARTCHAR 0374
ENCODING 884
SWIDTH 560 0
DWIDTH 21 0
BBX 5 8 8 20
BITMAP
20
38
38
70
70
70
E0
20
ENDCHAR
STARTCHAR 0375
ENCODING 885
SWIDTH 560 0
DWIDTH 21 0
BBX 5 8 8 -7
BITMAP
20
38
38
70
70
70
E0
20
ENDCHAR
STARTCHAR 0376
ENCODING 886
SWIDTH 560 0
DWIDTH 21 0
BBX 17 28 2 0
BITMAP
200080
E00380
E00780
E00780
E00F80
E00F80
E01F80
E01F80
E03B80
E07B80
E07380
E0F380
E0E380
E1E380
E1C380
E38380
E38380
E70380
EF0380
EE0380
FE0380
FC0380
FC0380
F80380
F80380
F00380
E00380
800200
ENDCHAR
STARTCHAR 0377
ENCODING 887
SWIDTH 560 0
DWIDTH 21 0
BBX 14 21 4 0
BITMAP
2004
E01C
E03C
E07C
E07C
E0FC
E0FC
E1DC
E3DC
E39C
E71C
EF1C
EE1C
FE1C
FC1C
F81C
F81C
F01C
E01C
E01C
8010
ENDCHAR
STARTCHAR 037A
ENCODING 890
SWIDTH 560 0
DWIDTH 21 0
BBX 6 12 8 -9
BITMAP
20
30
78
70
F0
E0
E0
C0
F8
FC
3C
0C
ENDCHAR
STARTCHAR 037B
ENCODING 891
SWIDTH 560 0
DWIDTH 21 0
BBX 14 21 4 0
BITMAP
1F80
7FC0
FFF0
60F0
0078
003C
001C
001C
001C
001C
001C
001C
001C
001C
001C
003C
4078
E0F0
FFF0
7FE0
1F80
ENDCHAR
STARTCHAR 037C
ENCODING 892
SWIDTH 560 0
DWIDTH 21 0
BBX 15 21 3 0
BITMAP
03F0
0FF8
1FFC
3C18
7800
7000
F000
E000
E1C0
E3E0
E3E0
E3E0
E1C0
E000
F000
7000
7808
3C1E
1FFE
0FF8
03F0
ENDCHAR
STARTCHAR 037D
ENCODING 893
SWIDTH 560 0
DWIDTH 21 0
BBX 14 21 4 0
BITMAP
1F80
7FC0
FFF0
60F0
0078
003C
001C
001C
0E1C
1F1C
1F1C
1F1C
0E1C
001C
001C
003C
4078
E0F0
FFF0
7FE0
1F80
ENDCHAR
STARTCHAR 037E
ENCODING 894
SWIDTH 560 0
DWIDTH 21 0
BBX 6 22 7 -5
BITMAP
38
7C
7C
7C
38
00
00
00
00
00
00
00
38
7C
7C
7C
3C
1C
38
78
70
C0
ENDCHAR
STARTCHAR 0384
ENCODING 900
SWIDTH 560 0
DWIDTH 21 0
BBX 6 8 10 29
BITMAP
08
18
3C
78
F0
E0
C0
80
ENDCHAR
STARTCHAR 0385
ENCODING 901
SWIDTH 560 0
DWIDTH 21 0
BBX 13 15 4 23
BITMAP
0020
0060
0070
00F0
01E0
03C0
0380
0300
0200
0000
7070
F878
F8F8
F878
7070
ENDCHAR
STARTCHAR 0386
ENCODING 902
SWIDTH 560 0
DWIDTH 21 0
BBX 19 31 1 0
BITMAP
040000
0C0000
1C0000
3C2000
78F000
F1F000
61F000
41F800
01F800
03B800
03BC00
039C00
071C00
071C00
070E00
0E0E00
0E0E00
0E0700
1C0700
1FFF00
1FFF80
3FFF80
380380
3801C0
7801C0
7001C0
7001C0
7000E0
E000E0
E000E0
600040
ENDCHAR
STARTCHAR 0387
ENCODING 903
SWIDTH 560 0
DWIDTH 21 0
BBX 5 5 8 12
BITMAP
70
F8
F8
F8
70
ENDCHAR
STARTCHAR 0388
ENCODING 904
SWIDTH 560 0
DWIDTH 21 0
BBX 19 31 0 0
BITMAP
040000
0C0000
1C0000
3DFF80
FFFF00
F7FF00
670000
470000
070000
070000
070000
070000
070000
070000
070000
07FF80
07FF00
07FF00
070000
070000
070000
070000
070000
070000
070000
070000
070000
070000
07FFE0
07FFE0
07FFC0
ENDCHAR
STARTCHAR 0389
ENCODING 905
SWIDTH 560 0
DWIDTH 21 0
BBX 20 31 0 0
BITMAP
040000
0C0000
1C0000
3D0010
FF0070
F70070
670070
470070
070070
070070
070070
070070
070070
070070
070070
07FFF0
07FFF0
07FFF0
070070
070070
070070
070070
070070
070070
070070
070070
070070
070070
070070
070070
060040
ENDCHAR
STARTCHAR 038A
ENCODING 906
SWIDTH 560 0
DWIDTH 21 0
BBX 17 31 0 0
BITMAP
040000
0C0000
1C0000
3FFF80
FBFF00
F7FF00
603800
403800
003800
003800
003800
003800
003800
003800
003800
003800
003800
003800
003800
003800
003800
003800
003800
003800
003800
003800
003800
003800
03FF80
03FF00
07FF00
ENDCHAR
STARTCHAR 038C
ENCODING 908
SWIDTH 560 0
DWIDTH 21 0
BBX 20 31 0 0
BITMAP
040000
0C0000
1C0000
3C7C00
F9FF00
F3FFC0
6783C0
4F01E0
0E00F0
1C0070
1C0070
1C0070
1C0070
1C0070
1C0070
1C0070
1C0070
1C0070
1C0070
1C0070
1C0070
1C0070
1C0070
1C0070
1C0070
0E00E0
0F01E0
0783C0
03FFC0
01FF00
007C00
ENDCHAR
STARTCHAR 038E
ENCODING 910
SWIDTH 560 0
DWIDTH 21 0
BBX 21 31 0 0
BITMAP
040000
0C0000
1C0000
3D8030
FB8038
F38038
63C070
41C070
01C0E0
01C0E0
00E1E0
00E1C0
00E1C0
007380
007380
007780
003F00
003F00
003E00
001E00
001C00
001C00
000C00
000C00
000C00
000C00
000C00
000C00
000C00
000C00
000800
ENDCHAR
STARTCHAR 038F
ENCODING 911
SWIDTH 560 0
DWIDTH 21 0
BBX 21 31 0 0
BITMAP
040000
0C0000
1C0000
3C7C00
F9FF00
F7FF80
6F83C0
4F01E0
1E00E0
1C00F0
1C0070
1C0070
1C0070
1C0070
1C0070
1C0070
1C0070
1C0070
1C00F0
1E00E0
0E01E0
0F83C0
07C780
03C700
01C700
01C700
01C700
01C700
1FC7F8
3FC7F0
3FC7F0
ENDCHAR
STARTCHAR 0390
ENCODING 912
SWIDTH 560 0
DWIDTH 21 0
BBX 15 38 2 0
BITMAP
0020
0020
0070
00F0
01E0
03C0
0380
0300
0200
0000
7030
F878
F878
F878
7070
0000
0000
0000
1FC0
3FC0
3FC0
01C0
01C0
01C0
01C0
01C0
01C0
01C0
01C0
01C0
01C0
01C0
01C0
01C0
01E0
01FE
00FE
003C
ENDCHAR
STARTCHAR 0391
ENCODING 913
SWIDTH 560 0
DWIDTH 21 0
BBX 19 28 1 0
BITMAP
002000
00F000
01F000
01F000
01F800
01F800
03B800
03BC00
039C00
071C00
071C00
070E00
0E0E00
0E0E00
0E0700
1C0700
1FFF00
1FFF80
3FFF80
380380
3801C0
7801C0
7001C0
7001C0
7000E0
E000E0
E000E0
600040
ENDCHAR
STARTCHAR 0392
ENCODING 914
SWIDTH 560 0
DWIDTH 21 0
BBX 17 28 2 0
BITMAP
3FE000
FFF000
FFF800
E03C00
E01C00
E00E00
E00E00
E00E00
E00E00
E01C00
E03C00
FFF800
FFF800
FFFE00
E01E00
E00F00
E00700
E00380
E00380
E00380
E00380
E00380
E00700
E00F00
E01E00
FFFE00
FFF800
FFF000
ENDCHAR
STARTCHAR 0393
ENCODING 915
SWIDTH 560 0
DWIDTH 21 0
BBX 16 28 3 0
BITMAP
FFFF
FFFE
FFFE
E000
E000
E000
E000
E000
E000
E000
E000
E000
E000
E000
E000
E000
E000
E000
E000
E000
E000
E000
E000
E000
E000
E000
E000
8000
ENDCHAR
STARTCHAR 0394
ENCODING 916
SWIDTH 560 0
DWIDTH 21 0
BBX 20 28 1 0
BITMAP
002000
00F000
01F000
01F000
01F800
01F800
03B800
03BC00
039C00
071C00
071C00
070E00
0E0E00
0E0E00
0E0700
1C0700
1C0700
1C0380
380380
380380
3803C0
7801C0
7001C0
7001C0
7000E0
FFFFE0
FFFFE0
FFFFF0
ENDCHAR
STARTCHAR 0395
ENCODING 917
SWIDTH 560 0
DWIDTH 21 0
BBX 16 28 4 0
BITMAP
3FF8
FFF8
FFF0
E000
E000
E000
E000
E000
E000
E000
E000
E000
FFF8
FFF8
FFF0
E000
E000
E000
E000
E000
E000
E000
E000
E000
E000
FFFF
FFFE
FFFE
ENDCHAR
STARTCHAR 0396
ENCODING 918
SWIDTH 560 0
DWIDTH 21 0
BBX 17 28 2 0
BITMAP
3FFF80
7FFF00
7FFF00
000E00
001E00
001C00
003C00
003800
007800
007000
00F000
00E000
01E000
01C000
03C000
038000
038000
070000
070000
0E0000
0E0000
1C0000
1C0000
380000
380000
7FFF80
7FFF80
FFFF00
ENDCHAR
STARTCHAR 0397
ENCODING 919
SWIDTH 560 0
DWIDTH 21 0
BBX 17 28 2 0
BITMAP
200080
E00380
E00380
E00380
E00380
E00380
E00380
E00380
E00380
E00380
E00380
E00380
FFFF80
FFFF80
FFFF80
E00380
E00380
E00380
E00380
E00380
E00380
E00380
E00380
E00380
E00380
E00380
E00380
800200
ENDCHAR
STARTCHAR 0398
ENCODING 920
SWIDTH 560 0
DWIDTH 21 0
BBX 17 28 2 0
BITMAP
03F000
0FF800
1FFE00
3C1E00
780F00
700780
F00380
E00380
E00380
E00380
E00380
E00380
E00380
E7FB80
E7FB80
EFF380
E00380
E00380
E00380
E00380
E00380
F00380
700780
780F00
3C1F00
1FFE00
0FF800
03F000
ENDCHAR
STARTCHAR 0399
ENCODING 921
SWIDTH 560 0
DWIDTH 21 0
BBX 16 28 3 0
BITMAP
7FFF
FFFE
FFFE
0380
0380
0380
0380
0380
0380
0380
0380
0380
0380
0380
0380
0380
0380
0380
0380
0380
0380
0380
0380
0380
0380
7FFF
FFFE
FFFE
ENDCHAR
STARTCHAR 039A
ENCODING 922
SWIDTH 560 0
DWIDTH 21 0
BBX 16 28 3 0
BITMAP
600C
E00E
E01C
E03C
E078
E0F0
E1E0
E1C0
E380
E780
EF00
FE00
FF00
FF00
F780
E380
E3C0
E1E0
E1E0
E0F0
E070
E078
E038
E03C
E01E
E01E
E00F
8004
ENDCHAR
STARTCHAR 039B
ENCODING 923
SWIDTH 560 0
DWIDTH 21 0
BBX 19 28 1 0
BITMAP
002000
00F000
01F000
01F000
01F800
01F800
03B800
03BC00
039C00
071C00
071C00
070E00
0E0E00
0E0E00
0E0700
1C0700
1C0700
1C0380
3C0380
380380
3803C0
7801C0
7001C0
7001C0
7000E0
E000E0
E000E0
600040
ENDCHAR
STARTCHAR 039C
ENCODING 924
SWIDTH 560 0
DWIDTH 21 0
BBX 18 28 2 0
BITMAP
600040
E001C0
E003C0
F003C0
F003C0
F007C0
F807C0
F807C0
F80FC0
F80FC0
FC0FC0
FC1FC0
FC1DC0
FE1DC0
EE3DC0
EE39C0
EE39C0
E779C0
E771C0
E771C0
E7F1C0
E3E1C0
E3E1C0
E3E1C0
E1C1C0
E101C0
E001C0
800100
ENDCHAR
STARTCHAR 039D
ENCODING 925
SWIDTH 560 0
DWIDTH 21 0
BBX 17 28 2 0
BITMAP
300080
F00380
F80380
F80380
FC0380
FC0380
FE0380
FE0380
EF0380
E70380
E78380
E38380
E3C380
E1C380
E1E380
E0E380
E0F380
E07380
E07B80
E03B80
E03F80
E01F80
E01F80
E00F80
E00F80
E00780
E00780
800200
ENDCHAR
STARTCHAR 039E
ENCODING 926
SWIDTH 560 0
DWIDTH 21 0
BBX 18 28 2 0
BITMAP
7FFFC0
FFFF80
FFFF80
000000
000000
000000
000000
000000
000000
000000
000000
000000
0FFE00
1FFC00
1FFC00
000000
000000
000000
000000
000000
000000
000000
000000
000000
000000
7FFFC0
FFFF80
FFFF80
ENDCHAR
STARTCHAR 039F
ENCODING 927
SWIDTH 560 0
DWIDTH 21 0
BBX 17 28 2 0
BITMAP
03F000
0FF800
1FFE00
3C1E00
780F00
700780
F00380
E00380
E00380
E00380
E00380
E00380
E00380
E00380
E00380
E00380
E00380
E00380
E00380
E00380
E00380
F00380
700780
780F00
3C1E00
1FFE00
0FFC00
03F000
ENDCHAR
STARTCHAR 03A0
ENCODING 928
SWIDTH 560 0
DWIDTH 21 0
BBX 16 28 3 0
BITMAP
FFFF
FFFF
FFFF
E007
E007
E007
E007
E007
E007
E007
E007
E007
E007
E007
E007
E007
E007
E007
E007
E007
E007
E007
E007
E007
E007
E007
E007
8004
ENDCHAR
STARTCHAR 03A1
ENCODING 929
SWIDTH 560 0
DWIDTH 21 0
BBX 17 28 2 0
BITMAP
3FF000
FFF800
FFFE00
E01E00
E00F00
E00700
E00380
E00380
E00380
E00380
E00380
E00700
E00F00
E01E00
FFFE00
FFF800
FFF000
E00000
E00000
E00000
E00000
E00000
E00000
E00000
E00000
E00000
E00000
800000
ENDCHAR
STARTCHAR 03A3
ENCODING 931
SWIDTH 560 0
DWIDTH 21 0
BBX 16 28 3 0
BITMAP
3FFC
FFFC
FFF8
7800
3800
3C00
1E00
1E00
0F00
0700
0780
03C0
01C0
01E0
01C0
03C0
0380
0780
0700
0F00
0E00
1E00
1C00
3800
7800
7FFF
FFFE
FFFE
ENDCHAR
STARTCHAR 03A4
ENCODING 932
SWIDTH 560 0
DWIDTH 21 0
BBX 19 28 1 0
BITMAP
7FFFE0
FFFFE0
FFFFC0
00E000
00E000
00E000
00E000
00E000
00E000
00E000
00E000
00E000
00E000
00E000
00E000
00E000
00E000
00E000
00E000
00E000
00E000
00E000
00E000
00E000
00E000
00E000
00E000
008000
ENDCHAR
STARTCHAR 03A5
ENCODING 933
SWIDTH 560 0
DWIDTH 21 0
BBX 19 28 1 0
BITMAP
200080
F000E0
7001C0
7801C0
380380
3C0380
1C0700
1C0700
0E0E00
0E0E00
0F1E00
071C00
07BC00
03B800
03F800
01F000
01F000
00E000
00E000
00E000
00E000
00E000
00E000
00E000
00E000
00E000
00E000
008000
ENDCHAR
STARTCHAR 03A6
ENCODING 934
SWIDTH 560 0
DWIDTH 21 0
BBX 17 28 2 0
BITMAP
004000
01C000
01C000
01C000
01C000
03F000
0FFC00
1FFE00
3DDF00
79C700
F1C380
E1C380
E1C380
E1C180
E1C380
E1C380
71C380
79C700
3DDF00
3FFE00
0FFC00
03F000
01C000
01C000
01C000
01C000
01C000
010000
ENDCHAR
STARTCHAR 03A7
ENCODING 935
SWIDTH 560 0
DWIDTH 21 0
BBX 18 28 2 0
BITMAP
400100
E003C0
F00380
700780
780700
380E00
1C1E00
1E1C00
0E3C00
0F3800
077000
03F000
03E000
01E000
01E000
03E000
03F000
077000
0F3800
0E3C00
1E1C00
1C1E00
380E00
780F00
700780
F00380
E003C0
600100
ENDCHAR
STARTCHAR 03A8
ENCODING 936
SWIDTH 560 0
DWIDTH 21 0
BBX 17 28 2 0
BITMAP
204080
E1C380
E1C380
E1C380
E1C380
E1C380
E1C380
E1C380
E1C380
E1C380
E1C380
E1C380
E1C380
E1C380
F1C380
71C700
3DCF00
3FFE00
0FFC00
07F000
01C000
01C000
01C000
01C000
01C000
01C000
01C000
010000
ENDCHAR
STARTCHAR 03A9
ENCODING 937
SWIDTH 560 0
DWIDTH 21 0
BBX 19 28 1 0
BITMAP
01F800
07FC00
0FFF00
1E0F00
3C0780
3803C0
7801C0
7001C0
7001C0
7001C0
7001C0
7001C0
7001C0
7001C0
7001C0
7001C0
3803C0
3C0380
1E0F80
0F1F00
071E00
071C00
071C00
071C00
071C00
7F1FE0
7F1FE0
FF1FC0
ENDCHAR
STARTCHAR 03AA
ENCODING 938
SWIDTH 560 0
DWIDTH 21 0
BBX 16 35 3 0
BITMAP
3838
7C3C
7C7C
7C3C
3838
0000
0000
7FFF
FFFE
FFFE
0380
0380
0380
0380
0380
0380
0380
0380
0380
0380
0380
0380
0380
0380
0380
0380
0380
0380
0380
0380
0380
0380
7FFF
FFFE
FFFE
ENDCHAR
STARTCHAR 03AB
ENCODING 939
SWIDTH 560 0
DWIDTH 21 0
BBX 19 35 1 0
BITMAP
0E0E00
1F0F00
1F1F00
1F0F00
0E0E00
000000
000000
200080
F000E0
7001C0
7801C0
380380
3C0380
1C0700
1C0700
0E0E00
0E0E00
0F1E00
071C00
07BC00
03B800
03F800
01F000
01F000
00E000
00E000
00E000
00E000
00E000
00E000
00E000
00E000
00E000
00E000
008000
ENDCHAR
STARTCHAR 03AC
ENCODING 940
SWIDTH 560 0
DWIDTH 21 0
BBX 17 30 3 0
BITMAP
001000
003000
007800
00F000
01E000
01C000
018000
010000
000000
0F0600
3FC700
7FE700
71E700
E0FE00
E07E00
E07E00
E03C00
E03C00
E03C00
E01C00
E03C00
E03C00
E03E00
E07E00
E07E00
E07700
70E700
7FE700
3FC380
0F8200
ENDCHAR
STARTCHAR 03AD
ENCODING 941
SWIDTH 560 0
DWIDTH 21 0
BBX 15 30 3 0
BITMAP
0010
0030
0078
00F0
01E0
01C0
0180
0100
0000
0000
0FFE
3FFC
7FFC
F000
E000
E000
E000
7000
7F80
3F80
7F80
7000
E000
E000
E000
F000
7800
7FFE
3FFE
0FFC
ENDCHAR
STARTCHAR 03AE
ENCODING 942
SWIDTH 560 0
DWIDTH 21 0
BBX 14 37 4 -7
BITMAP
0020
0060
00F0
01E0
03C0
0380
0300
0200
0000
0F80
3FE0
7FF0
7878
F038
E03C
E01C
E01C
E01C
E01C
E01C
E01C
E01C
E01C
E01C
E01C
E01C
E01C
E01C
E01C
801C
001C
001C
001C
001C
001C
001C
0010
ENDCHAR
STARTCHAR 03AF
ENCODING 943
SWIDTH 560 0
DWIDTH 21 0
BBX 13 30 4 0
BITMAP
0020
0060
00F0
01E0
03C0
0380
0300
0200
0000
0000
7F00
FF00
FF00
0700
0700
0700
0700
0700
0700
0700
0700
0700
0700
0700
0700
0700
0780
07F8
03F8
00F0
ENDCHAR
STARTCHAR 03B0
ENCODING 944
SWIDTH 560 0
DWIDTH 21 0
BBX 21 38 0 0
BITMAP
000200
000600
000700
000F00
001E00
003C00
003800
003000
002000
000000
070700
0F8780
0F8F80
0F8780
070700
000000
000000
7F0040
7F0070
FF0070
070070
070038
070038
070038
070038
070078
070070
070070
0700F0
0700E0
0701E0
0703C0
0703C0
070F80
079F00
03FE00
01F800
00E000
ENDCHAR
STARTCHAR 03B1
ENCODING 945
SWIDTH 560 0
DWIDTH 21 0
BBX 17 21 3 0
BITMAP
0F0600
3FC700
7FE700
71E700
E0FE00
E07E00
E07E00
E03C00
E03C00
E03C00
E01C00
E03C00
E03C00
E03E00
E07E00
E07E00
E07700
70E700
7FE700
3FC380
0F8200
ENDCHAR
STARTCHAR 03B2
ENCODING 946
SWIDTH 560 0
DWIDTH 21 0
BBX 15 35 4 -7
BITMAP
0F80
3FE0
7FF0
7878
F038
E03C
E01C
E01C
E01C
E038
E078
E1F0
E3F0
E3F8
E03C
E01C
E00E
E00E
E00E
E00E
E00E
E00E
E00E
F01E
F83C
FFF8
FFF0
EFE0
E000
E000
E000
E000
E000
E000
8000
ENDCHAR
STARTCHAR 03B3
ENCODING 947
SWIDTH 560 0
DWIDTH 21 0
BBX 21 28 0 -7
BITMAP
700030
7C0038
FC0078
1E0070
0E0070
0F00E0
0700E0
0701E0
0381C0
0381C0
03C380
01C380
01C700
01E700
00E700
00EE00
007E00
007C00
007C00
003800
003800
003800
003800
003800
003800
003800
003800
003000
ENDCHAR
STARTCHAR 03B4
ENCODING 948
SWIDTH 560 0
DWIDTH 21 0
BBX 14 28 4 0
BITMAP
0FFC
3FF8
7FF8
7000
7000
7000
7000
7F80
3FE0
7FF0
7878
F038
E03C
E01C
E01C
E01C
E01C
E01C
E01C
E01C
E01C
E01C
E03C
F038
7878
7FF0
3FE0
0F80
ENDCHAR
STARTCHAR 03B5
ENCODING 949
SWIDTH 560 0
DWIDTH 21 0
BBX 15 20 3 0
BITMAP
0FFE
3FFC
7FFC
F000
E000
E000
E000
7000
7F80
3F80
7F80
7000
E000
E000
E000
F000
7800
7FFE
3FFE
0FFC
ENDCHAR
STARTCHAR 03B6
ENCODING 950
SWIDTH 560 0
DWIDTH 21 0
BBX 16 35 3 -7
BITMAP
7FFF
FFFE
FFFE
003C
0078
00F0
01E0
01C0
03C0
0780
0F00
0E00
1E00
1C00
3800
3800
7000
7000
7000
7000
7000
7000
7000
7800
3C00
3FFC
1FFE
07FF
0007
0007
0007
0007
001F
003E
0038
ENDCHAR
STARTCHAR 03B7
ENCODING 951
SWIDTH 560 0
DWIDTH 21 0
BBX 14 28 4 -7
BITMAP
0F80
3FE0
7FF0
7878
F038
E03C
E01C
E01C
E01C
E01C
E01C
E01C
E01C
E01C
E01C
E01C
E01C
E01C
E01C
E01C
801C
001C
001C
001C
001C
001C
001C
0010
ENDCHAR
STARTCHAR 03B8
ENCODING 952
SWIDTH 560 0
DWIDTH 21 0
BBX 14 28 4 0
BITMAP
0F80
3FE0
7FF0
7878
F038
E03C
E01C
E01C
E01C
E01C
E01C
E01C
E01C
FFFC
FFFC
FFFC
E01C
E01C
E01C
E01C
E01C
E01C
E03C
F038
7878
7FF0
3FE0
0F80
ENDCHAR
STARTCHAR 03B9
ENCODING 953
SWIDTH 560 0
DWIDTH 21 0
BBX 13 20 4 0
BITMAP
7F00
FF00
FF00
0700
0700
0700
0700
0700
0700
0700
0700
0700
0700
0700
0700
0700
0780
07F8
03F8
00F0
ENDCHAR
STARTCHAR 03BA
ENCODING 954
SWIDTH 560 0
DWIDTH 21 0
BBX 15 21 3 0
BITMAP
2008
E01C
E03C
E078
E0F0
E1E0
E3C0
E780
EF00
FF80
FF80
FBC0
F1E0
E1E0
E0F0
E070
E078
E03C
E01C
E01E
8008
ENDCHAR
STARTCHAR 03BB
ENCODING 955
SWIDTH 560 0
DWIDTH 21 0
BBX 17 28 2 0
BITMAP
1E0000
1F0000
1F8000
038000
03C000
01C000
01C000
01E000
00E000
00E000
01F000
01F000
03F000
03F800
03B800
07B800
073C00
0F1C00
0E1C00
1E1E00
1C0E00
3C0E00
3C0F00
380700
780700
700780
F00380
200200
ENDCHAR
STARTCHAR 03BC
ENCODING 956
SWIDTH 560 0
DWIDTH 21 0
BBX 14 28 4 -7
BITMAP
2004
E01C
E01C
E01C
E01C
E01C
E01C
E01C
E01C
E01C
E01C
E01C
E01C
E01C
E01C
E03C
F038
F878
FFF0
FFE0
EF80
E000
E000
E000
E000
E000
E000
8000
ENDCHAR
STARTCHAR 03BD
ENCODING 957
SWIDTH 560 0
DWIDTH 21 0
BBX 17 21 2 0
BITMAP
200400
F00700
700300
700380
780380
380380
380380
380380
1C0380
1C0780
1C0700
0E0700
0E0F00
0E0E00
0F1C00
073C00
077800
07F000
03E000
03C000
030000
ENDCHAR
STARTCHAR 03BE
ENCODING 958
SWIDTH 560 0
DWIDTH 21 0
BBX 16 35 3 -7
BITMAP
7FFF
FFFE
FFFE
1E00
3C00
3800
3800
3800
3800
3C00
1C00
1FFE
1FFC
3FFC
3C00
7800
7000
7000
7000
7000
7000
7000
7000
7800
3C00
3FFC
1FFE
07FF
0007
0007
0007
0007
001F
003E
0038
ENDCHAR
STARTCHAR 03BF
ENCODING 959
SWIDTH 560 0
DWIDTH 21 0
BBX 14 21 4 0
BITMAP
0F80
3FE0
7FF0
7878
F038
E03C
E01C
E01C
E01C
E01C
E01C
E01C
E01C
E01C
E01C
E03C
F038
7878
7FF0
3FE0
0F80
ENDCHAR
STARTCHAR 03C0
ENCODING 960
SWIDTH 560 0
DWIDTH 21 0
BBX 14 20 4 0
BITMAP
FFFC
FFFC
FFFC
E01C
E01C
E01C
E01C
E01C
E01C
E01C
E01C
E01C
E01C
E01C
E01C
E01C
E01C
E01C
E01C
8010
ENDCHAR
STARTCHAR 03C1
ENCODING 961
SWIDTH 560 0
DWIDTH 21 0
BBX 14 28 4 -7
BITMAP
0F80
3FE0
7FF0
7878
F038
E03C
E01C
E01C
E01C
E01C
E01C
E01C
E01C
E01C
E01C
E03C
F038
F878
FFF0
FFE0
EF80
E000
E000
E000
E000
E000
E000
8000
ENDCHAR
STARTCHAR 03C2
ENCODING 962
SWIDTH 560 0
DWIDTH 21 0
BBX 14 28 4 -7
BITMAP
07E0
1FF8
3FFC
7C38
7000
E000
E000
E000
E000
E000
E000
E000
E000
E000
E000
E000
7000
7C00
3FE0
1FF8
07F8
003C
001C
001C
003C
00F8
00F8
01E0
ENDCHAR
STARTCHAR 03C3
ENCODING 963
SWIDTH 560 0
DWIDTH 21 0
BBX 16 21 4 0
BITMAP
0FFF
3FFE
7FFE
78F8
F038
E038
E01C
E01C
E01C
E01C
E01C
E01C
E01C
E01C
E01C
E03C
F038
7878
7FF0
3FE0
0F80
ENDCHAR
STARTCHAR 03C4
ENCODING 964
SWIDTH 560 0
DWIDTH 21 0
BBX 16 20 3 0
BITMAP
7FFF
FFFE
FFFE
0380
0380
0380
0380
0380
0380
0380
0380
0380
0380
0380
0380
0380
03C0
03FC
01FC
0078
ENDCHAR
STARTCHAR 03C5
ENCODING 965
SWIDTH 560 0
DWIDTH 21 0
BBX 21 21 0 0
BITMAP
7F0040
7F0070
FF0070
070070
070038
070038
070038
070038
070078
070070
070070
0700F0
0700E0
0701E0
0703C0
0703C0
070F80
079F00
03FE00
01F800
00E000
ENDCHAR
STARTCHAR 03C6
ENCODING 966
SWIDTH 560 0
DWIDTH 21 0
BBX 14 28 4 -7
BITMAP
61C0
E7E0
E7F0
E778
E738
E738
E71C
E71C
E71C
E71C
E71C
E71C
E71C
E71C
E71C
E738
F738
7FF8
7FF0
1FE0
0780
0700
0700
0700
0700
0700
0700
0400
ENDCHAR
STARTCHAR 03C7
ENCODING 967
SWIDTH 560 0
DWIDTH 21 0
BBX 21 28 0 -7
BITMAP
700080
7800E0
FC01C0
1E01C0
0E0380
070380
070700
038700
038E00
01CE00
01DC00
00FC00
00F800
007800
007000
00F800
00F800
01FC00
01DC00
038E00
038E00
070700
0F0700
0E0380
1E03C0
1C01F8
3C00F8
080070
ENDCHAR
STARTCHAR 03C8
ENCODING 968
SWIDTH 560 0
DWIDTH 21 0
BBX 14 28 4 -7
BITMAP
6104
E71C
E71C
E71C
E71C
E71C
E71C
E71C
E71C
E71C
E71C
E71C
E71C
E71C
E71C
E738
F738
7FF8
7FF0
1FE0
0780
0700
0700
0700
0700
0700
0700
0400
ENDCHAR
STARTCHAR 03C9
ENCODING 969
SWIDTH 560 0
DWIDTH 21 0
BBX 17 21 2 0
BITMAP
200080
E00380
E00380
E00380
E00380
E00380
E00380
E00380
E00380
E1C380
E1C380
E1C380
E1C380
E1C380
E1C380
E1C380
E1C380
F3E780
7FFF80
7FFF00
1E3C00
ENDCHAR
STARTCHAR 03CA
ENCODING 970
SWIDTH 560 0
DWIDTH 21 0
BBX 15 28 2 0
BITMAP
7030
F878
F878
F878
7030
0000
0000
0000
1FC0
3FC0
3FC0
01C0
01C0
01C0
01C0
01C0
01C0
01C0
01C0
01C0
01C0
01C0
01C0
01C0
01E0
01FE
00FE
003C
ENDCHAR
STARTCHAR 03CB
ENCODING 971
SWIDTH 560 0
DWIDTH 21 0
BBX 21 28 0 0
BITMAP
070700
0F8780
0F8F80
0F8780
070700
000000
000000
7F0040
7F0070
FF0070
070070
070038
070038
070038
070038
070078
070070
070070
0700F0
0700E0
0701E0
0703C0
0703C0
070F80
079F00
03FE00
01F800
00E000
ENDCHAR
STARTCHAR 03CC
ENCODING 972
SWIDTH 560 0
DWIDTH 21 0
BBX 14 30 4 0
BITMAP
0020
0060
00F0
01E0
03C0
0380
0300
0200
0000
0F80
3FE0
7FF0
7878
F038
E03C
E01C
E01C
E01C
E01C
E01C
E01C
E01C
E01C
E01C
E03C
F038
7878
7FF0
3FE0
0F80
ENDCHAR
STARTCHAR 03CD
ENCODING 973
SWIDTH 560 0
DWIDTH 21 0
BBX 21 30 0 0
BITMAP
000200
000600
000F00
001E00
003C00
003800
003000
002000
000000
7F0040
7F0070
FF0070
070070
070038
070038
070038
070038
070078
070070
070070
0700F0
0700E0
0701E0
0703C0
0703C0
070F80
079F00
03FE00
01F800
00E000
ENDCHAR
STARTCHAR 03CE
ENCODING 974
SWIDTH 560 0
DWIDTH 21 0
BBX 17 30 2 0
BITMAP
000800
001800
003C00
007800
00F000
00E000
00C000
008000
000000
200080
E00380
E00380
E00380
E00380
E00380
E00380
E00380
E00380
E1C380
E1C380
E1C380
E1C380
E1C380
E1C380
E1C380
E1C380
F3E780
7FFF80
7FFF00
1E3C00
ENDCHAR
STARTCHAR 03CF
ENCODING 975
SWIDTH 560 0
DWIDTH 21 0
BBX 16 34 3 -6
BITMAP
600C
E00E
E01C
E03C
E078
E0F0
E1E0
E1C0
E380
E780
EF00
FE00
FF00
FF00
F780
E380
E3C0
E1E0
E1E0
E0F0
E070
E078
E03C
E03C
E01E
E01E
E00F
8007
000F
001E
007C
00F8
0070
0020
ENDCHAR
STARTCHAR 03D0
ENCODING 976
SWIDTH 560 0
DWIDTH 21 0
BBX 15 28 3 0
BITMAP
0FC0
1FE0
3FF8
7878
F03C
E01C
E01C
E01C
E01C
E03C
E078
FFF0
FFF0
FFF8
E07C
E01E
E00E
E00E
E00E
E00E
E00E
E00E
E00E
701E
783C
3FFC
1FF8
07E0
ENDCHAR
STARTCHAR 03D1
ENCODING 977
SWIDTH 560 0
DWIDTH 21 0
BBX 14 28 4 0
BITMAP
01E0
03F0
07F8
0738
061C
0E1C
0E1C
661C
E73C
E7FC
E3FC
E1FC
E01C
E01C
E01C
E01C
E01C
E01C
E01C
E01C
E01C
E01C
E03C
F038
7878
7FF0
3FE0
0F80
ENDCHAR
STARTCHAR 03D2
ENCODING 978
SWIDTH 560 0
DWIDTH 21 0
BBX 19 28 1 0
BITMAP
F803E0
FC07E0
7E0FC0
0E0E00
071E00
071C00
071C00
03BC00
03B800
03B800
01F000
01F000
01F000
01E000
00E000
00E000
00E000
00E000
00E000
00E000
00E000
00E000
00E000
00E000
00E000
00E000
00E000
008000
ENDCHAR
STARTCHAR 03D3
ENCODING 979
SWIDTH 560 0
DWIDTH 21 0
BBX 21 31 0 0
BITMAP
040000
0C0000
1C0000
3D8018
F9E038
F1F078
607070
4070E0
0038E0
0039E0
0039C0
001DC0
001F80
001F80
000F80
000F00
000F00
000700
000700
000700
000700
000700
000700
000700
000700
000700
000700
000700
000700
000700
000400
ENDCHAR
STARTCHAR 03D4
ENCODING 980
SWIDTH 560 0
DWIDTH 21 0
BBX 19 35 1 0
BITMAP
0E0E00
1F0F00
1F1F00
1F0F00
0E0E00
000000
000000
F803E0
FC07E0
7E0FC0
0E0E00
071E00
071C00
071C00
03BC00
03B800
03B800
01F000
01F000
01F000
01E000
00E000
00E000
00E000
00E000
00E000
00E000
00E000
00E000
00E000
00E000
00E000
00E000
00E000
008000
ENDCHAR
STARTCHAR 03D5
ENCODING 981
SWIDTH 560 0
DWIDTH 21 0
BBX 14 35 4 -7
BITMAP
0100
0700
0700
0700
0700
0700
0700
0780
1FE0
7FF0
7FF8
F738
E738
E71C
E71C
E71C
E71C
E71C
E71C
E71C
E71C
E71C
E738
F738
7FF8
7FF0
1FE0
0F80
0700
0700
0700
0700
0700
0700
0400
ENDCHAR
STARTCHAR 03D6
ENCODING 982
SWIDTH 560 0
DWIDTH 21 0
BBX 17 20 2 0
BITMAP
FFFF80
FFFF80
FFFF80
E00380
E00380
E00380
E00380
E00380
E0C380
E1C380
E1C380
E1C380
E1C380
E1C380
E1C380
E1C380
F3E780
7FFF80
7FFF00
1E3E00
ENDCHAR
STARTCHAR 03D7
ENCODING 983
SWIDTH 560 0
DWIDTH 21 0
BBX 18 28 2 -7
BITMAP
780100
FE0700
FE0E00
0F0E00
070E00
071C00
071C00
071C00
077C00
07F800
07F800
07B800
0F7000
0E7000
0E7000
1C7000
1C3800
1C3800
383FC0
381FC0
2007C0
0003C0
000380
000380
000780
007F00
007E00
007800
ENDCHAR
STARTCHAR 03D8
ENCODING 984
SWIDTH 560 0
DWIDTH 21 0
BBX 17 35 2 -7
BITMAP
03F000
0FF800
1FFE00
3C1E00
780F00
700780
F00380
E00380
E00380
E00380
E00380
E00380
E00380
E00380
E00380
E00380
E00380
E00380
E00380
E00380
E00380
F00380
700780
780F00
3C1F00
1FFE00
0FFC00
07F000
01C000
01C000
01C000
01C000
01C000
01C000
018000
ENDCHAR
STARTCHAR 03D9
ENCODING 985
SWIDTH 560 0
DWIDTH 21 0
BBX 14 28 4 -7
BITMAP
0F80
3FE0
7FF0
7878
F038
E03C
E01C
E01C
E01C
E01C
E01C
E01C
E01C
E01C
E01C
E038
F038
78F8
7FF0
1FE0
0780
0700
0700
0700
0700
0700
0700
0600
ENDCHAR
STARTCHAR 03DA
ENCODING 986
SWIDTH 560 0
DWIDTH 21 0
BBX 17 35 2 -7
BITMAP
03FF80
0FFF00
1FFF00
3C0000
780000
700000
F00000
E00000
E00000
E00000
E00000
E00000
E00000
E00000
E00000
E00000
E00000
E00000
E00000
E00000
E00000
F00000
700000
780000
3C0000
1FF800
0FFC00
03FE00
000E00
000700
000700
000E00
003E00
003C00
007800
ENDCHAR
STARTCHAR 03DB
ENCODING 987
SWIDTH 560 0
DWIDTH 21 0
BBX 15 27 4 -7
BITMAP
07FE
1FFC
3FFC
7C00
F000
E000
E000
E000
E000
E000
E000
E000
E000
E000
E000
7000
7C00
3FE0
1FF8
07F8
003C
001C
001C
003C
00F8
00F8
01E0
ENDCHAR
STARTCHAR 03DC
ENCODING 988
SWIDTH 560 0
DWIDTH 21 0
BBX 13 28 4 0
BITMAP
3FF8
FFF8
FFF0
E000
E000
E000
E000
E000
E000
E000
E000
E000
FFF8
FFF8
FFF0
E000
E000
E000
E000
E000
E000
E000
E000
E000
E000
E000
E000
8000
ENDCHAR
STARTCHAR 03DD
ENCODING 989
SWIDTH 560 0
DWIDTH 21 0
BBX 13 35 4 -7
BITMAP
00F8
03F8
07F0
0F00
0E00
1E00
1C00
1C00
1C00
1C00
1C00
1C00
1FF0
1FF0
1FE0
1C00
1C00
1C00
1C00
1C00
1C00
1C00
1C00
1C00
1C00
1C00
1C00
1C00
1C00
1C00
3C00
7800
F800
F000
C000
ENDCHAR
STARTCHAR 03DE
ENCODING 990
SWIDTH 560 0
DWIDTH 21 0
BBX 18 28 2 0
BITMAP
780000
FC0000
FE0000
1E0000
0E0000
0E0000
0E0000
0E0080
0E0180
1E0780
1C1F00
1C7F00
1CFF00
3FFE00
3FCE00
3F8E00
3E1E00
381C00
601C00
001C00
003800
003800
003800
003800
003C00
003FC0
001F80
000780
ENDCHAR
STARTCHAR 03DF
ENCODING 991
SWIDTH 560 0
DWIDTH 21 0
BBX 14 28 4 0
BITMAP
0200
0E00
1E00
1C00
1C00
1C00
3800
3800
3800
7800
7000
7000
7000
FFFC
FFF8
FFF8
0038
0070
0070
0070
00E0
00E0
00E0
01C0
01C0
01C0
03C0
0200
ENDCHAR
STARTCHAR 03E0
ENCODING 992
SWIDTH 560 0
DWIDTH 21 0
BBX 21 35 0 -7
BITMAP
700000
780000
FE0000
3F0000
0F8000
07C000
03E000
01F000
00F800
01F800
01FC00
03DE00
039E00
038F00
078F80
070F80
0F0F80
0E0FC0
0E1DC0
1C1DE0
1C3DE0
3C38E0
3838F0
3870F0
707070
70F070
E0E078
206078
000038
000038
000038
000038
000038
000038
000030
ENDCHAR
STARTCHAR 03E1
ENCODING 993
SWIDTH 560 0
DWIDTH 21 0
BBX 17 28 2 -7
BITMAP
300000
7C0000
7F0000
1F8000
07C000
03C000
01E000
00F000
00F000
01F800
03F800
03BC00
079C00
0F3E00
0E3E00
1E7F00
3CFF00
38E700
71C700
F3C780
218780
000780
000380
000380
000380
000380
000380
000200
ENDCHAR
STARTCHAR 03E2
ENCODING 994
SWIDTH 560 0
DWIDTH 21 0
BBX 17 35 2 -7
BITMAP
200080
E00380
E00380
E00380
E00380
E00380
E00380
E00380
E00380
E00380
E00380
E00380
E00380
E0C380
E1C380
E1C380
E1C380
E1C380
E1C380
E1C380
E1C380
E1C380
E1C380
E1C380
F3E780
7FFF80
7FFF00
1E3C00
00F800
01F000
03E000
07C000
0F0000
060000
040000
ENDCHAR
STARTCHAR 03E3
ENCODING 995
SWIDTH 560 0
DWIDTH 21 0
BBX 17 28 2 -7
BITMAP
200080
E00380
E00380
E00380
E00380
E00380
E00380
E00380
E00380
E1C380
E1C380
E1C380
E1C380
E1C380
E1C380
E1C380
E1C380
F3E780
7FFF80
7FFF00
1E3C00
00F800
01F000
03E000
07C000
0F0000
060000
040000
ENDCHAR
STARTCHAR 03E4
ENCODING 996
SWIDTH 560 0
DWIDTH 21 0
BBX 17 35 2 -7
BITMAP
040080
1E0380
3E0380
380380
780380
700380
700380
700380
E00380
E00380
E00380
E00380
E00380
E00380
E00380
E00380
E00380
E00380
E00380
E00380
F00380
700380
700780
780F80
3C1F80
1FFF80
0FFB80
03F380
000380
000380
000380
000380
000380
000380
000200
ENDCHAR
STARTCHAR 03E5
ENCODING 997
SWIDTH 560 0
DWIDTH 21 0
BBX 15 28 3 -7
BITMAP
0402
1E0E
3E0E
380E
780E
700E
700E
E00E
E00E
E00E
E00E
E00E
E00E
E00E
F00E
700E
781E
3C7E
3FFE
1FEE
07CE
000E
000E
000E
000E
000E
000E
0008
ENDCHAR
STARTCHAR 03E6
ENCODING 998
SWIDTH 560 0
DWIDTH 21 0
BBX 17 35 2 -7
BITMAP
200000
E00000
E00000
E00000
E00000
E00000
E00000
E3F000
EFF800
FFFE00
FC1E00
F80F00
F00780
F00380
E00380
E00380
E00380
E00380
E00380
E00380
E00380
E00380
E00380
E00380
E00380
E00380
E00700
800700
000700
000F00
001E00
083C00
1FFC00
3FF000
0FC000
ENDCHAR
STARTCHAR 03E7
ENCODING 999
SWIDTH 560 0
DWIDTH 21 0
BBX 20 21 1 0
BITMAP
03E000
0FF800
1FFC00
3C3E00
380E00
380F00
380700
380780
380380
3C0380
1FFFF0
0FFFE0
07FFE0
000780
000700
000F00
001E00
3C3C00
7FFC00
FFF000
63E000
ENDCHAR
STARTCHAR 03E8
ENCODING 1000
SWIDTH 560 0
DWIDTH 21 0
BBX 18 35 1 -7
BITMAP
03F800
0FFC00
3FFF00
7E0F00
780780
600380
0001C0
0001C0
0001C0
0001C0
0001C0
0001C0
000380
000380
000780
000700
000F00
000E00
001E00
003C00
007800
00F000
01E000
03C000
0F8000
1F0000
3E0000
F80000
F00000
F00000
7803C0
3E0F80
1FFF00
0FFE00
03F000
ENDCHAR
STARTCHAR 03E9
ENCODING 1001
SWIDTH 560 0
DWIDTH 21 0
BBX 17 28 2 -7
BITMAP
03F000
0FF800
3FFE00
3C1E00
380F00
100780
000380
000380
000380
000380
000780
000700
000F00
001E00
003C00
007800
01F000
03E000
0FC000
3F0000
7C0000
F80000
700000
780780
3E1F00
1FFE00
0FFC00
03F000
ENDCHAR
STARTCHAR 03EA
ENCODING 1002
SWIDTH 560 0
DWIDTH 21 0
BBX 21 28 0 0
BITMAP
700078
7C00F8
FC01F0
1E03C0
0E0380
070780
078700
038F00
03CE00
01DC00
01FC00
00F800
00F800
007000
00F800
00FC00
01FC00
01DE00
03CE00
038F00
070700
0F0780
0E0380
1E03C0
1C01C0
7FFFF8
7FFFF8
FFFFF0
ENDCHAR
STARTCHAR 03EB
ENCODING 1003
SWIDTH 560 0
DWIDTH 21 0
BBX 20 21 1 0
BITMAP
3001E0
7C03C0
7E07C0
1E0F00
0F0E00
071E00
03BC00
03F800
01F800
00F000
00F000
01F800
03F800
03BC00
071C00
0F0E00
0E0F00
1C0700
FFFFF0
FFFFE0
FFFFE0
ENDCHAR
STARTCHAR 03EC
ENCODING 1004
SWIDTH 560 0
DWIDTH 21 0
BBX 17 28 2 0
BITMAP
07FF00
1FFE00
3FFE00
7C0000
780000
700000
F00000
F3F000
FFF800
FFFE00
FC1E00
F80F00
F00780
F00380
E00380
E00380
E00380
E00380
E00380
E00380
E00380
F00380
700780
780F00
3C1E00
1FFE00
0FFC00
03F000
ENDCHAR
STARTCHAR 03ED
ENCODING 1005
SWIDTH 560 0
DWIDTH 21 0
BBX 14 28 4 0
BITMAP
0FF0
1FF0
3FF0
7800
F000
E000
E000
EF80
FFE0
FFF0
F878
F038
E03C
E01C
E01C
E01C
E01C
E01C
E01C
E01C
E01C
E01C
E03C
F038
7878
7FF0
3FE0
0F80
ENDCHAR
STARTCHAR 03EE
ENCODING 1006
SWIDTH 560 0
DWIDTH 21 0
BBX 20 35 1 -7
BITMAP
002000
00E000
00E000
00E000
00E000
00E000
00E000
FFFFF0
FFFFF0
FFFFF0
E0E070
E0E070
E0E070
E0E070
E0E070
E0E070
80E040
00E000
00E000
00E000
00E000
00E000
00E000
00E000
00E000
00E000
00E000
00E000
00E000
00E000
00E000
00E000
00E000
00E000
008000
ENDCHAR
STARTCHAR 03EF
ENCODING 1007
SWIDTH 560 0
DWIDTH 21 0
BBX 15 35 3 -7
BITMAP
0080
0380
0380
0380
0380
0380
0380
FFFE
FFFE
FFFE
E38E
E38E
C38C
0380
0380
0380
0380
0380
0380
0380
0380
0380
0380
0380
0380
0380
0380
0380
0380
0380
0380
0380
0380
0380
0200
ENDCHAR
STARTCHAR 03F0
ENCODING 1008
SWIDTH 560 0
DWIDTH 21 0
BBX 18 21 2 0
BITMAP
780100
FE0700
FE0E00
0F0E00
070E00
071C00
071C00
071C00
077C00
07F800
07F800
07B800
0F7000
0E7000
0E7000
1C7000
1C3800
1C3C00
383FC0
381F80
200780
ENDCHAR
STARTCHAR 03F1
ENCODING 1009
SWIDTH 560 0
DWIDTH 21 0
BBX 14 28 4 -7
BITMAP
0F80
3FE0
7FF0
7878
F038
E03C
E01C
E01C
E01C
E01C
E01C
E01C
E01C
E01C
E01C
E03C
F038
F878
FFF0
FFE0
EF80
E000
E000
F000
7800
3FF0
1FF0
0FF0
ENDCHAR
STARTCHAR 03F2
ENCODING 1010
SWIDTH 560 0
DWIDTH 21 0
BBX 15 21 3 0
BITMAP
03F0
0FF8
1FFC
3C18
7800
7000
F000
E000
E000
E000
E000
E000
E000
E000
F000
7000
7808
3C1C
1FFE
0FF8
03F0
ENDCHAR
STARTCHAR 03F3
ENCODING 1011
SWIDTH 560 0
DWIDTH 21 0
BBX 9 35 4 -7
BITMAP
0700
0780
0F80
0780
0700
0000
0000
0000
7F00
7F00
7F00
0700
0700
0700
0700
0700
0700
0700
0700
0700
0700
0700
0700
0700
0700
0700
0700
0700
0700
0700
0700
0700
7F00
FE00
FC00
ENDCHAR
STARTCHAR 03F4
ENCODING 1012
SWIDTH 560 0
DWIDTH 21 0
BBX 17 28 2 0
BITMAP
03F000
0FFC00
1FFE00
3C1F00
780F00
700780
F00380
E00380
E00380
E00380
E00380
E00380
E00380
FFFF80
FFFF80
FFFF80
E00380
E00380
E00380
E00380
E00380
E00380
700780
780F00
3C1F00
1FFE00
0FF800
03F000
ENDCHAR
STARTCHAR 03F5
ENCODING 1013
SWIDTH 560 0
DWIDTH 21 0
BBX 15 21 3 0
BITMAP
03F0
0FF8
1FFC
3C18
7800
7000
F000
E000
E000
FFFC
FFFC
FFF8
E000
E000
F000
7000
7808
3C1C
1FFE
0FF8
03F0
ENDCHAR
STARTCHAR 03F6
ENCODING 1014
SWIDTH 560 0
DWIDTH 21 0
BBX 14 21 4 0
BITMAP
1F80
7FC0
FFF0
60F0
0078
003C
001C
001C
001C
7FFC
7FFC
FFFC
001C
001C
001C
003C
4078
E0F0
FFF0
7FE0
1F80
ENDCHAR
STARTCHAR 03F7
ENCODING 1015
SWIDTH 560 0
DWIDTH 21 0
BBX 15 28 3 0
BITMAP
2000
E000
E000
E000
E000
E000
FFC0
FFF0
FFF8
E03C
E01E
E00E
E00E
E006
E006
E00E
E00E
E01E
E03C
FFF8
FFF0
FFC0
E000
E000
E000
E000
E000
8000
ENDCHAR
STARTCHAR 03F8
ENCODING 1016
SWIDTH 560 0
DWIDTH 21 0
BBX 14 35 4 -7
BITMAP
6000
E000
E000
E000
E000
E000
E000
EF80
FFE0
FFF0
F878
F038
E03C
E01C
E01C
E01C
E01C
E01C
E01C
E01C
E01C
E01C
E03C
F038
F878
FFF0
FFE0
EF80
E000
E000
E000
E000
E000
E000
8000
ENDCHAR
STARTCHAR 03F9
ENCODING 1017
SWIDTH 560 0
DWIDTH 21 0
BBX 17 28 2 0
BITMAP
03F800
0FFE00
1FFF00
3E0F80
780300
700000
F00000
E00000
E00000
E00000
E00000
E00000
E00000
E00000
E00000
E00000
E00000
E00000
E00000
E00000
E00000
F00000
700000
780380
3E0F80
1FFF00
0FFC00
03F000
ENDCHAR
STARTCHAR 03FA
ENCODING 1018
SWIDTH 560 0
DWIDTH 21 0
BBX 18 28 2 0
BITMAP
6000C0
F003C0
F803C0
F807C0
FC0FC0
FE1FC0
EF3DC0
E739C0
E7F1C0
E3E1C0
E1C1C0
E001C0
E001C0
E001C0
E001C0
E001C0
E001C0
E001C0
E001C0
E001C0
E001C0
E001C0
E001C0
E001C0
E001C0
E001C0
E001C0
800100
ENDCHAR
STARTCHAR 03FB
ENCODING 1019
SWIDTH 560 0
DWIDTH 21 0
BBX 14 28 4 -7
BITMAP
2004
E01C
F03C
F07C
F87C
FCFC
FCFC
FFDC
EFDC
EF9C
E71C
E41C
E01C
E01C
E01C
E01C
E01C
E01C
E01C
E01C
E010
E000
E000
E000
E000
E000
E000
8000
ENDCHAR
STARTCHAR 03FC
ENCODING 1020
SWIDTH 560 0
DWIDTH 21 0
BBX 18 28 0 -7
BITMAP
00F800
03FE00
07FF00
078780
0F0380
0E03C0
0E01C0
0E01C0
0E01C0
0E01C0
0E01C0
0E01C0
0E01C0
0E01C0
0E01C0
0E03C0
0F0380
0F8780
0FFF00
0FFE00
0EF800
0E0000
0E0000
7FFC00
7FFC00
FFF800
0E0000
080000
ENDCHAR
STARTCHAR 03FD
ENCODING 1021
SWIDTH 560 0
DWIDTH 21 0
BBX 17 28 2 0
BITMAP
07E000
1FF800
7FFC00
783E00
700F00
000780
000380
000380
000380
000380
000380
000380
000380
000380
000380
000380
000380
000380
000380
000380
000380
000380
200780
F00F00
781F00
3FFE00
1FFC00
07E000
ENDCHAR
STARTCHAR 03FE
ENCODING 1022
SWIDTH 560 0
DWIDTH 21 0
BBX 17 28 2 0
BITMAP
03F800
0FFE00
1FFF00
3E0F80
780300
700000
F00000
E00000
E00000
E00000
E00000
E00000
E0E000
E0F000
E1F000
E0F000
E0E000
E00000
E00000
E00000
E00000
F00000
700000
780380
3E0F80
1FFF00
0FFC00
03F000
ENDCHAR
STARTCHAR 03FF
ENCODING 1023
SWIDTH 560 0
DWIDTH 21 0
BBX 17 28 2 0
BITMAP
07E000
1FF800
7FFC00
783E00
700F00
000780
000380
000380
000380
000380
000380
000380
038380
07C380
07C380
07C380
038380
000380
000380
000380
000380
000380
200780
F00F00
F81F00
7FFE00
1FFC00
07E000
ENDCHAR
STARTCHAR 1E0C
ENCODING 7692
SWIDTH 560 0
DWIDTH 21 0
BBX 17 35 2 -7
BITMAP
3FF000
FFF800
FFFE00
E01E00
E00F00
E00780
E00380
E00380
E00380
E00380
E00380
E00380
E00380
E00380
E00380
E00380
E00380
E00380
E00380
E00380
E00380
E00380
E00780
E00F00
E01E00
FFFE00
FFF800
FFE000
000000
000000
01C000
03E000
03E000
03E000
01C000
ENDCHAR
STARTCHAR 1E0D
ENCODING 7693
SWIDTH 560 0
DWIDTH 21 0
BBX 14 35 4 -7
BITMAP
000C
001C
001C
001C
001C
001C
001C
0F9C
3FFC
7FFC
787C
F03C
E03C
E01C
E01C
E01C
E01C
E01C
E01C
E01C
E01C
E01C
E03C
F038
7878
7FF0
3FE0
0F80
0000
0000
0700
0F80
0F80
0F80
0700
ENDCHAR
STARTCHAR 1E0E
ENCODING 7694
SWIDTH 560 0
DWIDTH 21 0
BBX 17 35 2 -7
BITMAP
3FF000
FFF800
FFFE00
E01E00
E00F00
E00780
E00380
E00380
E00380
E00380
E00380
E00380
E00380
E00380
E00380
E00380
E00380
E00380
E00380
E00380
E00380
E00380
E00780
E00F00
E01E00
FFFE00
FFF800
FFE000
000000
000000
000000
000000
1FFE00
3FFC00
3FFC00
ENDCHAR
STARTCHAR 1E0F
ENCODING 7695
SWIDTH 560 0
DWIDTH 21 0
BBX 14 35 4 -7
BITMAP
000C
001C
001C
001C
001C
001C
001C
0F9C
3FFC
7FFC
787C
F03C
E03C
E01C
E01C
E01C
E01C
E01C
E01C
E01C
E01C
E01C
E03C
F038
7878
7FF0
3FE0
0F80
0000
0000
0000
0000
7FF8
FFF0
FFF0
ENDCHAR
STARTCHAR 1E24
ENCODING 7716
SWIDTH 560 0
DWIDTH 21 0
BBX 17 35 2 -7
BITMAP
200080
E00380
E00380
E00380
E00380
E00380
E00380
E00380
E00380
E00380
E00380
E00380
FFFF80
FFFF80
FFFF80
E00380
E00380
E00380
E00380
E00380
E00380
E00380
E00380
E00380
E00380
E00380
E00380
800200
000000
000000
01C000
03E000
03E000
03E000
01C000
ENDCHAR
STARTCHAR 1E25
ENCODING 7717
SWIDTH 560 0
DWIDTH 21 0
BBX 14 35 4 -7
BITMAP
6000
E000
E000
E000
E000
E000
E000
EF80
FFE0
FFF0
F878
F038
E03C
E01C
E01C
E01C
E01C
E01C
E01C
E01C
E01C
E01C
E01C
E01C
E01C
E01C
E01C
8010
0000
0000
0700
0F80
0F80
0F80
0700
ENDCHAR
STARTCHAR 1E36
ENCODING 7734
SWIDTH 560 0
DWIDTH 21 0
BBX 16 35 3 -7
BITMAP
6000
E000
E000
E000
E000
E000
E000
E000
E000
E000
E000
E000
E000
E000
E000
E000
E000
E000
E000
E000
E000
E000
E000
E000
E000
FFFF
FFFE
FFFE
0000
0000
0380
07C0
07C0
07C0
0380
ENDCHAR
STARTCHAR 1E37
ENCODING 7735
SWIDTH 560 0
DWIDTH 21 0
BBX 14 35 4 -7
BITMAP
6000
E000
E000
E000
E000
E000
E000
E000
E000
E000
E000
E000
E000
E000
E000
E000
E000
E000
E000
E000
E01C
E01C
E03C
F038
7878
7FF0
3FE0
0F80
0000
0000
0700
0F80
0F80
0F80
0700
ENDCHAR
STARTCHAR 1E80
ENCODING 7808
SWIDTH 560 0
DWIDTH 21 0
BBX 17 38 2 0
BITMAP
080000
0C0000
0E0000
0F0000
078000
03C000
01C000
018000
008000
000000
204080
E1C380
E1C380
E1C380
E1C380
E1C380
E1C380
E1C380
E1C380
E1C380
E1C380
E1C380
E1C380
E1C380
E1C380
E1C380
E1C380
E1C380
E1C380
E1C380
E1C380
E1C380
E1C380
E1C380
F3E780
7FFF80
7FFF00
1E3E00
ENDCHAR
STARTCHAR 1E81
ENCODING 7809
SWIDTH 560 0
DWIDTH 21 0
BBX 17 30 2 0
BITMAP
080000
0C0000
0E0000
0F0000
078000
03C000
018000
008000
000000
204080
E1C380
E1C380
E1C380
E1C380
E1C380
E1C380
E1C380
E1C380
E1C380
E1C380
E1C380
E1C380
E1C380
E1C380
E1C380
E1C380
F3E780
7FFF80
7FFF00
1E3C00
ENDCHAR
STARTCHAR 1E82
ENCODING 7810
SWIDTH 560 0
DWIDTH 21 0
BBX 17 38 2 0
BITMAP
000800
001800
001C00
003C00
007800
00F000
00E000
00C000
008000
000000
204080
E1C380
E1C380
E1C380
E1C380
E1C380
E1C380
E1C380
E1C380
E1C380
E1C380
E1C380
E1C380
E1C380
E1C380
E1C380
E1C380
E1C380
E1C380
E1C380
E1C380
E1C380
E1C380
E1C380
F3E780
7FFF80
7FFF00
1E3E00
ENDCHAR
STARTCHAR 1E83
ENCODING 7811
SWIDTH 560 0
DWIDTH 21 0
BBX 17 30 2 0
BITMAP
000800
001800
003C00
007800
00F000
00E000
00C000
008000
000000
204080
E1C380
E1C380
E1C380
E1C380
E1C380
E1C380
E1C380
E1C380
E1C380
E1C380
E1C380
E1C380
E1C380
E1C380
E1C380
E1C380
F3E780
7FFF80
7FFF00
1E3C00
ENDCHAR
STARTCHAR 1E84
ENCODING 7812
SWIDTH 560 0
DWIDTH 21 0
BBX 17 35 2 0
BITMAP
1C1C00
3E1E00
3E3E00
3E1E00
1C1C00
000000
000000
204080
E1C380
E1C380
E1C380
E1C380
E1C380
E1C380
E1C380
E1C380
E1C380
E1C380
E1C380
E1C380
E1C380
E1C380
E1C380
E1C380
E1C380
E1C380
E1C380
E1C380
E1C380
E1C380
E1C380
F3E780
7FFF80
7FFF00
1E3E00
ENDCHAR
STARTCHAR 1E85
ENCODING 7813
SWIDTH 560 0
DWIDTH 21 0
BBX 17 28 2 0
BITMAP
1C1C00
3E1E00
3E3E00
3E1E00
1C1C00
000000
000000
204080
E1C380
E1C380
E1C380
E1C380
E1C380
E1C380
E1C380
E1C380
E1C380
E1C380
E1C380
E1C380
E1C380
E1C380
E1C380
E1C380
F3E780
7FFF80
7FFF00
1E3C00
ENDCHAR
STARTCHAR 1E86
ENCODING 7814
SWIDTH 560 0
DWIDTH 21 0
BBX 17 35 2 0
BITMAP
01C000
03E000
03E000
03E000
01C000
000000
000000
204080
E1C380
E1C380
E1C380
E1C380
E1C380
E1C380
E1C380
E1C380
E1C380
E1C380
E1C380
E1C380
E1C380
E1C380
E1C380
E1C380
E1C380
E1C380
E1C380
E1C380
E1C380
E1C380
E1C380
F3E780
7FFF80
7FFF00
1E3E00
ENDCHAR
STARTCHAR 1E87
ENCODING 7815
SWIDTH 560 0
DWIDTH 21 0
BBX 17 28 2 0
BITMAP
01C000
03E000
03E000
03E000
01C000
000000
000000
204080
E1C380
E1C380
E1C380
E1C380
E1C380
E1C380
E1C380
E1C380
E1C380
E1C380
E1C380
E1C380
E1C380
E1C380
E1C380
E1C380
F3E780
7FFF80
7FFF00
1E3C00
ENDCHAR
STARTCHAR 1E88
ENCODING 7816
SWIDTH 560 0
DWIDTH 21 0
BBX 17 35 2 -7
BITMAP
204080
E1C380
E1C380
E1C380
E1C380
E1C380
E1C380
E1C380
E1C380
E1C380
E1C380
E1C380
E1C380
E1C380
E1C380
E1C380
E1C380
E1C380
E1C380
E1C380
E1C380
E1C380
E1C380
E1C380
F3E780
7FFF80
7FFF00
1E3E00
000000
000000
01C000
03E000
03E000
03E000
01C000
ENDCHAR
STARTCHAR 1E89
ENCODING 7817
SWIDTH 560 0
DWIDTH 21 0
BBX 17 28 2 -7
BITMAP
204080
E1C380
E1C380
E1C380
E1C380
E1C380
E1C380
E1C380
E1C380
E1C380
E1C380
E1C380
E1C380
E1C380
E1C380
E1C380
E1C380
F3E780
7FFF80
7FFF00
1E3C00
000000
000000
01C000
03E000
03E000
03E000
01C000
ENDCHAR
STARTCHAR 1E9E
ENCODING 7838
SWIDTH 560 0
DWIDTH 21 0
BBX 17 28 2 0
BITMAP
07C000
1FF000
3FF800
783C00
701E00
F00E00
E00E00
E00E00
E00E00
E01E00
E03C00
E0F800
E1F800
E1FE00
E01E00
E00F00
E00700
E00380
E00380
E00380
E00380
E00380
E00700
E00F00
E01E00
E3FE00
E3F800
C7F000
ENDCHAR
STARTCHAR 1EF2
ENCODING 7922
SWIDTH 560 0
DWIDTH 21 0
BBX 17 38 2 0
BITMAP
080000
0C0000
0E0000
0F0000
078000
03C000
01C000
018000
008000
000000
200080
E00380
E00380
E00380
E00380
E00380
E00380
E00380
E00380
E00380
E00380
E00380
F00380
700780
780F00
3C1F00
3FFE00
0FFC00
07F000
01C000
01C000
01C000
01C000
01C000
01C000
01C000
01C000
010000
ENDCHAR
STARTCHAR 1EF3
ENCODING 7923
SWIDTH 560 0
DWIDTH 21 0
BBX 14 37 4 -7
BITMAP
2000
3000
3800
3C00
1E00
0F00
0600
0200
0000
2004
E01C
E01C
E01C
E01C
E01C
E01C
E01C
E01C
E01C
E01C
E01C
E01C
E01C
E01C
E03C
F03C
787C
7FFC
3FFC
0F9C
001C
003C
E038
F878
7FF0
3FE0
0F80
ENDCHAR
STARTCHAR 1EF4
ENCODING 7924
SWIDTH 560 0
DWIDTH 21 0
BBX 17 35 2 -7
BITMAP
200080
E00380
E00380
E00380
E00380
E00380
E00380
E00380
E00380
E00380
E00380
E00380
F00380
700780
780F00
3C1F00
3FFE00
0FFC00
07F000
01C000
01C000
01C000
01C000
01C000
01C000
01C000
01C000
010000
000000
000000
01C000
03E000
03E000
03E000
01C000
ENDCHAR
STARTCHAR 1EF5
ENCODING 7925
SWIDTH 560 0
DWIDTH 21 0
BBX 18 28 4 -7
BITMAP
200400
E01C00
E01C00
E01C00
E01C00
E01C00
E01C00
E01C00
E01C00
E01C00
E01C00
E01C00
E01C00
E01C00
E01C00
E03C00
F03C00
787C00
7FFC00
3FFC00
0F9C00
001C00
003C00
F03B80
787BC0
7FF7C0
3FE3C0
0F8380
ENDCHAR
STARTCHAR 1EF8
ENCODING 7928
SWIDTH 560 0
DWIDTH 21 0
BBX 17 36 2 1
BITMAP
030400
078E00
0FDE00
3DFC00
38F800
106000
000000
000000
200080
E00380
E00380
E00380
E00380
E00380
E00380
E00380
E00380
E00380
E00380
E00380
F00380
700780
780F00
3C1F00
3FFE00
0FFC00
07F000
01C000
01C000
01C000
01C000
01C000
01C000
01C000
01C000
010000
ENDCHAR
STARTCHAR 1EF9
ENCODING 7929
SWIDTH 560 0
DWIDTH 21 0
BBX 14 36 4 -7
BITMAP
0400
0E18
1F38
3FF8
F3F0
61E0
4080
0000
2004
E01C
E01C
E01C
E01C
E01C
E01C
E01C
E01C
E01C
E01C
E01C
E01C
E01C
E01C
E03C
F03C
787C
7FFC
3FFC
0F9C
001C
003C
E038
F878
7FF0
3FE0
0F80
ENDCHAR
STARTCHAR 2010
ENCODING 8208
SWIDTH 560 0
DWIDTH 21 0
BBX 12 3 5 13
BITMAP
7FF0
FFE0
FFE0
ENDCHAR
STARTCHAR 2011
ENCODING 8209
SWIDTH 560 0
DWIDTH 21 0
BBX 12 3 5 13
BITMAP
7FF0
FFE0
FFE0
ENDCHAR
STARTCHAR 2012
ENCODING 8210
SWIDTH 560 0
DWIDTH 21 0
BBX 16 3 3 13
BITMAP
7FFF
FFFE
FFFE
ENDCHAR
STARTCHAR 2013
ENCODING 8211
SWIDTH 560 0
DWIDTH 21 0
BBX 16 3 3 13
BITMAP
7FFF
FFFE
FFFE
ENDCHAR
STARTCHAR 2014
ENCODING 8212
SWIDTH 560 0
DWIDTH 21 0
BBX 21 3 0 13
BITMAP
7FFFF8
7FFFF8
FFFFF0
ENDCHAR
STARTCHAR 2015
ENCODING 8213
SWIDTH 560 0
DWIDTH 21 0
BBX 21 3 0 13
BITMAP
7FFFF8
7FFFF8
FFFFF0
ENDCHAR
STARTCHAR 2016
ENCODING 8214
SWIDTH 560 0
DWIDTH 21 0
BBX 9 40 6 -6
BITMAP
6180
E380
E380
E380
E380
E380
E380
E380
E380
E380
E380
E380
E380
E380
E380
E380
E380
E380
E380
E380
E380
E380
E380
E380
E380
E380
E380
E380
E380
E380
E380
E380
E380
E380
E380
E380
E380
E380
E380
E300
ENDCHAR
STARTCHAR 2017
ENCODING 8215
SWIDTH 560 0
DWIDTH 21 0
BBX 16 9 3 -6
BITMAP
7FFF
FFFE
FFFE
0000
0000
0000
7FFF
FFFE
FFFE
ENDCHAR
STARTCHAR 2018
ENCODING 8216
SWIDTH 560 0
DWIDTH 21 0
BBX 5 10 8 18
BITMAP
18
38
70
E0
E0
F0
F8
F8
F8
70
ENDCHAR
STARTCHAR 2019
ENCODING 8217
SWIDTH 560 0
DWIDTH 21 0
BBX 5 10 8 18
BITMAP
70
F8
F8
F8
78
38
38
70
F0
C0
ENDCHAR
STARTCHAR 201A
ENCODING 8218
SWIDTH 560 0
DWIDTH 21 0
BBX 6 10 7 -5
BITMAP
38
7C
7C
7C
3C
1C
38
38
70
E0
ENDCHAR
STARTCHAR 201B
ENCODING 8219
SWIDTH 560 0
DWIDTH 21 0
BBX 5 10 8 18
BITMAP
70
F8
F8
F8
F0
E0
E0
70
78
18
ENDCHAR
STARTCHAR 201C
ENCODING 8220
SWIDTH 560 0
DWIDTH 21 0
BBX 13 10 4 18
BITMAP
1C38
3C78
78F0
70E0
70E0
F9F0
F9F0
F9F0
78F0
3060
ENDCHAR
STARTCHAR 201D
ENCODING 8221
SWIDTH 560 0
DWIDTH 21 0
BBX 13 10 4 18
BITMAP
3870
7CF8
7CF8
7CF8
3C78
1C38
3830
3870
70E0
E1C0
ENDCHAR
STARTCHAR 201E
ENCODING 8222
SWIDTH 560 0
DWIDTH 21 0
BBX 13 10 4 -5
BITMAP
3870
7CF8
7CF8
7CF8
3C78
1C38
3830
3870
70E0
E1C0
ENDCHAR
STARTCHAR 201F
ENCODING 8223
SWIDTH 560 0
DWIDTH 21 0
BBX 13 10 4 18
BITMAP
3060
78F0
F9F0
F9F0
F9F0
70E0
70E0
78F0
3C78
1C38
ENDCHAR
STARTCHAR 2020
ENCODING 8224
SWIDTH 560 0
DWIDTH 21 0
BBX 16 28 3 0
BITMAP
0080
0380
0380
0380
0380
0380
0380
7FFF
FFFE
FFFE
0380
0380
0380
0380
0380
0380
0380
0380
0380
0380
0380
0380
0380
0380
0380
0380
0380
0200
ENDCHAR
STARTCHAR 2021
ENCODING 8225
SWIDTH 560 0
DWIDTH 21 0
BBX 16 28 3 0
BITMAP
0080
0380
0380
0380
0380
0380
0380
7FFF
FFFE
FFFE
0380
0380
0380
0380
0380
0380
0380
0380
7FFF
FFFE
FFFE
0380
0380
0380
0380
0380
0380
0200
ENDCHAR
STARTCHAR 2022
ENCODING 8226
SWIDTH 560 0
DWIDTH 21 0
BBX 11 11 5 9
BITMAP
1F00
3F80
7FC0
7FE0
FFE0
FFE0
FFE0
7FE0
7FC0
3F80
1F00
ENDCHAR
STARTCHAR 2023
ENCODING 8227
SWIDTH 560 0
DWIDTH 21 0
BBX 12 14 5 7
BITMAP
8000
E000
F800
FC00
FF00
FFC0
FFF0
FFF0
FFC0
FF80
FE00
F800
E000
8000
ENDCHAR
STARTCHAR 2024
ENCODING 8228
SWIDTH 560 0
DWIDTH 21 0
BBX 5 5 8 0
BITMAP
70
F8
F8
F8
70
ENDCHAR
STARTCHAR 2025
ENCODING 8229
SWIDTH 560 0
DWIDTH 21 0
BBX 13 5 4 0
BITMAP
7070
F878
F8F8
F878
7070
ENDCHAR
STARTCHAR 2026
ENCODING 8230
SWIDTH 560 0
DWIDTH 21 0
BBX 19 5 1 0
BITMAP
70E1C0
F8F1E0
F9F3E0
F8F1E0
70E1C0
ENDCHAR
STARTCHAR 2027
ENCODING 8231
SWIDTH 560 0
DWIDTH 21 0
BBX 5 5 8 12
BITMAP
70
F8
F8
F8
70
ENDCHAR
STARTCHAR 2030
ENCODING 8240
SWIDTH 560 0
DWIDTH 21 0
BBX 21 28 0 0
BITMAP
1E0000
7F8000
71C000
E1C020
E0C070
E1C1F0
F1C3E0
7FCFC0
3F9F00
1E3E00
00F800
01F000
07C000
0F8000
3F0000
7C0000
380000
200000
1F03E0
7F8FF0
F1DE38
E1DC38
E0DC18
E1DC38
F1DE38
7FCFF0
3F87F0
1E03C0
ENDCHAR
STARTCHAR 2031
ENCODING 8241
SWIDTH 560 0
DWIDTH 21 0
BBX 21 28 0 0
BITMAP
1E0000
7F8000
71C000
E1C020
E0C070
E1C1F0
F1C3E0
7FCFC0
3F9F00
1E3E00
00F800
01F000
07C000
0F8000
3F0000
7C0000
380000
200000
0C3870
1E7CF0
3B6DD8
336798
336798
336798
3B6FD8
1F7CF8
1E3CF0
0C3870
ENDCHAR
STARTCHAR 2032
ENCODING 8242
SWIDTH 560 0
DWIDTH 21 0
BBX 5 8 8 20
BITMAP
20
38
38
70
70
70
E0
20
ENDCHAR
STARTCHAR 2033
ENCODING 8243
SWIDTH 560 0
DWIDTH 21 0
BBX 11 8 5 20
BITMAP
20C0
38E0
78E0
71E0
71C0
F1C0
E3C0
2080
ENDCHAR
STARTCHAR 2034
ENCODING 8244
SWIDTH 560 0
DWIDTH 21 0
BBX 17 8 2 20
BITMAP
208300
38E380
71E380
71C380
71C700
E1C700
E38700
208300
ENDCHAR
STARTCHAR 2035
ENCODING 8245
SWIDTH 560 0
DWIDTH 21 0
BBX 5 8 8 20
BITMAP
20
E0
70
70
70
38
38
20
ENDCHAR
STARTCHAR 2036
ENCODING 8246
SWIDTH 560 0
DWIDTH 21 0
BBX 11 8 5 20
BITMAP
2080
E3C0
F1C0
71C0
71E0
78E0
38E0
20C0
ENDCHAR
STARTCHAR 2037
ENCODING 8247
SWIDTH 560 0
DWIDTH 21 0
BBX 17 8 2 20
BITMAP
208300
E3C700
E1C700
71C700
71C380
70E380
38E380
208300
ENDCHAR
STARTCHAR 2038
ENCODING 8248
SWIDTH 560 0
DWIDTH 21 0
BBX 15 8 3 0
BITMAP
0100
07C0
0FE0
1FF0
7C7C
F83E
700E
4004
ENDCHAR
STARTCHAR 2039
ENCODING 8249
SWIDTH 560 0
DWIDTH 21 0
BBX 10 21 6 4
BITMAP
0100
03C0
0780
0700
0E00
1E00
3C00
3800
7800
F000
E000
F000
7800
3800
3C00
1E00
0E00
0700
0780
03C0
0100
ENDCHAR
STARTCHAR 203A
ENCODING 8250
SWIDTH 560 0
DWIDTH 21 0
BBX 10 21 6 4
BITMAP
6000
E000
F000
7800
3800
1C00
1E00
0E00
0700
0780
03C0
0780
0700
0F00
1E00
1C00
3C00
7800
F000
E000
6000
ENDCHAR
STARTCHAR 203B
ENCODING 8251
SWIDTH 560 0
DWIDTH 21 0
BBX 19 20 1 4
BITMAP
00E000
00F000
11F180
79F3C0
3CE780
1E0F00
0F1E00
77BDC0
FBF9E0
F9F3E0
F9F3E0
73F9C0
07BC00
0F1E00
1E0F00
3CE780
79F3C0
19F180
01F000
00E000
ENDCHAR
STARTCHAR 203C
ENCODING 8252
SWIDTH 560 0
DWIDTH 21 0
BBX 11 28 5 0
BITMAP
1040
71C0
71C0
71C0
71C0
71C0
71C0
71C0
71C0
71C0
71C0
71C0
71C0
71C0
71C0
71C0
71C0
71C0
71C0
71C0
6180
0000
0000
71C0
F9E0
FBE0
F9E0
71C0
ENDCHAR
STARTCHAR 203D
ENCODING 8253
SWIDTH 560 0
DWIDTH 21 0
BBX 17 28 2 0
BITMAP
03F000
0FFC00
1FFE00
3DDF00
79C700
71C780
E1C380
E1C380
E1C380
81C380
01C380
01C700
01CF00
01FE00
01FC00
01F000
01C000
01C000
01C000
01C000
018000
000000
000000
01C000
03E000
03E000
03E000
01C000
ENDCHAR
STARTCHAR 203E
ENCODING 8254
SWIDTH 560 0
DWIDTH 21 0
BBX 16 3 3 25
BITMAP
7FFF
FFFE
FFFE
ENDCHAR
STARTCHAR 203F
ENCODING 8255
SWIDTH 560 0
DWIDTH 21 0
BBX 19 6 1 -6
BITMAP
300180
F803E0
7E0FC0
3FFF80
0FFF00
03F800
ENDCHAR
STARTCHAR 2040
ENCODING 8256
SWIDTH 560 0
DWIDTH 21 0
BBX 19 6 1 28
BITMAP
03F800
1FFF00
3FFF80
7E0FC0
F803E0
300180
ENDCHAR
STARTCHAR 2041
ENCODING 8257
SWIDTH 560 0
DWIDTH 21 0
BBX 14 22 4 0
BITMAP
0040
00F0
00E0
01E0
01C0
03C0
0380
0380
0780
0780
0F80
0FC0
1FC0
1DE0
3CE0
38E0
3870
7070
7078
E038
E03C
6010
ENDCHAR
STARTCHAR 2042
ENCODING 8258
SWIDTH 560 0
DWIDTH 21 0
BBX 19 20 1 4
BITMAP
002000
00E000
03F800
07FC00
01F000
07FC00
03F800
00E000
00C000
000000
000000
040100
1C0700
7F1FC0
FFBFE0
3E0F80
FFBFE0
7F1FC0
1C0700
180600
ENDCHAR
STARTCHAR 2043
ENCODING 8259
SWIDTH 560 0
DWIDTH 21 0
BBX 11 7 5 11
BITMAP
FFE0
FFE0
FFE0
FFE0
FFE0
FFE0
FFE0
ENDCHAR
STARTCHAR 2044
ENCODING 8260
SWIDTH 560 0
DWIDTH 21 0
BBX 19 42 1 -7
BITMAP
0000C0
0000E0
0000E0
0001E0
0001C0
0003C0
000380
000380
000700
000700
000F00
000E00
000E00
001C00
001C00
003C00
003800
007800
007000
007000
00F000
00E000
01E000
01C000
01C000
038000
038000
078000
070000
070000
0E0000
0E0000
1E0000
1C0000
3C0000
380000
380000
700000
700000
F00000
E00000
200000
ENDCHAR
STARTCHAR 2045
ENCODING 8261
SWIDTH 560 0
DWIDTH 21 0
BBX 10 42 8 -7
BITMAP
3FC0
FFC0
FF80
E000
E000
E000
E000
E000
E000
E000
E000
E000
E000
E000
E000
E000
E000
E000
E000
FF00
FE00
FE00
E000
E000
E000
E000
E000
E000
E000
E000
E000
E000
E000
E000
E000
E000
E000
E000
E000
FFC0
FFC0
FF80
ENDCHAR
STARTCHAR 2046
ENCODING 8262
SWIDTH 560 0
DWIDTH 21 0
BBX 10 42 8 -7
BITMAP
7FC0
7FC0
FFC0
01C0
01C0
01C0
01C0
01C0
01C0
01C0
01C0
01C0
01C0
01C0
01C0
01C0
01C0
01C0
01C0
0FC0
1FC0
1FC0
01C0
01C0
01C0
01C0
01C0
01C0
01C0
01C0
01C0
01C0
01C0
01C0
01C0
01C0
01C0
01C0
01C0
7FC0
7FC0
FF00
ENDCHAR
STARTCHAR 2047
ENCODING 8263
SWIDTH 560 0
DWIDTH 21 0
BBX 20 28 1 0
BITMAP
1C0700
3E0FC0
7F1FC0
779CE0
E3B8E0
E3B8E0
E3B860
C1B870
C1B870
01A060
038060
0380E0
0780E0
0701C0
0F03C0
0E0380
1C0700
1C0700
180700
180600
000000
000000
000000
1C0700
3E0F80
3E0F80
3E0F80
1C0700
ENDCHAR
STARTCHAR 2048
ENCODING 8264
SWIDTH 560 0
DWIDTH 21 0
BBX 15 28 3 0
BITMAP
1C06
3E0E
7F0E
738E
E38E
E38E
E18E
E18E
E18E
018E
038E
038E
038E
070E
0F0E
0E0E
1C0E
1C0E
180E
180E
000C
0000
0000
1C0C
3E1E
3E1E
3E1E
1C0C
ENDCHAR
STARTCHAR 2049
ENCODING 8265
SWIDTH 560 0
DWIDTH 21 0
BBX 15 28 3 0
BITMAP
1070
70F8
71FC
71DC
738E
738E
738E
7306
7306
7006
700E
700E
701E
701C
7038
7078
7070
7060
7060
7060
6000
0000
0000
7070
F8F8
F8F8
F8F8
7070
ENDCHAR
STARTCHAR 204A
ENCODING 8266
SWIDTH 560 0
DWIDTH 21 0
BBX 16 16 3 0
BITMAP
7FFF
FFFE
FFFE
001C
001C
003C
0038
0078
0078
0070
00F0
00E0
00E0
01E0
01C0
0300
ENDCHAR
STARTCHAR 204B
ENCODING 8267
SWIDTH 560 0
DWIDTH 21 0
BBX 12 28 5 0
BITMAP
FC00
BF00
BF80
BFC0
BFE0
BFE0
BFE0
BFF0
BFF0
BFF0
BFE0
BFE0
BFE0
BFC0
BF80
BF00
BC00
A000
A000
A000
A000
A000
A000
A000
A000
A000
A000
8000
ENDCHAR
STARTCHAR 204C
ENCODING 8268
SWIDTH 560 0
DWIDTH 21 0
BBX 12 16 5 6
BITMAP
07F0
1FD0
3FD0
7FD0
FFD0
FFD0
FFD0
FFD0
FFD0
FFD0
FFD0
7FD0
7FD0
3FD0
1FD0
07F0
ENDCHAR
STARTCHAR 204D
ENCODING 8269
SWIDTH 560 0
DWIDTH 21 0
BBX 12 16 5 6
BITMAP
FC00
BF00
BF80
BFC0
BFE0
BFE0
BFE0
BFF0
BFF0
BFF0
BFE0
BFE0
BFC0
BF80
BF00
FC00
ENDCHAR
STARTCHAR 204E
ENCODING 8270
SWIDTH 560 0
DWIDTH 21 0
BBX 15 16 3 0
BITMAP
0080
0380
0380
238C
FBBE
7FFE
3FF8
0FE0
0FE0
3FF8
7FFE
FBBE
238C
0380
0380
0200
ENDCHAR
STARTCHAR 204F
ENCODING 8271
SWIDTH 560 0
DWIDTH 21 0
BBX 6 22 7 -5
BITMAP
70
F8
F8
F8
70
00
00
00
00
00
00
00
30
78
F8
F8
F0
70
70
38
1C
04
ENDCHAR
STARTCHAR 2050
ENCODING 8272
SWIDTH 560 0
DWIDTH 21 0
BBX 15 21 3 4
BITMAP
07E0
1FF8
3FFC
783E
F01E
2008
0000
0000
0000
0000
0000
0000
0000
0000
0000
2008
F00E
783E
3FFC
1FF8
07E0
ENDCHAR
STARTCHAR 2051
ENCODING 8273
SWIDTH 560 0
DWIDTH 21 0
BBX 15 28 3 0
BITMAP
0080
0380
0380
238C
FBBE
7FFE
3FF8
0FE0
0FE0
3FF8
7FFE
FBBE
238C
0380
0380
238C
FBBE
7FFE
3FF8
0FE0
0FE0
3FF8
7FFE
FBBE
238C
0380
0380
0200
ENDCHAR
STARTCHAR 2052
ENCODING 8274
SWIDTH 560 0
DWIDTH 21 0
BBX 19 28 1 0
BITMAP
0E0080
1F01E0
1F01C0
1F03C0
0E0380
000780
000F00
000E00
001E00
001C00
003C00
007800
007000
00F000
00E000
01E000
03C000
038000
078000
070000
0F0000
1E0000
1C0000
3C0E00
380F00
781F00
F00F00
200E00
ENDCHAR
STARTCHAR 2053
ENCODING 8275
SWIDTH 560 0
DWIDTH 21 0
BBX 17 6 2 11
BITMAP
1F0080
3F8380
7FE700
71FF00
F07E00
C03C00
ENDCHAR
STARTCHAR 2054
ENCODING 8276
SWIDTH 560 0
DWIDTH 21 0
BBX 19 6 1 -6
BITMAP
03F800
1FFF00
3FFF80
7E07C0
F803E0
100000
ENDCHAR
STARTCHAR 2055
ENCODING 8277
SWIDTH 560 0
DWIDTH 21 0
BBX 15 16 3 6
BITMAP
0180
0380
0380
238C
FBBE
7FFE
3FF8
0FE0
0FE0
3FF8
7FFE
FBBE
238C
0380
0380
0300
ENDCHAR
STARTCHAR 2056
ENCODING 8278
SWIDTH 560 0
DWIDTH 21 0
BBX 12 19 5 4
BITMAP
00E0
01E0
01F0
01E0
00E0
0000
7000
F000
F800
F000
7000
0000
0000
0000
00E0
01E0
01F0
01E0
00E0
ENDCHAR
STARTCHAR 2057
ENCODING 8279
SWIDTH 560 0
DWIDTH 21 0
BBX 17 8 2 20
BITMAP
223300
7BBB80
77BB80
777380
777700
EF7700
EEF700
222300
ENDCHAR
STARTCHAR 2058
ENCODING 8280
SWIDTH 560 0
DWIDTH 21 0
BBX 19 19 1 4
BITMAP
00E000
01F000
01F000
01F000
00E000
000000
7001C0
F801E0
F803E0
F803E0
7001C0
000000
000000
000000
00E000
01F000
01F000
01F000
00E000
ENDCHAR
STARTCHAR 2059
ENCODING 8281
SWIDTH 560 0
DWIDTH 21 0
BBX 17 18 2 5
BITMAP
700300
F80780
F80780
F80780
700700
000000
01C000
03E000
03E000
03E000
01C000
000000
000000
700300
F80780
F80F80
F80780
700700
ENDCHAR
STARTCHAR 205A
ENCODING 8282
SWIDTH 560 0
DWIDTH 21 0
BBX 5 28 8 0
BITMAP
70
F8
F8
F8
70
00
00
00
00
00
00
00
00
00
00
00
00
00
00
00
00
00
00
70
F8
F8
F8
70
ENDCHAR
STARTCHAR 205B
ENCODING 8283
SWIDTH 560 0
DWIDTH 21 0
BBX 19 28 1 0
BITMAP
00E000
01F000
01F000
01F000
00E000
000000
000000
000000
000000
000000
000000
000000
7001C0
F801E0
F803E0
F803E0
7001C0
000000
000000
000000
000000
000000
000000
00E000
01F000
01F000
01F000
00E000
ENDCHAR
STARTCHAR 205C
ENCODING 8284
SWIDTH 560 0
DWIDTH 21 0
BBX 19 20 1 4
BITMAP
002000
38E3C0
7CE3C0
7CE3C0
7CE3C0
38E180
00E000
00E000
00E000
7FFFE0
7FFFE0
FFFFC0
00E000
00E000
38E180
7CE3C0
7CE7C0
7CE3C0
38E380
008000
ENDCHAR
STARTCHAR 205D
ENCODING 8285
SWIDTH 560 0
DWIDTH 21 0
BBX 5 28 8 0
BITMAP
70
F8
F8
F8
70
00
00
00
00
00
00
00
70
F8
F8
F8
70
00
00
00
00
00
00
70
F8
F8
F8
70
ENDCHAR
STARTCHAR 205E
ENCODING 8286
SWIDTH 560 0
DWIDTH 21 0
BBX 5 28 8 0
BITMAP
70
F8
F8
F8
70
00
00
00
70
F8
F8
F8
70
00
00
00
70
F8
F8
F8
70
00
00
70
F8
F8
F8
70
ENDCHAR
STARTCHAR 2070
ENCODING 8304
SWIDTH 560 0
DWIDTH 21 0
BBX 9 13 6 15
BITMAP
3E00
7F00
E780
E780
CF80
CF80
DD80
D980
F980
F180
F380
7F00
3E00
ENDCHAR
STARTCHAR 2071
ENCODING 8305
SWIDTH 560 0
DWIDTH 21 0
BBX 9 14 6 14
BITMAP
E000
F000
E000
0000
2000
E000
E000
E000
E000
E080
E180
7380
7F80
1E00
ENDCHAR
STARTCHAR 2074
ENCODING 8308
SWIDTH 560 0
DWIDTH 21 0
BBX 9 13 6 15
BITMAP
0100
0700
0700
0F00
1F00
3F00
3B00
7300
FF80
FF80
0300
0300
0200
ENDCHAR
STARTCHAR 2075
ENCODING 8309
SWIDTH 560 0
DWIDTH 21 0
BBX 9 13 6 15
BITMAP
3F80
3F00
3000
3000
7000
7E00
7F00
2380
E180
6380
7380
7F00
1E00
ENDCHAR
STARTCHAR 2076
ENCODING 8310
SWIDTH 560 0
DWIDTH 21 0
BBX 9 13 6 15
BITMAP
1E00
7F00
E380
E180
E180
FE00
FF00
E380
E180
E180
E380
7F00
3E00
ENDCHAR
STARTCHAR 2077
ENCODING 8311
SWIDTH 560 0
DWIDTH 21 0
BBX 10 13 6 15
BITMAP
FFC0
FF80
0700
0700
0E00
0E00
1C00
1C00
3800
3800
7000
E000
E000
ENDCHAR
STARTCHAR 2078
ENCODING 8312
SWIDTH 560 0
DWIDTH 21 0
BBX 9 13 6 15
BITMAP
3E00
7F00
6380
E380
7780
7F00
7F00
F380
E180
E180
E380
7F00
1E00
ENDCHAR
STARTCHAR 2079
ENCODING 8313
SWIDTH 560 0
DWIDTH 21 0
BBX 9 13 6 15
BITMAP
3E00
7F00
E380
E180
E180
E380
7F80
1F80
E180
E180
E380
7F00
1E00
ENDCHAR
STARTCHAR 207A
ENCODING 8314
SWIDTH 560 0
DWIDTH 21 0
BBX 11 11 5 16
BITMAP
0200
0E00
0E00
0E00
7FE0
7FC0
FFC0
0E00
0E00
0E00
0800
ENDCHAR
STARTCHAR 207B
ENCODING 8315
SWIDTH 560 0
DWIDTH 21 0
BBX 11 3 5 20
BITMAP
7FE0
7FC0
FFC0
ENDCHAR
STARTCHAR 207C
ENCODING 8316
SWIDTH 560 0
DWIDTH 21 0
BBX 11 9 5 17
BITMAP
7FE0
7FE0
FFC0
0000
0000
0000
7FE0
7FE0
FFC0
ENDCHAR
STARTCHAR 207D
ENCODING 8317
SWIDTH 560 0
DWIDTH 21 0
BBX 7 17 7 13
BITMAP
04
1E
3C
78
70
F0
E0
E0
E0
E0
E0
E0
70
70
38
3E
0C
ENDCHAR
STARTCHAR 207E
ENCODING 8318
SWIDTH 560 0
DWIDTH 21 0
BBX 7 16 7 14
BITMAP
F0
78
3C
1E
0E
0E
0E
0E
0E
0E
0E
1E
1C
3C
F8
70
ENDCHAR
STARTCHAR 207F
ENCODING 8319
SWIDTH 560 0
DWIDTH 21 0
BBX 9 13 6 15
BITMAP
1E00
3F00
7F00
E380
E180
E180
E180
E180
E180
E180
E180
E180
C180
ENDCHAR
STARTCHAR 2080
ENCODING 8320
SWIDTH 560 0
DWIDTH 21 0
BBX 9 13 6 0
BITMAP
3E00
7F00
E780
E780
CF80
CF80
DD80
D980
F980
F180
F380
7F00
3E00
ENDCHAR
STARTCHAR 2081
ENCODING 8321
SWIDTH 560 0
DWIDTH 21 0
BBX 5 13 7 0
BITMAP
18
38
78
F8
58
18
18
18
18
18
18
18
10
ENDCHAR
STARTCHAR 2082
ENCODING 8322
SWIDTH 560 0
DWIDTH 21 0
BBX 9 12 6 0
BITMAP
3E00
7F00
E380
E180
C380
0F80
1E00
3C00
7800
7000
FF80
FF80
ENDCHAR
STARTCHAR 2083
ENCODING 8323
SWIDTH 560 0
DWIDTH 21 0
BBX 9 12 6 0
BITMAP
7F80
FF00
0E00
0E00
1C00
3F00
1F80
6380
E380
E380
7F00
3E00
ENDCHAR
STARTCHAR 2084
ENCODING 8324
SWIDTH 560 0
DWIDTH 21 0
BBX 9 12 6 1
BITMAP
0300
0700
0F00
1F00
1F00
3B00
7300
7F80
FF80
0300
0300
0200
ENDCHAR
STARTCHAR 2085
ENCODING 8325
SWIDTH 560 0
DWIDTH 21 0
BBX 8 12 7 0
BITMAP
7F
7E
60
60
FC
FE
07
C7
C7
C7
FE
3C
ENDCHAR
STARTCHAR 2086
ENCODING 8326
SWIDTH 560 0
DWIDTH 21 0
BBX 9 13 6 0
BITMAP
1E00
7F00
E380
E180
E180
FE00
FF00
E380
E180
E180
E380
7F00
3E00
ENDCHAR
STARTCHAR 2087
ENCODING 8327
SWIDTH 560 0
DWIDTH 21 0
BBX 10 13 6 0
BITMAP
FFC0
FF80
0700
0700
0E00
0E00
1C00
1C00
3800
3000
7000
E000
8000
ENDCHAR
STARTCHAR 2088
ENCODING 8328
SWIDTH 560 0
DWIDTH 21 0
BBX 9 13 6 0
BITMAP
3E00
7F00
6380
E380
7780
7F00
7F00
F380
E180
E180
E380
7F00
1E00
ENDCHAR
STARTCHAR 2089
ENCODING 8329
SWIDTH 560 0
DWIDTH 21 0
BBX 9 13 6 0
BITMAP
3E00
7F00
E380
E180
E180
E380
7F80
1F80
E180
E180
E380
7F00
1E00
ENDCHAR
STARTCHAR 208A
ENCODING 8330
SWIDTH 560 0
DWIDTH 21 0
BBX 11 11 5 1
BITMAP
0200
0E00
0E00
0E00
7FE0
7FE0
FFC0
0E00
0E00
0E00
0C00
ENDCHAR
STARTCHAR 208B
ENCODING 8331
SWIDTH 560 0
DWIDTH 21 0
BBX 11 3 5 5
BITMAP
7FE0
7FE0
FFC0
ENDCHAR
STARTCHAR 208C
ENCODING 8332
SWIDTH 560 0
DWIDTH 21 0
BBX 11 9 5 2
BITMAP
7FE0
7FE0
FFC0
0000
0000
0000
7FE0
7FE0
FFC0
ENDCHAR
STARTCHAR 208D
ENCODING 8333
SWIDTH 560 0
DWIDTH 21 0
BBX 7 17 7 -2
BITMAP
0E
3E
38
70
F0
E0
E0
E0
E0
E0
E0
F0
70
78
3C
1E
04
ENDCHAR
STARTCHAR 208E
ENCODING 8334
SWIDTH 560 0
DWIDTH 21 0
BBX 7 16 7 -2
BITMAP
70
F8
3C
1C
1E
0E
0E
0E
0E
0E
0E
0E
1E
3C
78
70
ENDCHAR
STARTCHAR 2090
ENCODING 8336
SWIDTH 560 0
DWIDTH 21 0
BBX 9 12 6 0
BITMAP
1E00
7F00
6380
E180
E780
3F80
FD80
F180
E180
7180
7F80
1F80
ENDCHAR
STARTCHAR 2091
ENCODING 8337
SWIDTH 560 0
DWIDTH 21 0
BBX 9 12 6 0
BITMAP
1E00
7F00
6380
E180
E780
FF00
FC00
E180
E180
6380
7F00
3E00
ENDCHAR
STARTCHAR 2092
ENCODING 8338
SWIDTH 560 0
DWIDTH 21 0
BBX 9 12 6 0
BITMAP
1E00
7F00
E380
E180
E180
E180
E180
E180
E180
E380
7F00
3E00
ENDCHAR
STARTCHAR 2093
ENCODING 8339
SWIDTH 560 0
DWIDTH 21 0
BBX 10 13 6 0
BITMAP
4180
E1C0
E380
7700
3F00
3E00
1C00
3E00
3F00
7700
F380
E3C0
4180
ENDCHAR
STARTCHAR 2094
ENCODING 8340
SWIDTH 560 0
DWIDTH 21 0
BBX 9 12 6 0
BITMAP
1E00
7F00
6380
E180
C780
1F80
FD80
F180
E180
6380
7F00
1E00
ENDCHAR
STARTCHAR 20A0
ENCODING 8352
SWIDTH 560 0
DWIDTH 21 0
BBX 15 28 3 0
BITMAP
3E00
7F00
FF80
E3C0
E1C0
E1C0
E100
E000
E000
E000
E1FE
E1FE
E1FE
E1C0
E1C0
E1C0
E3C0
FFFE
7FFE
3FFE
01C0
01C0
01C0
01C0
01C0
01FE
01FE
01FE
ENDCHAR
STARTCHAR 20A1
ENCODING 8353
SWIDTH 560 0
DWIDTH 21 0
BBX 18 41 2 -7
BITMAP
006100
0071C0
007380
007380
00E380
00E380
01E700
0FFF00
1FFF00
3FDF00
79CF00
71CF00
738F80
E38F80
E39F80
E39E00
E71C00
E71C00
E73800
E73800
EE3800
EE3800
EE7000
EE7000
FC7000
FC7180
FCE380
FCE380
78E380
78E700
39CF00
3FFE00
7FFC00
77F000
738000
738000
E38000
E38000
E70000
E70000
410000
ENDCHAR
STARTCHAR 20A2
ENCODING 8354
SWIDTH 560 0
DWIDTH 21 0
BBX 17 28 2 0
BITMAP
03F000
0FF800
1FFE00
3C1E00
780F00
700780
F00380
E00380
E00380
E0F200
E3FC00
E3FC00
E79E00
E70E00
E70E00
E70800
E70000
E70000
E70000
E70380
E70380
F70380
760780
780F00
3C1F00
1FFE00
0FF800
03F000
ENDCHAR
STARTCHAR 20A3
ENCODING 8355
SWIDTH 560 0
DWIDTH 21 0
BBX 16 28 1 0
BITMAP
07FF
1FFF
1FFE
1C00
1C00
1C00
1C00
1C00
1C00
FFF0
FFF0
FFE0
1C00
1C00
1C00
FFF0
FFF0
FFE0
1C00
1C00
1C00
1C00
1C00
1C00
1C00
1C00
1C00
1000
ENDCHAR
STARTCHAR 20A4
ENCODING 8356
SWIDTH 560 0
DWIDTH 21 0
BBX 18 28 2 0
BITMAP
03E000
0FF800
1FFC00
1E1E00
3C0E00
380F00
380700
380400
380000
380000
380000
380000
7FF000
FFE000
FFE000
380000
380000
380000
7FF000
FFE000
FFE000
380000
380000
380000
380000
3FFFC0
3FFF80
3FFF80
ENDCHAR
STARTCHAR 20A5
ENCODING 8357
SWIDTH 560 0
DWIDTH 21 0
BBX 18 30 1 -5
BITMAP
000400
000700
000E00
000E00
0F1E00
1FFF00
3FFF80
79F9C0
70F9C0
70F1C0
70F1C0
70E1C0
70E1C0
71E1C0
71E1C0
73E1C0
73E1C0
77E1C0
77E1C0
77E1C0
7EE1C0
7EE1C0
7CE1C0
7CE1C0
7C8100
380000
780000
700000
F00000
200000
ENDCHAR
STARTCHAR 20A6
ENCODING 8358
SWIDTH 560 0
DWIDTH 21 0
BBX 21 28 0 0
BITMAP
0C0020
3C00E0
3E00E0
3E00E0
3F00E0
3F00E0
3F80E0
3B80E0
3BC0E0
7FFFF8
7FFFF0
FFFFF0
38F0E0
3870E0
3878E0
7FFFF8
7FFFF0
FFFFF0
381EE0
380EE0
380FE0
3807E0
3807E0
3803E0
3803E0
3801E0
3801E0
200080
ENDCHAR
STARTCHAR 20A7
ENCODING 8359
SWIDTH 560 0
DWIDTH 21 0
BBX 21 28 0 0
BITMAP
1C1000
FF3000
FF3000
F3B000
E3B000
E3BC00
E3BC00
E3BDE0
E3B3F0
E3B7F0
E3B738
E3B638
E3B638
E3B730
E3B700
E3B380
E3B3C0
F3B1E0
FF30E0
FF3070
FC3078
E03038
E03638
E03638
E03738
E037F0
E033F0
8041E0
ENDCHAR
STARTCHAR 20A8
ENCODING 8360
SWIDTH 560 0
DWIDTH 21 0
BBX 21 28 0 0
BITMAP
1F0000
FF8000
FFC000
F1C000
E1C000
E1C000
E1C000
E1C3C0
E1C7F0
E1CFF0
E1DE78
E1DC38
E1DC38
E1DE30
E1CF00
E1C780
E1C7C0
F1C3C0
FFC1E0
FF80F0
FF8078
E38078
E3DC38
E1DC38
E1DE78
E0EFF8
E0EFF0
80C3C0
ENDCHAR
STARTCHAR 20A9
ENCODING 8361
SWIDTH 560 0
DWIDTH 21 0
BBX 21 28 0 0
BITMAP
081040
3870E0
3870E0
3870E0
1C78E0
1C78E0
1C78E0
1C78C0
1CF8C0
7FFFF8
7FFFF0
FFFFF0
0EFDC0
0EDDC0
0EDDC0
7FFFF8
7FFFF0
FFFFF0
07CD80
07CF80
07CF80
07CF80
07CF80
078F80
078F00
078700
038700
020400
ENDCHAR
STARTCHAR 20AA
ENCODING 8362
SWIDTH 560 0
DWIDTH 21 0
BBX 17 28 2 0
BITMAP
3E0180
FF0380
FFC380
E3C380
E1E380
E0E380
E07380
E07380
E07380
E07380
E07380
E07380
E06380
E00380
E00380
E30380
E70380
E70380
E70380
E70380
E70380
E38380
E38380
E3C380
E1E380
E0FF80
E07F80
C01F00
ENDCHAR
STARTCHAR 20AB
ENCODING 8363
SWIDTH 560 0
DWIDTH 21 0
BBX 17 34 3 -6
BITMAP
000200
000E00
000E00
03FF80
07FF80
07FF80
000E00
07CE00
1FFE00
3FFE00
3C3E00
781E00
701E00
700E00
700E00
700E00
700E00
700E00
700E00
700E00
700E00
700E00
701E00
781C00
3C3C00
3FF800
1FF000
07C000
000000
000000
000000
7FFF00
FFFE00
FFFE00
ENDCHAR
STARTCHAR 20AC
ENCODING 8364
SWIDTH 560 0
DWIDTH 21 0
BBX 18 28 2 0
BITMAP
01F000
07FC00
0FFF00
1E0F00
3C0780
380380
3801C0
7001C0
7001C0
700180
FFC000
FFC000
FF8000
700000
700000
FFC000
FFC000
FF8000
7000C0
7001C0
7001C0
3801C0
380380
3C0780
1E0F00
0FFF00
07FC00
01F000
ENDCHAR
STARTCHAR 20AD
ENCODING 8365
SWIDTH 560 0
DWIDTH 21 0
BBX 18 28 2 0
BITMAP
180300
380380
380700
380F00
381E00
383C00
387800
38F000
38E000
39C000
3BC000
3F8000
FFFE00
FFFE00
FFFC00
3F8000
3BC000
39E000
39E000
38F000
387800
383C00
383E00
381E00
380F00
380780
3803C0
200300
ENDCHAR
STARTCHAR 20AE
ENCODING 8366
SWIDTH 560 0
DWIDTH 21 0
BBX 19 28 1 0
BITMAP
7FFFE0
FFFFE0
FFFFC0
00E000
00E000
00E000
00E000
00E400
00EF00
00FE00
00FC00
00F800
00F000
01E600
03EF00
07FE00
1EFC00
04F800
00F000
01E000
03E000
07E000
0FE000
06E000
00E000
00E000
00E000
008000
ENDCHAR
STARTCHAR 20AF
ENCODING 8367
SWIDTH 560 0
DWIDTH 21 0
BBX 21 36 0 -8
BITMAP
078000
0FE000
1FF000
1FF000
3F7800
3F3800
171C00
061C00
061C00
061C00
060C00
060C00
0E0C00
0E0C20
0E0CF0
0E0CF8
0E1DF8
0C1DD8
0C1D98
6C1D98
7C1998
FC3B98
FC3B98
DE7BB8
FFF3F8
FFF3F0
73E3F0
71C360
000300
000300
000700
000700
000700
000600
000600
000200
ENDCHAR
STARTCHAR 20B0
ENCODING 8368
SWIDTH 560 0
DWIDTH 21 0
BBX 21 28 0 0
BITMAP
007E00
01FF00
03FF80
03C3C0
0781C0
0700E0
0700E0
0700E0
0701E0
0781C0
03C3C0
01FF80
00FF80
387FC0
7FFBE0
EFE0F0
678070
200070
000038
000038
000038
000078
000070
0000F0
0001E0
001FC0
001F80
001E00
ENDCHAR
STARTCHAR 20B1
ENCODING 8369
SWIDTH 560 0
DWIDTH 21 0
BBX 21 28 0 0
BITMAP
0FFC00
3FFE00
3FFF00
380780
7FFFF8
7FFFF0
FFFFF0
3800E0
3800E0
3800E0
7FFFF8
7FFFF0
FFFFF0
3807C0
3FFF80
3FFE00
3FFC00
380000
380000
380000
380000
380000
380000
380000
380000
380000
380000
200000
ENDCHAR
STARTCHAR 20B2
ENCODING 8370
SWIDTH 560 0
DWIDTH 21 0
BBX 17 41 2 -6
BITMAP
004000
01C000
01C000
01C000
01C000
01C000
01C000
07F800
1FFC00
3FFE00
7DCF00
79C700
71C380
F1C380
E1C380
E1C300
E1C000
E1C000
E1C000
E1CF80
E1CF80
E1CF80
E1C380
E1C380
E1C380
E1C380
E1C380
E1C380
71C380
71C700
79CF00
3DFE00
1FFC00
07F800
01C000
01C000
01C000
01C000
01C000
01C000
010000
ENDCHAR
STARTCHAR 20B3
ENCODING 8371
SWIDTH 560 0
DWIDTH 21 0
BBX 21 28 0 0
BITMAP
001000
007800
00F800
00F800
00FC00
01FC00
01DC00
01CE00
038E00
7FFFF8
7FFFF0
FFFFF0
070700
070780
070380
7FFFF8
7FFFF0
FFFFF0
1C01C0
1C01C0
1C00E0
3800E0
3800E0
3800F0
380070
700070
700070
300020
ENDCHAR
STARTCHAR 20B4
ENCODING 8372
SWIDTH 560 0
DWIDTH 21 0
BBX 19 28 1 0
BITMAP
00F800
03FE00
07FF00
0F0F00
0E0780
1C0380
1C0380
0C0380
000380
7FFFE0
FFFFE0
FFFFC0
03FE00
0FF800
1F8000
7FFFE0
FFFFE0
FFFFC0
700000
7001C0
7001C0
7001C0
3803C0
3C0780
1E0F80
0FFF00
07FE00
01F800
ENDCHAR
STARTCHAR 20B5
ENCODING 8373
SWIDTH 560 0
DWIDTH 21 0
BBX 17 40 2 -7
BITMAP
00C000
01C000
01C000
01C000
01C000
01C000
03F000
0FFC00
1FFE00
3DDF00
79C700
71C780
F1C380
E1C380
E1C380
E1C200
E1C000
E1C000
E1C000
E1C000
E1C000
E1C000
E1C000
E1C000
E1C080
E1C380
E1C380
F1C380
71C780
79C700
3DDF00
1FFE00
0FF800
03F000
01C000
01C000
01C000
01C000
01C000
01C000
ENDCHAR
STARTCHAR 20B9
ENCODING 8377
SWIDTH 560 0
DWIDTH 21 0
BBX 21 28 0 0
BITMAP
7FFFF8
7FFFF0
FFFFF0
003C00
001E00
000E00
7FFFF8
7FFFF0
FFFFF0
000E00
000E00
000E00
000E00
061E00
0FFC00
07F800
03E000
01E000
00F000
007800
003C00
001E00
000F00
000780
0003C0
0001E0
0000F0
000040
ENDCHAR
STARTCHAR 2100
ENCODING 8448
SWIDTH 560 0
DWIDTH 21 0
BBX 19 28 1 0
BITMAP
1E0000
7F0000
738000
E18000
E38000
8F8000
7F8000
F98040
E180E0
7183E0
7F87C0
1F9F00
003E00
00FC00
01F000
03E000
0F8780
1F1FC0
7E38E0
F83860
703860
403800
003820
003860
0038E0
003FE0
001FC0
000F80
ENDCHAR
STARTCHAR 2101
ENCODING 8449
SWIDTH 560 0
DWIDTH 21 0
BBX 19 28 1 0
BITMAP
1E0000
7F0000
738000
E18000
C38000
0F8000
7F8040
F980E0
E183E0
7187C0
7F8F80
1FBE00
007C00
00F800
01E000
07CF00
0F9F80
1F19C0
7C18C0
F81C00
701F80
400FC0
0000E0
001860
003860
0018E0
001FC0
000780
ENDCHAR
STARTCHAR 2102
ENCODING 8450
SWIDTH 560 0
DWIDTH 21 0
BBX 18 28 2 0
BITMAP
00FC00
07FF80
0F03C0
1E00C0
3E0000
360000
660000
660000
660000
C60000
C60000
C60000
C60000
C60000
C60000
C60000
C60000
C60000
C60000
660000
660000
660000
360000
3E0000
1E00C0
0F03C0
07FF80
00FC00
ENDCHAR
STARTCHAR 2103
ENCODING 8451
SWIDTH 560 0
DWIDTH 21 0
BBX 21 28 0 0
BITMAP
1E07C0
3F0FE0
739FF0
E19C70
E1F870
E1F838
73B820
3F3800
1E3800
003800
003800
003800
003800
003800
003800
003800
003800
003800
003800
003800
003800
003808
003838
003870
001C70
001FF0
000FE0
0007C0
ENDCHAR
STARTCHAR 2104
ENCODING 8452
SWIDTH 560 0
DWIDTH 21 0
BBX 17 28 3 0
BITMAP
010000
070000
070000
0FC000
3FE000
7FF000
7F7800
F73800
E71C00
E71C00
E71800
E70000
E70000
E70000
E70000
E70400
E71C00
E71C00
E73C00
F73800
7FF800
7FF000
1FE000
0F8000
070000
07FF80
07FF00
07FF00
ENDCHAR
STARTCHAR 2105
ENCODING 8453
SWIDTH 560 0
DWIDTH 21 0
BBX 19 28 1 0
BITMAP
1E0000
3F8000
738000
61C000
61C000
610000
604040
61C0E0
71C3E0
7F87C0
3F9F00
1E3E00
00FC00
01F000
03E000
0F8000
1F0F00
7E3F80
F839C0
7070C0
4070C0
0070C0
0070C0
0070C0
0070C0
0039C0
003F80
000F00
ENDCHAR
STARTCHAR 2106
ENCODING 8454
SWIDTH 560 0
DWIDTH 21 0
BBX 19 28 1 0
BITMAP
1E0000
3F8000
738000
61C000
618000
600040
60C0E0
61C3E0
71C7C0
7F8F80
3FBE00
1E7C00
00F800
01E000
07C000
0F9040
1F30C0
7C30C0
F830C0
7030C0
4030C0
0030C0
0030C0
0030C0
0039C0
003FC0
001F80
000F00
ENDCHAR
STARTCHAR 2107
ENCODING 8455
SWIDTH 560 0
DWIDTH 21 0
BBX 17 28 2 0
BITMAP
03FC00
0FFF00
1FFF00
3E0300
780000
780000
780000
700000
780000
780000
380000
1E0000
0FF800
07F800
1FF800
3E0000
780000
700000
700000
F00000
700000
700000
700000
780000
3E0380
1FFF80
0FFF80
03FC00
ENDCHAR
STARTCHAR 2108
ENCODING 8456
SWIDTH 560 0
DWIDTH 21 0
BBX 17 28 2 0
BITMAP
0FC000
7FF000
FFF800
F07C00
C01C00
800E00
000E00
000700
000700
000700
000700
000380
000380
1FFF80
1FFF80
1FFF80
000380
000380
000700
000700
000700
000F00
800E00
C01E00
F07C00
FFF800
7FF000
0FC000
ENDCHAR
STARTCHAR 2109
ENCODING 8457
SWIDTH 560 0
DWIDTH 21 0
BBX 20 28 0 0
BITMAP
1E0FF0
7F3FE0
73BFE0
E1B800
E1F800
61B800
73B800
3F3800
1E3800
003800
003800
003800
003FF0
003FE0
003FE0
003800
003800
003800
003800
003800
003800
003800
003800
003800
003800
003800
003800
002000
ENDCHAR
STARTCHAR 210A
ENCODING 8458
SWIDTH 560 0
DWIDTH 21 0
BBX 20 25 1 -9
BITMAP
03EE00
0E3E00
0C1E00
1C1E00
381E00
381E00
381C00
381C00
381C00
381C00
381C00
383C00
183800
0C7800
07FFE0
007830
01B810
067000
0C7000
18F000
21E000
43C000
878000
BF0000
F80000
ENDCHAR
STARTCHAR 210B
ENCODING 8459
SWIDTH 560 0
DWIDTH 21 0
BBX 21 28 0 0
BITMAP
07C038
1F8038
318048
218080
618080
418080
418080
418180
618100
618100
418100
018100
01FF00
01FF00
018300
018300
018300
018300
018300
018300
010300
010300
030100
C20100
C20190
E40190
7801E0
7000E0
ENDCHAR
STARTCHAR 210C
ENCODING 8460
SWIDTH 560 0
DWIDTH 21 0
BBX 21 33 0 -5
BITMAP
002040
007880
00FF00
017E00
031C00
060000
060000
0E0000
0E0380
0E0FE0
0E1FF0
0E30F0
0F6070
074078
078038
038038
038038
038038
01C038
01C038
00C038
00C038
008038
198038
3D0030
7E0030
4E0030
840030
000060
000440
0004C0
000F80
000E00
ENDCHAR
STARTCHAR 210D
ENCODING 8461
SWIDTH 560 0
DWIDTH 21 0
BBX 18 28 2 0
BITMAP
F80FC0
F80FC0
880CC0
880CC0
880CC0
880CC0
880CC0
880CC0
880CC0
880CC0
880CC0
880CC0
8FFCC0
8FFCC0
880CC0
880CC0
880CC0
880CC0
880CC0
880CC0
880CC0
880CC0
880CC0
880CC0
880CC0
880CC0
F80FC0
F80FC0
ENDCHAR
STARTCHAR 210E
ENCODING 8462
SWIDTH 560 0
DWIDTH 21 0
BBX 18 28 1 0
BITMAP
070000
070000
0E0000
0E0000
0E0000
0E0000
0E0000
0E0000
1C3E00
1CFF80
1DFF80
1F83C0
1F01C0
3E01C0
3C01C0
3801C0
3801C0
380380
380380
780380
700380
700380
700780
700700
700700
E00700
E00700
E00700
ENDCHAR
STARTCHAR 210F
ENCODING 8463
SWIDTH 560 0
DWIDTH 21 0
BBX 18 28 1 0
BITMAP
070000
070000
070400
0E3C00
0FF000
0FC000
3E0000
FE0000
DE3E00
1CFF80
1DFF80
1F83C0
1F03C0
1E01C0
3C01C0
3801C0
3801C0
3803C0
380380
380380
700380
700380
700380
700780
700700
F00700
E00700
E00700
ENDCHAR
STARTCHAR 2110
ENCODING 8464
SWIDTH 560 0
DWIDTH 21 0
BBX 13 26 4 0
BITMAP
03F8
1C60
6060
C060
C060
C060
E060
C060
0060
0060
0060
0060
0060
0060
0060
0060
0060
0060
0060
00E0
00C0
00C0
C180
E300
FE00
7C00
ENDCHAR
STARTCHAR 2111
ENCODING 8465
SWIDTH 560 0
DWIDTH 21 0
BBX 17 29 2 -1
BITMAP
0F8000
3FE100
3FFE00
C3FC00
00F900
000200
000600
000E00
000E00
000E00
000E00
000E00
000F00
000F00
000F00
000780
000780
000380
000380
000380
000300
000300
000600
3C0600
7E0C00
FF9800
0FF800
07F000
01C000
ENDCHAR
STARTCHAR 2112
ENCODING 8466
SWIDTH 560 0
DWIDTH 21 0
BBX 18 28 2 0
BITMAP
01F000
023800
061800
041800
041800
0C0000
0C0000
0C0000
0C0000
0C0000
0C0000
0C0000
0C0000
0C0000
0C0000
0C0000
180000
180000
180080
100040
200040
7C0040
7F0080
CF8080
83E180
81FF00
807F00
001C00
ENDCHAR
STARTCHAR 2113
ENCODING 8467
SWIDTH 560 0
DWIDTH 21 0
BBX 12 28 3 0
BITMAP
00E0
01F0
03B0
0330
0730
0770
0670
0E70
0E60
0EE0
0CE0
0CE0
1DC0
1DC0
1D80
1B80
1B00
1F00
1E00
1E00
1C00
1C00
1800
3800
3C00
7C60
EFC0
0780
ENDCHAR
STARTCHAR 2114
ENCODING 8468
SWIDTH 560 0
DWIDTH 21 0
BBX 25 29 1 -1
BITMAP
38E00000
38E00000
38E00000
FFFFFE00
FFFFFE00
38E00000
38E00000
38E1F000
38E7FC00
38EFFE00
38EE1E00
38F80F00
38F80700
38F00780
38F00380
38F00380
38F00380
38E00380
38E00380
38F00380
38F00380
38F00380
38F00780
38F80700
38F80F00
38EE1E00
38EFFE00
38E7FC00
38E1F000
ENDCHAR
STARTCHAR 2115
ENCODING 8469
SWIDTH 560 0
DWIDTH 21 0
BBX 17 28 2 0
BITMAP
FC0080
FE0080
C20080
E20080
E30080
F10080
D18080
D08080
D88080
C8C080
CC4080
C46080
C42080
C63080
C23080
C31080
C11880
C18880
C18C80
C08C80
C0C480
C04680
C06280
C06380
C02180
C03180
C01F80
C01F80
ENDCHAR
STARTCHAR 2116
ENCODING 8470
SWIDTH 560 0
DWIDTH 21 0
BBX 21 28 0 0
BITMAP
380300
380700
3C0F00
3C0C00
3C0C00
3C0C00
360C00
360C00
360C00
370C00
330C60
330C70
338CF8
318CD8
318C98
318C88
30CC88
30CC98
30CCD8
30ECD8
306CF8
306C70
307C60
303C00
703C00
F03C00
E01CF8
C01CF8
ENDCHAR
STARTCHAR 2117
ENCODING 8471
SWIDTH 560 0
DWIDTH 21 0
BBX 21 21 0 3
BITMAP
00FC00
070700
0C0180
180040
31F860
21FE30
618E10
418710
418718
C18E18
C1FE18
C1F818
418018
418018
618010
218030
310020
180040
0C0180
070300
01FC00
ENDCHAR
STARTCHAR 2118
ENCODING 8472
SWIDTH 560 0
DWIDTH 21 0
BBX 19 28 1 -8
BITMAP
020000
060000
040780
0C0FC0
081FC0
1839E0
1860E0
18C0E0
1980E0
1B0060
1F00E0
1E00E0
0C00C0
1E00C0
1E00C0
3E0180
370180
670300
673E00
633C00
430000
C30000
C30000
E30000
E30000
660000
7C0000
3C0000
ENDCHAR
STARTCHAR 2119
ENCODING 8473
SWIDTH 560 0
DWIDTH 21 0
BBX 17 28 2 0
BITMAP
FFF800
FFFE00
C41F00
C41B00
C41980
C41980
C41980
C41880
C41980
C41980
C41980
C41980
C41B00
C41F00
C7FE00
C7F800
C40000
C40000
C40000
C40000
C40000
C40000
C40000
C40000
C40000
C40000
FC0000
FC0000
ENDCHAR
STARTCHAR 211A
ENCODING 8474
SWIDTH 560 0
DWIDTH 21 0
BBX 17 32 2 -4
BITMAP
03E000
0FF800
1C1C00
3C0E00
3C0E00
6C0B00
6C0900
4C0980
CC0980
CC0880
CC0880
8C0880
8C0880
8C0880
8C0880
8C0880
8C0880
CC0880
CC0880
CC0980
4C0980
6C0900
6C0B00
3C0E00
3C0E00
1C1C00
0FF800
03F800
003800
001C00
001E00
000E00
ENDCHAR
STARTCHAR 211B
ENCODING 8475
SWIDTH 560 0
DWIDTH 21 0
BBX 21 28 0 0
BITMAP
002000
03FE00
0C6180
1860C0
306060
606060
606060
606060
606060
606060
606060
0060C0
0060C0
006180
006700
007C00
006C00
006600
006600
004600
004300
00C300
00C380
008180
C181C8
E301C8
FE00F0
780060
ENDCHAR
STARTCHAR 211C
ENCODING 8476
SWIDTH 560 0
DWIDTH 21 0
BBX 20 29 1 -1
BITMAP
3C0700
7E1F80
7F7F80
C7E380
C781C0
838180
838180
838180
838300
838300
838200
438400
738E00
339F00
03FF00
03E700
038780
038380
038380
038380
038380
838380
838380
838380
C303A0
4703F0
6703C0
3E0180
1C0100
ENDCHAR
STARTCHAR 211D
ENCODING 8477
SWIDTH 560 0
DWIDTH 21 0
BBX 19 28 2 0
BITMAP
FFF000
FFFC00
CC1E00
CC1600
CC1300
CC1300
CC1100
CC1100
CC1100
CC1300
CC1300
CC1300
CC1600
CC1E00
CFF800
CFFC00
CCCC00
CC6600
CC6200
CC2300
CC3300
CC1100
CC1980
CC1880
CC0880
CC0CC0
FC0FC0
FC07E0
ENDCHAR
STARTCHAR 211E
ENCODING 8478
SWIDTH 560 0
DWIDTH 21 0
BBX 17 28 3 0
BITMAP
3E0000
FF0000
FF8000
E38000
E1C000
E1C000
E1C000
E1C200
E1C780
E1C700
E1CF00
E38E00
FF8E00
FFDC00
FDDC00
E0F800
E0F800
E07000
E0F800
E0F800
E1FC00
E1DC00
E39E00
E38E00
E70F00
E70700
EF0780
820200
ENDCHAR
STARTCHAR 211F
ENCODING 8479
SWIDTH 560 0
DWIDTH 21 0
BBX 18 36 1 -4
BITMAP
020000
03C000
01F000
007C00
1FF800
7FFC00
7FFE00
703F00
707780
706380
7061C0
70E1C0
70C1C0
70C1C0
71C1C0
718380
718780
730F00
7FFF00
7FFC00
7FF800
763C00
761C00
7C1E00
7C0E00
7C0F00
780700
780780
780780
7003C0
7003C0
600100
600000
600000
C00000
400000
ENDCHAR
STARTCHAR 2120
ENCODING 8480
SWIDTH 560 0
DWIDTH 21 0
BBX 21 13 0 15
BITMAP
1C3018
7F7038
637838
637878
707878
7E7CF8
1F7CF8
03FEF8
61FFF8
E1FFF8
63F7B8
7F77B8
1E7338
ENDCHAR
STARTCHAR 2121
ENCODING 8481
SWIDTH 560 0
DWIDTH 21 0
BBX 21 21 0 0
BITMAP
FFC000
FFC000
FFC000
0DFF80
0DFF80
0DFF80
0D8380
0D8380
0D8380
0D8380
0DFF80
0DFF80
0DFF80
0D8380
0D8380
0D8380
0D8380
0D8380
0DFFF8
0DFFF8
0DFFF8
ENDCHAR
STARTCHAR 2122
ENCODING 8482
SWIDTH 560 0
DWIDTH 21 0
BBX 20 13 0 15
BITMAP
7FB010
FF7030
1C7070
1C7870
1C78F0
1C78F0
1C7CF0
1C7DF0
1C7FB0
1C7FB0
1C77B0
1C7730
187730
ENDCHAR
STARTCHAR 2123
ENCODING 8483
SWIDTH 560 0
DWIDTH 21 0
BBX 19 36 1 -4
BITMAP
030000
03C000
01F800
007800
201840
E018E0
E030E0
7030E0
7031C0
7061C0
7861C0
3863C0
38C380
3CC380
1DC380
1D8700
1D8700
0F8700
0F0E00
0F0E00
070E00
071C00
071C00
0F9C00
0FB800
1FB800
1BF800
19F000
39F000
31F000
30F000
608000
600000
600000
C00000
400000
ENDCHAR
STARTCHAR 2124
ENCODING 8484
SWIDTH 560 0
DWIDTH 21 0
BBX 19 28 1 0
BITMAP
7FFFE0
7FFFE0
000840
0018C0
0010C0
003180
002180
006300
006300
00C600
00C600
018C00
018C00
031800
031800
063000
063000
0C6000
0C6000
18C000
18C000
108000
318000
210000
630000
420000
FFFFE0
FFFFE0
ENDCHAR
STARTCHAR 2125
ENCODING 8485
SWIDTH 560 0
DWIDTH 21 0
BBX 17 37 2 -9
BITMAP
3FFE00
3FFE00
3FFE00
001E00
003C00
00F000
01E000
03C000
070000
1FFE00
1FFE00
1FFE00
001E00
003C00
00F800
01F000
03E000
078000
1F0000
1FE000
1FF800
1FFC00
003E00
000F00
000700
000780
000780
000780
000780
000780
000780
000700
800F00
E03E00
FFFE00
FFF800
1FE000
ENDCHAR
STARTCHAR 2126
ENCODING 8486
SWIDTH 560 0
DWIDTH 21 0
BBX 19 28 1 0
BITMAP
01F800
07FC00
0FFF00
1E0F00
3C0780
3803C0
7801C0
7001C0
7001C0
7001C0
7001C0
7001C0
7001C0
7001C0
7001C0
7001C0
3803C0
3C0380
1E0F80
0F1F00
071E00
071C00
071C00
071C00
071C00
7F1FE0
7F1FE0
FF1FC0
ENDCHAR
STARTCHAR 2127
ENCODING 8487
SWIDTH 560 0
DWIDTH 21 0
BBX 19 28 1 0
BITMAP
7F1FE0
7F1FE0
FF1FC0
071C00
071C00
071C00
071C00
071E00
0F1F00
1E0F80
3C0380
3803C0
7001C0
7001C0
7001C0
7001C0
7001C0
7001C0
7001C0
7001C0
7001C0
7801C0
3803C0
3C0780
1E0F00
0FFF00
07FE00
01F800
ENDCHAR
STARTCHAR 2128
ENCODING 8488
SWIDTH 560 0
DWIDTH 21 0
BBX 19 36 0 -7
BITMAP
040000
0C0000
0FFF00
1FFF00
1FFF80
0F0780
000380
000380
000300
000300
000600
000400
000C00
001800
003000
00FF00
01FFC0
0307E0
0003E0
0001E0
0001E0
0000E0
0000E0
0000E0
0000E0
0000E0
0000E0
0000C0
0001C0
1E01C0
7E0180
9E0380
0E0300
0E0600
0E1800
0FE000
ENDCHAR
STARTCHAR 2129
ENCODING 8489
SWIDTH 560 0
DWIDTH 21 0
BBX 13 21 4 0
BITMAP
7C00
FE00
FF00
0700
0700
0700
0700
0700
0700
0700
0700
0700
0700
0700
0700
0700
0700
0700
07F8
07F8
07F8
ENDCHAR
STARTCHAR 212A
ENCODING 8490
SWIDTH 560 0
DWIDTH 21 0
BBX 16 28 4 0
BITMAP
600C
E00E
E01C
E03C
E078
E0F0
E1E0
E1C0
E3C0
E780
EF00
FE00
FC00
F800
FC00
FC00
FE00
EF00
E780
E3C0
E1E0
E1F0
E0F0
E078
E03C
E01E
E00F
800C
ENDCHAR
STARTCHAR 212B
ENCODING 8491
SWIDTH 560 0
DWIDTH 21 0
BBX 19 38 1 0
BITMAP
00F000
03FC00
07FE00
0F0F00
0E0700
0E0700
0E0700
0E0700
0E0700
0F9E00
07FE00
03FC00
01F000
01F000
01F800
01F800
03B800
03BC00
039C00
071C00
071C00
070E00
0E0E00
0E0E00
0E0700
1C0700
1FFF00
1FFF80
3FFF80
380380
3801C0
7801C0
7001C0
7001C0
7000E0
E000E0
E000E0
600040
ENDCHAR
STARTCHAR 212C
ENCODING 8492
SWIDTH 560 0
DWIDTH 21 0
BBX 20 28 0 0
BITMAP
004000
03FE00
0CC780
18C1C0
30C0C0
60C0C0
60C0C0
40C0C0
E0C0C0
E0C080
60C180
40C300
00C600
00FF80
00C1C0
00C0E0
00C060
008060
008070
018070
018060
010060
010060
030040
0600C0
0C0380
3FFE00
3FF800
ENDCHAR
STARTCHAR 212D
ENCODING 8493
SWIDTH 560 0
DWIDTH 21 0
BBX 18 29 2 0
BITMAP
000200
000E00
003F00
006700
07E7C0
09C380
31E000
71E000
61E000
60E000
E0E000
E0E000
E0E000
E0E000
E0E000
E1C000
E38000
E60000
E00000
F00000
700000
780000
780000
3C0000
3F0040
1FC180
0FFF00
07FE00
01FC00
ENDCHAR
STARTCHAR 212E
ENCODING 8494
SWIDTH 560 0
DWIDTH 21 0
BBX 20 22 1 0
BITMAP
01F800
060E00
180300
300180
2000C0
6000C0
E000E0
E000E0
E000E0
E000F0
FFFFF0
E00000
E00000
E00000
E00000
600000
600000
200000
300080
180100
060600
01F800
ENDCHAR
STARTCHAR 212F
ENCODING 8495
SWIDTH 560 0
DWIDTH 21 0
BBX 17 21 2 0
BITMAP
00FC00
03FF00
0F0780
1E0380
1C0380
3C0380
380380
780780
700F80
701F00
F0FE00
FFF800
FFC000
F00000
F00000
F00000
F00600
700C00
3C3C00
3FF000
0FC000
ENDCHAR
STARTCHAR 2130
ENCODING 8496
SWIDTH 560 0
DWIDTH 21 0
BBX 17 28 2 0
BITMAP
00F800
030E00
060600
0C0700
0C0700
1C0E00
1C0C00
1C0000
0C0000
0C0000
060000
038000
01F800
0F8000
1C0000
380000
700000
700000
600000
E00000
E00000
E00000
700100
700180
700380
380700
1E0C00
07F000
ENDCHAR
STARTCHAR 2131
ENCODING 8497
SWIDTH 560 0
DWIDTH 21 0
BBX 21 28 0 0
BITMAP
000800
03F808
0C3F88
181FF0
3018F0
201800
601800
601800
601800
701800
701800
201800
001800
03FF80
001800
001800
001800
001800
001800
001800
001800
003000
003000
606000
E06000
F1C000
7F8000
3E0000
ENDCHAR
STARTCHAR 2132
ENCODING 8498
SWIDTH 560 0
DWIDTH 21 0
BBX 14 28 4 0
BITMAP
000C
001C
001C
001C
001C
001C
001C
001C
001C
001C
001C
001C
7FFC
FFFC
FFFC
001C
001C
001C
001C
001C
001C
001C
001C
001C
001C
7FFC
FFFC
FFF0
ENDCHAR
STARTCHAR 2133
ENCODING 8499
SWIDTH 560 0
DWIDTH 21 0
BBX 21 28 0 0
BITMAP
180000
3C0030
7E0078
6E00D8
4701C0
4701C0
4703C0
0782C0
0582C0
0584C0
05C4C0
04C4C0
04CCC0
04C8C0
04C8C0
04E8C0
0478C0
0478C0
0470C0
0470C0
0470C0
0470C0
0C70C0
4870C8
E870C8
F830D0
7030F0
702060
ENDCHAR
STARTCHAR 2134
ENCODING 8500
SWIDTH 560 0
DWIDTH 21 0
BBX 12 15 5 0
BITMAP
0F00
38C0
7060
6060
E070
E070
C070
C070
C070
C070
C0E0
C0E0
61C0
2380
1F00
ENDCHAR
STARTCHAR 2135
ENCODING 8501
SWIDTH 560 0
DWIDTH 21 0
BBX 19 28 1 -1
BITMAP
400400
600600
E00600
F00F00
780780
7807C0
3C03C0
1E01E0
1F01E0
0F01E0
078240
07C640
0BEC00
11E800
30F000
20F800
607C00
703C00
781E00
781F00
3C0F80
3E0780
1E03C0
0E03E0
0E01E0
1E00E0
3E0060
7C0040
ENDCHAR
STARTCHAR 2136
ENCODING 8502
SWIDTH 560 0
DWIDTH 21 0
BBX 19 29 1 0
BITMAP
200000
200000
3FFF80
3FFF80
3FFFC0
1FFFC0
0000C0
0000C0
0000C0
0000C0
0000C0
0000C0
0000C0
0000C0
0000C0
0000C0
0000C0
0000C0
0000C0
0000C0
0000C0
0000C0
0000C0
0000C0
3FFFE0
3FFFE0
7FFFC0
FFFFC0
FFFF80
ENDCHAR
STARTCHAR 2137
ENCODING 8503
SWIDTH 560 0
DWIDTH 21 0
BBX 13 30 4 -1
BITMAP
2000
3000
3FF8
3FF8
3FF8
1FF8
0030
0030
0030
0030
0030
0030
0030
0030
0030
0030
0030
0030
0038
0038
0038
0038
0038
0038
1FF8
3FF8
7FF8
FFD8
FF98
0010
ENDCHAR
STARTCHAR 2138
ENCODING 8504
SWIDTH 560 0
DWIDTH 21 0
BBX 19 29 1 0
BITMAP
800000
C00000
FFFFC0
FFFFE0
FFFFE0
7FFFC0
000080
000080
000080
000080
000080
000080
000080
000080
0000C0
0000C0
0000C0
0000C0
0000C0
0000C0
0000C0
0000C0
0000C0
0000C0
0000C0
0000C0
0000C0
0000C0
0000C0
ENDCHAR
STARTCHAR 2139
ENCODING 8505
SWIDTH 560 0
DWIDTH 21 0
BBX 11 28 5 0
BITMAP
0E00
1F00
3F00
3F80
3F00
1F00
0E00
0000
0000
FF80
FF80
1F80
1F80
1F80
1F80
1F80
1F80
1F80
1F80
1F80
1F80
1F80
1F80
1F80
1F80
1F80
FFE0
FFE0
ENDCHAR
STARTCHAR 213A
ENCODING 8506
SWIDTH 560 0
DWIDTH 21 0
BBX 21 18 0 6
BITMAP
000010
000018
03FC38
0FFF78
3FFFF0
3C07E0
7807C0
700FC0
E00FE0
E00EE0
E004E0
E000C0
7001C0
7803C0
3C0780
3FFF00
0FFE00
03F800
ENDCHAR
STARTCHAR 213B
ENCODING 8507
SWIDTH 560 0
DWIDTH 21 0
BBX 20 21 1 0
BITMAP
FC0000
FC0000
FC0000
C00000
C18C30
C18670
C3C660
C3C760
FFC3C0
FFC3C0
FFC3C0
C76180
C66180
C663C0
C7E3C0
C7E3C0
CFF6E0
CC3660
CC3660
CC3C30
CC3C30
ENDCHAR
STARTCHAR 213C
ENCODING 8508
SWIDTH 560 0
DWIDTH 21 0
BBX 19 21 1 0
BITMAP
3FFFC0
7FFFC0
CC9900
CC9900
CC9900
0C9900
0C9900
0C9900
0C9900
0C9900
0C9900
0C9900
0C9900
0C9900
0C9900
0C9900
0C89A0
0C89E0
0C8CE0
0F8FE0
0F87E0
ENDCHAR
STARTCHAR 213D
ENCODING 8509
SWIDTH 560 0
DWIDTH 21 0
BBX 20 28 1 -8
BITMAP
3F0030
FF8060
C6C060
836060
0370C0
0130C0
019080
009980
009980
00C980
00CB00
004F00
004F00
004F00
006700
006600
006600
006600
002600
002600
002600
002600
002600
002600
002600
002600
003E00
003E00
ENDCHAR
STARTCHAR 213E
ENCODING 8510
SWIDTH 560 0
DWIDTH 21 0
BBX 17 28 3 0
BITMAP
FFFF80
FFFF80
840000
840000
840000
840000
840000
840000
840000
840000
840000
840000
840000
840000
840000
840000
840000
840000
840000
840000
840000
840000
840000
840000
840000
840000
FC0000
FC0000
ENDCHAR
STARTCHAR 213F
ENCODING 8511
SWIDTH 560 0
DWIDTH 21 0
BBX 17 28 2 0
BITMAP
FFFF80
FFFF80
880880
880880
880880
880880
880880
880880
880880
880880
880880
880880
880880
880880
880880
880880
880880
880880
880880
880880
880880
880880
880880
880880
880880
880880
F80F80
F80F80
ENDCHAR
STARTCHAR 2140
ENCODING 8512
SWIDTH 560 0
DWIDTH 21 0
BBX 17 28 2 0
BITMAP
FFFF80
C60000
620000
230000
318000
188000
08C000
0C4000
066000
023000
031000
019800
008C00
00C400
008C00
018800
011800
033000
062000
046000
0CC000
188000
118000
310000
230000
660000
C40000
FFFF80
ENDCHAR
STARTCHAR 2141
ENCODING 8513
SWIDTH 560 0
DWIDTH 21 0
BBX 17 28 2 0
BITMAP
03F000
0FFC00
1FFE00
3C1F00
780F00
700780
E00380
E00380
E00380
E00380
E00380
E00380
FF8380
FF0380
FF0380
000380
000380
000380
200380
E00380
E00380
700380
700780
780F00
3C1F00
1FFE00
0FF800
03F000
ENDCHAR
STARTCHAR 2142
ENCODING 8514
SWIDTH 560 0
DWIDTH 21 0
BBX 16 28 3 0
BITMAP
7FFF
FFFF
FFFF
0007
0007
0007
0007
0007
0007
0007
0007
0007
0007
0007
0007
0007
0007
0007
0007
0007
0007
0007
0007
0007
0007
0007
0007
0004
ENDCHAR
STARTCHAR 2143
ENCODING 8515
SWIDTH 560 0
DWIDTH 21 0
BBX 16 28 3 0
BITMAP
0001
0007
0007
0007
0007
0007
0007
0007
0007
0007
0007
0007
0007
0007
0007
0007
0007
0007
0007
0007
0007
0007
0007
0007
0007
7FFF
FFFF
FFFF
ENDCHAR
STARTCHAR 2144
ENCODING 8516
SWIDTH 560 0
DWIDTH 21 0
BBX 19 28 1 0
BITMAP
002000
00E000
00E000
00E000
00E000
00E000
00E000
00E000
00E000
00E000
00F000
00F000
01F800
01F800
03BC00
039C00
079C00
070E00
0F0E00
0E0F00
1E0700
1C0780
3C0380
3803C0
7801C0
7001C0
F000E0
200080
ENDCHAR
STARTCHAR 2145
ENCODING 8517
SWIDTH 560 0
DWIDTH 21 0
BBX 21 28 0 0
BITMAP
0FFE00
0FFF80
0881E0
0880E0
1880B0
1980B0
118198
110198
110198
110198
110118
310118
330118
230318
220310
220310
220330
620230
660230
660260
460660
4406C0
4406C0
440780
C40700
CC1E00
FFFC00
FFE000
ENDCHAR
STARTCHAR 2146
ENCODING 8518
SWIDTH 560 0
DWIDTH 21 0
BBX 19 28 1 0
BITMAP
0003E0
0003E0
000260
000240
000240
000240
03C640
07F6C0
0F36C0
1E1CC0
1A1C80
320C80
220C80
660C80
660D80
460D80
440980
440900
C40900
C41900
CC1900
CC1B00
4C3300
483300
687200
68D200
3F9E00
1F3E00
ENDCHAR
STARTCHAR 2147
ENCODING 8519
SWIDTH 560 0
DWIDTH 21 0
BBX 18 22 2 0
BITMAP
00FC00
03FE00
0F0700
1F0380
1B0180
3301C0
6300C0
6200C0
4200C0
C600C0
C7FF80
C7FF80
C60000
C40000
CC0000
CC0000
CC0000
EC0000
7C0000
780E00
3FFE00
0FF000
ENDCHAR
STARTCHAR 2148
ENCODING 8520
SWIDTH 560 0
DWIDTH 21 0
BBX 9 28 6 0
BITMAP
0380
0380
0380
0380
0000
0000
0000
0000
1F80
1F80
1980
1980
1100
1100
3300
3300
3300
3200
2200
2600
6600
6600
6600
4400
4400
CC00
FC00
FC00
ENDCHAR
STARTCHAR 2149
ENCODING 8521
SWIDTH 560 0
DWIDTH 21 0
BBX 15 37 0 -9
BITMAP
000E
001C
001C
001C
0000
0000
0000
0000
007C
007C
004C
00CC
00CC
00CC
00C8
0088
0198
0198
0198
0198
0110
0110
0330
0330
0330
0320
0220
0260
0660
0660
0660
0440
04C0
0DC0
1F80
FF00
FE00
ENDCHAR
STARTCHAR 214A
ENCODING 8522
SWIDTH 560 0
DWIDTH 21 0
BBX 15 28 3 0
BITMAP
0100
0700
0700
0700
0700
FFE0
FFF8
FFFC
E71E
E70E
E70E
E70E
E70E
E70E
E71E
E7FC
E7F8
E7E0
E700
E700
E700
8700
0700
0700
0700
07FE
07FE
07FC
ENDCHAR
STARTCHAR 214B
ENCODING 8523
SWIDTH 560 0
DWIDTH 21 0
BBX 21 28 0 0
BITMAP
300000
703F00
787FC0
38FFE0
1CE1F0
1FE070
0FC038
078038
078038
0F8038
0FC038
1DE038
3CE038
38F070
7071F0
F03FE0
203F80
001FC0
0001E0
0000E0
0000E0
0000E0
0000E0
0000E0
0003E0
007FC0
00FF80
00FE00
ENDCHAR
STARTCHAR 214D
ENCODING 8525
SWIDTH 560 0
DWIDTH 21 0
BBX 19 28 1 0
BITMAP
040000
1C0000
1E0000
1E0000
3E0000
370000
330000
7F0040
7F80E0
6183E0
E187C0
C1CF80
40BE00
007C00
00F800
01E700
07DF80
0F99C0
1F18C0
7C1C80
F81F80
700FC0
4001E0
0018E0
003860
0018E0
001FC0
000F80
ENDCHAR
STARTCHAR 214E
ENCODING 8526
SWIDTH 560 0
DWIDTH 21 0
BBX 11 22 5 1
BITMAP
00E0
00E0
00E0
00E0
00E0
00E0
00E0
00E0
00E0
7FE0
7FE0
FFE0
00E0
00E0
00E0
00E0
00E0
00E0
00E0
7FE0
7FE0
FF80
ENDCHAR
STARTCHAR 2153
ENCODING 8531
SWIDTH 560 0
DWIDTH 21 0
BBX 19 28 1 0
BITMAP
0C0000
3C0000
7C0000
FC0000
FC0000
1C0000
1C0040
1C00E0
1C03E0
1C07C0
1C1F00
1C3E00
1CFC00
01F000
03E000
0F8000
1F1FE0
7E3FC0
F80380
700700
400780
000FC0
0001E0
0030E0
0038E0
0038C0
001FC0
000F00
ENDCHAR
STARTCHAR 2154
ENCODING 8532
SWIDTH 560 0
DWIDTH 21 0
BBX 20 28 0 0
BITMAP
1E0000
3F8000
718000
61C000
61C000
03C000
0F8020
1E0070
1C01F0
3803E0
780F80
7FDF00
FFFE00
00F800
01F000
07C000
0F8FF0
3F1FE0
7C01C0
3801C0
2003C0
0007E0
000470
001C70
001C70
000C70
000FE0
0007C0
ENDCHAR
STARTCHAR 2155
ENCODING 8533
SWIDTH 560 0
DWIDTH 21 0
BBX 19 28 1 0
BITMAP
0C0000
3C0000
7C0000
FC0000
FC0000
1C0000
1C0040
1C00E0
1C03E0
1C07C0
1C1F00
1C3E00
18FC00
01F000
03E000
0F8FE0
1F0FC0
7E0C00
F80C00
701C00
401F80
000FC0
0000E0
001860
001860
001CE0
001FC0
000780
ENDCHAR
STARTCHAR 2156
ENCODING 8534
SWIDTH 560 0
DWIDTH 21 0
BBX 20 28 0 0
BITMAP
1E0000
3F8000
718000
61C000
61C000
03C000
0F8020
1E0070
1C01F0
3803E0
780F80
7FDF00
FFFE00
00F800
01F000
07C7E0
0F87E0
3F0600
7C0600
380E00
200FC0
000FE0
000070
000C70
000C70
000C70
000FE0
0003C0
ENDCHAR
STARTCHAR 2157
ENCODING 8535
SWIDTH 560 0
DWIDTH 21 0
BBX 19 28 1 0
BITMAP
7F8000
FF0000
0E0000
1E0000
1C0000
3E0000
3F0040
4380E0
C383E0
E307C0
7F1F00
3C3E00
00FC00
01F000
03E000
0F8FC0
1F0FC0
7E0C00
F81C00
701C00
401F80
001FC0
0000C0
0018E0
0038E0
0018C0
001FC0
000F80
ENDCHAR
STARTCHAR 2158
ENCODING 8536
SWIDTH 560 0
DWIDTH 21 0
BBX 19 28 1 0
BITMAP
010000
070000
070000
0F0000
1F0000
3F0000
3F0040
7700E0
FF83E0
FF07C0
071F00
073E00
06FC00
01F000
03E000
0F8000
1F0FC0
7E0FC0
F81C00
701C00
401F80
001FC0
0000C0
0018E0
0038E0
0018C0
001FC0
000F80
ENDCHAR
STARTCHAR 2159
ENCODING 8537
SWIDTH 560 0
DWIDTH 21 0
BBX 19 28 1 0
BITMAP
0C0000
3C0000
7C0000
FC0000
FC0000
1C0000
1C0040
1C00E0
1C03E0
1C07C0
1C1F00
1C3E00
1CFC00
01F000
03E000
0F8F00
1F1FC0
7E38C0
F830E0
7030C0
403F00
003FC0
0038C0
0030E0
0030E0
0038C0
001FC0
000F00
ENDCHAR
STARTCHAR 215A
ENCODING 8538
SWIDTH 560 0
DWIDTH 21 0
BBX 19 28 1 0
BITMAP
3F0000
3F0000
300000
700000
700000
7E0000
7F0040
0300E0
6303E0
E387C0
631F00
7F3E00
3CFC00
01F000
03E000
0F8F00
1F1FC0
7E38C0
F830E0
7030C0
403F00
003FC0
0038C0
0030E0
0030E0
0038C0
001FC0
000F00
ENDCHAR
STARTCHAR 215B
ENCODING 8539
SWIDTH 560 0
DWIDTH 21 0
BBX 19 28 1 0
BITMAP
0C0000
3C0000
7C0000
FC0000
FC0000
1C0000
1C0040
1C00E0
1C03E0
1C07C0
1C1F00
1C3E00
1CFC00
01F000
03E000
0F8F80
1F3FC0
7E38C0
F830C0
703FC0
401F80
003FC0
0030E0
0070E0
0030E0
0038C0
001FC0
000F00
ENDCHAR
STARTCHAR 215C
ENCODING 8540
SWIDTH 560 0
DWIDTH 21 0
BBX 19 28 1 0
BITMAP
7F8000
FF0000
0E0000
1E0000
1C0000
3E0000
3F0040
4380E0
C383E0
E307C0
7F1F00
3C3E00
00FC00
01F000
03E000
0F8F80
1F3FC0
7E38C0
F830C0
703FC0
401F80
003FC0
0030E0
0070E0
0030E0
0038C0
001FC0
000F00
ENDCHAR
STARTCHAR 215D
ENCODING 8541
SWIDTH 560 0
DWIDTH 21 0
BBX 19 28 1 0
BITMAP
3F0000
3F0000
300000
700000
700000
7E0000
7F0040
0300E0
6303E0
E387C0
631F00
7F3E00
3CFC00
01F000
03E000
0F8F80
1F3FC0
7E38C0
F830C0
703FC0
401F80
003FC0
0030E0
0070E0
0030E0
0038C0
001FC0
000F00
ENDCHAR
STARTCHAR 215E
ENCODING 8542
SWIDTH 560 0
DWIDTH 21 0
BBX 19 28 1 0
BITMAP
3FE000
7FC000
01C000
038000
038000
070000
060040
0E00E0
1C03E0
1C07C0
381F00
383E00
70FC00
01F000
03E000
0F8F80
1F3FC0
7E38C0
F830C0
703FC0
401F80
003FC0
0030E0
0070E0
0030E0
0038C0
001FC0
000F00
ENDCHAR
STARTCHAR 215F
ENCODING 8543
SWIDTH 560 0
DWIDTH 21 0
BBX 19 21 1 7
BITMAP
0C0000
3C0000
7C0000
FC0000
FC0000
1C0000
1C0040
1C00E0
1C03E0
1C07C0
1C1F00
1C3E00
18FC00
01F000
03E000
0F8000
1F0000
7E0000
F80000
700000
400000
ENDCHAR
STARTCHAR 2160
ENCODING 8544
SWIDTH 560 0
DWIDTH 21 0
BBX 3 28 9 0
BITMAP
20
E0
E0
E0
E0
E0
E0
E0
E0
E0
E0
E0
E0
E0
E0
E0
E0
E0
E0
E0
E0
E0
E0
E0
E0
E0
E0
80
ENDCHAR
STARTCHAR 2161
ENCODING 8545
SWIDTH 560 0
DWIDTH 21 0
BBX 11 28 5 0
BITMAP
2020
E0E0
E0E0
E0E0
E0E0
E0E0
E0E0
E0E0
E0E0
E0E0
E0E0
E0E0
E0E0
E0E0
E0E0
E0E0
E0E0
E0E0
E0E0
E0E0
E0E0
E0E0
E0E0
E0E0
E0E0
E0E0
E0E0
C080
ENDCHAR
STARTCHAR 2162
ENCODING 8546
SWIDTH 560 0
DWIDTH 21 0
BBX 18 28 2 0
BITMAP
604040
E1C1C0
E1C1C0
E1C1C0
E1C1C0
E1C1C0
E1C1C0
E1C1C0
E1C1C0
E1C1C0
E1C1C0
E1C1C0
E1C1C0
E1C1C0
E1C1C0
E1C1C0
E1C1C0
E1C1C0
E1C1C0
E1C1C0
E1C1C0
E1C1C0
E1C1C0
E1C1C0
E1C1C0
E1C1C0
E1C1C0
810100
ENDCHAR
STARTCHAR 2163
ENCODING 8547
SWIDTH 560 0
DWIDTH 21 0
BBX 17 28 2 0
BITMAP
220300
EE0380
EE0380
E70380
E70380
E70700
E70700
E70700
E30700
E38700
E38600
E38E00
E38E00
E38E00
E1CE00
E1CC00
E1DC00
E1DC00
E1DC00
E1DC00
E0FC00
E0F800
E0F800
E0F800
E0F800
E07800
E07000
804000
ENDCHAR
STARTCHAR 2164
ENCODING 8548
SWIDTH 560 0
DWIDTH 21 0
BBX 19 28 1 0
BITMAP
200040
E000E0
E000E0
7000E0
7001C0
7001C0
7801C0
3803C0
380380
3C0380
1C0380
1C0700
1C0700
0E0700
0E0E00
0E0E00
070E00
071C00
071C00
079C00
03B800
03B800
03F800
01F000
01F000
01F000
00F000
008000
ENDCHAR
STARTCHAR 2165
ENCODING 8549
SWIDTH 560 0
DWIDTH 21 0
BBX 17 28 2 0
BITMAP
202080
E03B80
E03B80
703B80
703380
707380
707380
707380
707380
387380
38E380
38E380
38E380
38E380
18E380
1CC380
1DC380
1DC380
1DC380
1DC380
0F8380
0F8380
0F8380
0F8380
0F8380
0F8380
070380
040200
ENDCHAR
STARTCHAR 2166
ENCODING 8550
SWIDTH 560 0
DWIDTH 21 0
BBX 17 28 2 0
BITMAP
218880
E1FB80
E1FB80
E1FB80
61FB80
71FB80
71FB80
71BB80
71BB80
73BB80
73BB80
33BB80
33BB80
3BBB80
3BBB80
3B3B80
3B3B80
3B3B80
3F3B80
1F3B80
1F3B80
1F3B80
1F3B80
1F3B80
1E3B80
1E3B80
0E3B80
083200
ENDCHAR
STARTCHAR 2167
ENCODING 8551
SWIDTH 560 0
DWIDTH 21 0
BBX 21 28 0 0
BITMAP
210888
E1FBB8
E1FBB8
E1FBB8
61FBB8
61FBB8
71BBB8
71BBB8
73BBB8
73BBB8
73BBB8
73BBB8
33BBB8
3BBBB8
3B3BB8
3B3BB8
3B3BB8
3F3BB8
3F3BB8
1F3BB8
1F3BB8
1F3BB8
1F3BB8
1E3BB8
1E3BB8
1E3BB8
1E3BB8
082220
ENDCHAR
STARTCHAR 2168
ENCODING 8552
SWIDTH 560 0
DWIDTH 21 0
BBX 17 28 2 0
BITMAP
220300
EF0380
E70380
E70700
E78700
E38F00
E38E00
E1CE00
E1DC00
E1FC00
E0FC00
E0F800
E0F800
E07800
E07800
E0F800
E0F800
E0FC00
E1FC00
E1DC00
E1CE00
E38E00
E38F00
E78700
E70700
E70780
EF0380
820300
ENDCHAR
STARTCHAR 2169
ENCODING 8553
SWIDTH 560 0
DWIDTH 21 0
BBX 18 28 2 0
BITMAP
400100
E003C0
F00380
700780
780700
380E00
1C1E00
1E1C00
0E3C00
0F3800
077000
03F000
03E000
01E000
01E000
03E000
03F000
077000
0F3800
0E3C00
1E1C00
1C1E00
380E00
780F00
700780
F00380
E003C0
600100
ENDCHAR
STARTCHAR 216A
ENCODING 8554
SWIDTH 560 0
DWIDTH 21 0
BBX 17 28 2 0
BITMAP
202080
E03B80
707B80
707380
787380
38E380
38E380
3CE380
1DC380
1DC380
0FC380
0F8380
0F8380
070380
070380
0F8380
0F8380
0FC380
1DC380
1DC380
3DE380
38E380
38E380
787380
707380
707B80
E03B80
202200
ENDCHAR
STARTCHAR 216B
ENCODING 8555
SWIDTH 560 0
DWIDTH 21 0
BBX 17 28 2 0
BITMAP
210880
E1FB80
61FB80
71FB80
73BB80
73BB80
33BB80
3BBB80
3F3B80
3F3B80
1F3B80
1F3B80
1E3B80
1E3B80
1E3B80
1E3B80
1F3B80
1F3B80
3F3B80
3F3B80
3FBB80
3BBB80
73BB80
73BB80
73FB80
71FB80
E1FB80
213200
ENDCHAR
STARTCHAR 216C
ENCODING 8556
SWIDTH 560 0
DWIDTH 21 0
BBX 16 28 3 0
BITMAP
6000
E000
E000
E000
E000
E000
E000
E000
E000
E000
E000
E000
E000
E000
E000
E000
E000
E000
E000
E000
E000
E000
E000
E000
E000
FFFF
FFFE
FFFE
ENDCHAR
STARTCHAR 216D
ENCODING 8557
SWIDTH 560 0
DWIDTH 21 0
BBX 17 28 2 0
BITMAP
03F000
0FF800
1FFE00
3C1E00
780F00
700780
F00380
E00380
E00380
E00200
E00000
E00000
E00000
E00000
E00000
E00000
E00000
E00000
E00080
E00380
E00380
F00380
700780
780F00
3C1F00
1FFE00
0FF800
03F000
ENDCHAR
STARTCHAR 216E
ENCODING 8558
SWIDTH 560 0
DWIDTH 21 0
BBX 17 28 2 0
BITMAP
3FF000
FFF800
FFFE00
E01E00
E00F00
E00780
E00380
E00380
E00380
E00380
E00380
E00380
E00380
E00380
E00380
E00380
E00380
E00380
E00380
E00380
E00380
E00380
E00780
E00F00
E01E00
FFFE00
FFF800
FFE000
ENDCHAR
STARTCHAR 216F
ENCODING 8559
SWIDTH 560 0
DWIDTH 21 0
BBX 18 28 2 0
BITMAP
600040
E001C0
F003C0
F003C0
F007C0
F807C0
F80FC0
FC0FC0
FC0FC0
FC1DC0
EE1DC0
EE3DC0
EE39C0
E779C0
E771C0
E3F1C0
E3E1C0
E3E1C0
E1E1C0
E181C0
E001C0
E001C0
E001C0
E001C0
E001C0
E001C0
E001C0
800100
ENDCHAR
STARTCHAR 2170
ENCODING 8560
SWIDTH 560 0
DWIDTH 21 0
BBX 3 28 9 0
BITMAP
E0
E0
E0
00
00
00
00
20
E0
E0
E0
E0
E0
E0
E0
E0
E0
E0
E0
E0
E0
E0
E0
E0
E0
E0
E0
80
ENDCHAR
STARTCHAR 2171
ENCODING 8561
SWIDTH 560 0
DWIDTH 21 0
BBX 11 28 5 0
BITMAP
60E0
F0E0
60E0
0000
0000
0000
0000
2020
E0E0
E0E0
E0E0
E0E0
E0E0
E0E0
E0E0
E0E0
E0E0
E0E0
E0E0
E0E0
E0E0
E0E0
E0E0
E0E0
E0E0
E0E0
E0E0
C080
ENDCHAR
STARTCHAR 2172
ENCODING 8562
SWIDTH 560 0
DWIDTH 21 0
BBX 18 28 2 0
BITMAP
C1C180
E1C1C0
C1C180
000000
000000
000000
000000
604040
E1C1C0
E1C1C0
E1C1C0
E1C1C0
E1C1C0
E1C1C0
E1C1C0
E1C1C0
E1C1C0
E1C1C0
E1C1C0
E1C1C0
E1C1C0
E1C1C0
E1C1C0
E1C1C0
E1C1C0
E1C1C0
E1C1C0
810100
ENDCHAR
STARTCHAR 2173
ENCODING 8563
SWIDTH 560 0
DWIDTH 21 0
BBX 17 28 2 0
BITMAP
600000
E00000
600000
000000
000000
000000
000000
220300
EE0380
E70380
E70380
E70700
E70700
E38700
E38700
E38E00
E38E00
E3CE00
E1DE00
E1DC00
E1DC00
E1FC00
E0F800
E0F800
E0F800
E0F800
E07000
804000
ENDCHAR
STARTCHAR 2174
ENCODING 8564
SWIDTH 560 0
DWIDTH 21 0
BBX 19 21 1 0
BITMAP
200080
F000E0
7001C0
7001C0
3803C0
380380
3C0380
1C0700
1C0700
0E0F00
0E0E00
0F0E00
071C00
071C00
039C00
03B800
03F800
01F000
01F000
00F000
008000
ENDCHAR
STARTCHAR 2175
ENCODING 8565
SWIDTH 560 0
DWIDTH 21 0
BBX 17 28 2 0
BITMAP
000380
000380
000380
000000
000000
000000
000000
202080
E03B80
F03B80
707B80
707380
707380
787380
38E380
38E380
38E380
3CE380
1DC380
1DC380
1DC380
1FC380
0F8380
0F8380
0F8380
0F8380
070380
040200
ENDCHAR
STARTCHAR 2176
ENCODING 8566
SWIDTH 560 0
DWIDTH 21 0
BBX 17 28 2 0
BITMAP
001B80
003B80
001B80
000000
000000
000000
000000
218880
E1FB80
E1FB80
71FB80
71FB80
71BB80
73BB80
73BB80
73BB80
3BBB80
3BBB80
3B3B80
3B3B80
3F3B80
1F3B80
1F3B80
1F3B80
1E3B80
1E3B80
1E3B80
083200
ENDCHAR
STARTCHAR 2177
ENCODING 8567
SWIDTH 560 0
DWIDTH 21 0
BBX 21 28 0 0
BITMAP
001BB0
003BB8
001BB0
000000
000000
000000
000000
210888
E1FBB8
E1FBB8
E1FBB8
71FBB8
71BBB8
73BBB8
73BBB8
73BBB8
33BBB8
3BBBB8
3B3BB8
3F3BB8
3F3BB8
3F3BB8
1F3BB8
1F3BB8
1E3BB8
1E3BB8
1E3BB8
082220
ENDCHAR
STARTCHAR 2178
ENCODING 8568
SWIDTH 560 0
DWIDTH 21 0
BBX 17 28 2 0
BITMAP
600000
E00000
600000
000000
000000
000000
000000
220300
EF0380
E70780
E78700
E38F00
E3CE00
E1DE00
E1FC00
E0FC00
E0F800
E07800
E0F800
E0FC00
E1FC00
E1DE00
E3CE00
E38F00
E78700
E70780
EF0380
820200
ENDCHAR
STARTCHAR 2179
ENCODING 8569
SWIDTH 560 0
DWIDTH 21 0
BBX 17 21 2 0
BITMAP
200200
F00780
780700
380F00
1C1E00
1E1C00
0F3800
077800
07F000
03E000
01E000
03E000
07F000
077800
0F3800
1E3C00
1C1E00
380F00
780700
F00780
200200
ENDCHAR
STARTCHAR 217A
ENCODING 8570
SWIDTH 560 0
DWIDTH 21 0
BBX 17 28 2 0
BITMAP
000380
000380
000380
000000
000000
000000
000000
202080
F03B80
707380
787380
38E380
3CE380
1DC380
1FC380
0F8380
0F8380
070380
0F8380
0F8380
1FC380
1DC380
3DE380
38E380
787380
707380
F03B80
202200
ENDCHAR
STARTCHAR 217B
ENCODING 8571
SWIDTH 560 0
DWIDTH 21 0
BBX 17 28 2 0
BITMAP
001B80
003B80
001B80
000000
000000
000000
000000
218880
E1FB80
71FB80
73BB80
73BB80
3BBB80
3B3B80
3F3B80
1F3B80
1E3B80
1E3B80
1E3B80
1F3B80
3F3B80
3F3B80
3BBB80
73BB80
73BB80
71FB80
E1FB80
213200
ENDCHAR
STARTCHAR 217C
ENCODING 8572
SWIDTH 560 0
DWIDTH 21 0
BBX 14 28 4 0
BITMAP
6000
E000
E000
E000
E000
E000
E000
E000
E000
E000
E000
E000
E000
E000
E000
E000
E000
E000
E000
E000
E01C
E01C
E03C
F038
7878
7FF0
3FE0
0F80
ENDCHAR
STARTCHAR 217D
ENCODING 8573
SWIDTH 560 0
DWIDTH 21 0
BBX 14 21 4 0
BITMAP
0F80
3FE0
7FF0
7878
F038
E03C
E01C
E018
E000
E000
E000
E000
E004
E01C
E01C
E038
F038
7878
7FF0
3FE0
0F80
ENDCHAR
STARTCHAR 217E
ENCODING 8574
SWIDTH 560 0
DWIDTH 21 0
BBX 14 28 4 0
BITMAP
000C
001C
001C
001C
001C
001C
001C
0F9C
3FFC
7FFC
787C
F03C
E03C
E01C
E01C
E01C
E01C
E01C
E01C
E01C
E01C
E01C
E03C
F038
7878
7FF0
3FE0
0F80
ENDCHAR
STARTCHAR 217F
ENCODING 8575
SWIDTH 560 0
DWIDTH 21 0
BBX 17 21 2 0
BITMAP
1E3E00
3FFF00
7FFF80
F3E380
E1C380
E1C380
E1C380
E1C380
E1C380
E1C380
E1C380
E1C380
E1C380
E1C380
E1C380
E1C380
E1C380
E1C380
E1C380
E1C380
810200
ENDCHAR
STARTCHAR 2180
ENCODING 8576
SWIDTH 560 0
DWIDTH 21 0
BBX 21 28 0 0
BITMAP
03FE00
0FFF80
1FFFC0
3E71E0
7870F0
707070
707038
E07038
E07038
E07038
E07038
E07038
E07038
E07038
E07038
E07038
E07038
E07038
E07038
E07038
E07038
707038
707070
7870F0
3E71E0
1FFFC0
0FFF80
03FF00
ENDCHAR
STARTCHAR 2181
ENCODING 8577
SWIDTH 560 0
DWIDTH 21 0
BBX 17 28 2 0
BITMAP
3FF000
FFF800
FFFE00
E01E00
E00F00
E00780
FE0380
FF8380
FFC380
E3E380
E0E380
E0E380
E0E380
E0E380
E0E380
E0E380
E0E380
E0E380
E0E380
E3E380
FFC380
FF8380
FE0780
E00F00
E01E00
FFFE00
FFF800
FFE000
ENDCHAR
STARTCHAR 2182
ENCODING 8578
SWIDTH 560 0
DWIDTH 21 0
BBX 21 28 0 0
BITMAP
03FE00
0FFF80
1FFFC0
3E71E0
7870F0
707070
70FC38
E1FE38
E3FE38
E7FF38
E77738
E77738
E773B8
E773B8
E773B8
E773B8
E777B8
E77738
E7F738
E3FF38
E3FE38
71FC38
707870
7870F0
3E71E0
1FFFC0
0FFF80
03FF00
ENDCHAR
STARTCHAR 2183
ENCODING 8579
SWIDTH 560 0
DWIDTH 21 0
BBX 17 28 2 0
BITMAP
03F000
0FFC00
1FFE00
3C1F00
780F00
700780
F00380
E00380
E00380
000380
000380
000380
000380
000380
000380
000380
000380
000380
800380
E00380
E00380
F00380
700780
780F00
3C1F00
1FFE00
0FF800
03F000
ENDCHAR
STARTCHAR 2184
ENCODING 8580
SWIDTH 560 0
DWIDTH 21 0
BBX 14 21 4 0
BITMAP
0F80
3FE0
7FF0
7878
F038
E03C
E01C
E01C
201C
001C
001C
001C
001C
C01C
E01C
E03C
F038
78F8
7FF0
3FE0
0F80
ENDCHAR
STARTCHAR 2190
ENCODING 8592
SWIDTH 560 0
DWIDTH 21 0
BBX 17 7 2 11
BITMAP
040000
1C0000
3FFF80
FFFF80
3FFF00
1C0000
040000
ENDCHAR
STARTCHAR 2191
ENCODING 8593
SWIDTH 560 0
DWIDTH 21 0
BBX 6 18 8 5
BITMAP
20
20
70
78
F8
FC
70
70
70
70
70
70
70
70
70
70
70
40
ENDCHAR
STARTCHAR 2192
ENCODING 8594
SWIDTH 560 0
DWIDTH 21 0
BBX 18 7 2 11
BITMAP
001000
001C00
7FFF00
FFFFC0
FFFF00
001C00
001000
ENDCHAR
STARTCHAR 2193
ENCODING 8595
SWIDTH 560 0
DWIDTH 21 0
BBX 7 18 7 5
BITMAP
08
38
38
38
38
38
38
38
38
38
38
FE
7E
7C
3C
38
10
10
ENDCHAR
STARTCHAR 2194
ENCODING 8596
SWIDTH 560 0
DWIDTH 21 0
BBX 18 7 2 11
BITMAP
041000
1C1C00
3FFF00
FFFFC0
3FFF00
1C1C00
041000
ENDCHAR
STARTCHAR 2195
ENCODING 8597
SWIDTH 560 0
DWIDTH 21 0
BBX 7 18 7 5
BITMAP
10
10
38
3C
7C
7E
38
38
38
38
38
FE
7E
7C
3C
38
10
10
ENDCHAR
STARTCHAR 2196
ENCODING 8598
SWIDTH 560 0
DWIDTH 21 0
BBX 12 13 5 7
BITMAP
E000
FC00
F800
F800
7C00
5E00
0F00
07C0
03E0
01F0
00F0
0060
0020
ENDCHAR
STARTCHAR 2197
ENCODING 8599
SWIDTH 560 0
DWIDTH 21 0
BBX 12 13 5 7
BITMAP
00F0
07E0
03E0
03E0
07E0
0F40
1E00
3C00
7800
F000
E000
C000
8000
ENDCHAR
STARTCHAR 2198
ENCODING 8600
SWIDTH 560 0
DWIDTH 21 0
BBX 12 13 5 7
BITMAP
8000
C000
E000
F000
7800
3C00
1E00
0F40
07E0
03E0
03E0
07E0
00F0
ENDCHAR
STARTCHAR 2199
ENCODING 8601
SWIDTH 560 0
DWIDTH 21 0
BBX 12 13 5 7
BITMAP
0020
0060
00F0
01F0
03E0
07C0
0F00
5E00
7C00
F800
F800
FC00
E000
ENDCHAR
STARTCHAR 219A
ENCODING 8602
SWIDTH 560 0
DWIDTH 21 0
BBX 17 13 2 7
BITMAP
000300
000780
040700
1C0F00
3FFF80
FFFF80
7FFF00
1C3800
047800
007000
00E000
01E000
004000
ENDCHAR
STARTCHAR 219B
ENCODING 8603
SWIDTH 560 0
DWIDTH 21 0
BBX 18 13 2 8
BITMAP
010000
03C000
078000
071000
0F1C00
7FFF00
FFFFC0
FFFF00
381C00
781000
700000
E00000
600000
ENDCHAR
STARTCHAR 219C
ENCODING 8604
SWIDTH 560 0
DWIDTH 21 0
BBX 18 7 2 11
BITMAP
E00000
FE1E00
FC7F00
79FF80
7FE380
7FC1C0
4F00C0
ENDCHAR
STARTCHAR 219D
ENCODING 8605
SWIDTH 560 0
DWIDTH 21 0
BBX 19 7 1 11
BITMAP
0000E0
1F0FC0
3F87C0
7FE7C0
71FFC0
F07E80
C03C00
ENDCHAR
STARTCHAR 219E
ENCODING 8606
SWIDTH 560 0
DWIDTH 21 0
BBX 17 7 2 11
BITMAP
044000
1DC000
3FFF80
FFFF80
3FFF00
1DC000
044000
ENDCHAR
STARTCHAR 219F
ENCODING 8607
SWIDTH 560 0
DWIDTH 21 0
BBX 7 18 7 5
BITMAP
08
38
38
38
38
38
38
38
FE
7C
3C
FE
7E
7C
3C
38
10
10
ENDCHAR
STARTCHAR 21A0
ENCODING 8608
SWIDTH 560 0
DWIDTH 21 0
BBX 18 7 2 11
BITMAP
019000
01DC00
7FFF00
FFFFC0
FFFF00
01DC00
019000
ENDCHAR
STARTCHAR 21A1
ENCODING 8609
SWIDTH 560 0
DWIDTH 21 0
BBX 7 18 7 5
BITMAP
10
10
38
3C
7C
7E
38
3C
7C
FE
38
38
38
38
38
38
38
20
ENDCHAR
STARTCHAR 21A2
ENCODING 8610
SWIDTH 560 0
DWIDTH 21 0
BBX 18 7 2 11
BITMAP
0400C0
1C01C0
3FFFC0
FFFFC0
3FFFC0
1C01C0
0400C0
ENDCHAR
STARTCHAR 21A3
ENCODING 8611
SWIDTH 560 0
DWIDTH 21 0
BBX 18 7 2 11
BITMAP
801000
E01C00
FFFF00
FFFFC0
FFFF00
E01C00
801000
ENDCHAR
STARTCHAR 21A4
ENCODING 8612
SWIDTH 560 0
DWIDTH 21 0
BBX 18 13 2 7
BITMAP
0001C0
0001C0
0001C0
0401C0
1C01C0
3FFFC0
FFFFC0
3FFFC0
1C01C0
0401C0
0001C0
0001C0
000180
ENDCHAR
STARTCHAR 21A5
ENCODING 8613
SWIDTH 560 0
DWIDTH 21 0
BBX 13 18 4 5
BITMAP
0200
0200
0700
0780
0F80
0FC0
1FC0
0700
0700
0700
0700
0700
0700
0700
0700
7FF8
FFF8
FFF8
ENDCHAR
STARTCHAR 21A6
ENCODING 8614
SWIDTH 560 0
DWIDTH 21 0
BBX 18 13 2 9
BITMAP
E00000
E00000
E00000
E01000
E01C00
FFFF00
FFFFC0
FFFF00
E01C00
E01000
E00000
E00000
C00000
ENDCHAR
STARTCHAR 21A7
ENCODING 8615
SWIDTH 560 0
DWIDTH 21 0
BBX 13 18 4 5
BITMAP
7FF8
FFF8
FFF8
0700
0700
0700
0700
0700
0700
0700
0700
1FC0
0FC0
0F80
0780
0700
0200
0200
ENDCHAR
STARTCHAR 21A8
ENCODING 8616
SWIDTH 560 0
DWIDTH 21 0
BBX 16 21 3 4
BITMAP
0100
0180
0380
07C0
07C0
0FE0
0380
0380
0380
0380
0380
0FE0
07C0
03C0
0380
0180
0100
0000
7FFF
FFFE
FFFE
ENDCHAR
STARTCHAR 21A9
ENCODING 8617
SWIDTH 560 0
DWIDTH 21 0
BBX 18 13 2 7
BITMAP
000600
000F80
000F80
0003C0
0001C0
0001C0
0C01C0
1C03C0
7FFF80
FFFF80
7FFE00
1C0000
040000
ENDCHAR
STARTCHAR 21AA
ENCODING 8618
SWIDTH 560 0
DWIDTH 21 0
BBX 18 13 2 7
BITMAP
1C0000
7C0000
F80000
E00000
E00000
E00000
E00800
E00E00
FFFF80
7FFFC0
1FFF00
000E00
000800
ENDCHAR
STARTCHAR 21AB
ENCODING 8619
SWIDTH 560 0
DWIDTH 21 0
BBX 19 14 1 8
BITMAP
000F80
001FC0
003FE0
0038E0
0238E0
0E38E0
3FFFE0
FFFFC0
3FFF80
0E3800
023800
003800
003800
002000
ENDCHAR
STARTCHAR 21AC
ENCODING 8620
SWIDTH 560 0
DWIDTH 21 0
BBX 19 13 1 8
BITMAP
1E0000
3F0000
7F8000
F38000
E18000
E38600
7FFF80
7FFFE0
1FFF80
018600
018400
018000
018000
ENDCHAR
STARTCHAR 21AD
ENCODING 8621
SWIDTH 560 0
DWIDTH 21 0
BBX 21 8 0 11
BITMAP
007800
01FC00
0DCF80
3F8FE0
FF8FF8
7F07F0
1C01C0
040100
ENDCHAR
STARTCHAR 21AE
ENCODING 8622
SWIDTH 560 0
DWIDTH 21 0
BBX 19 13 1 7
BITMAP
000800
001C00
003C00
0C7E00
3FFF80
FFFFE0
7FFFC0
1DE700
0DC600
038000
038000
070000
030000
ENDCHAR
STARTCHAR 21AF
ENCODING 8623
SWIDTH 560 0
DWIDTH 21 0
BBX 11 26 5 1
BITMAP
0E00
1C00
1C00
3C00
3800
3800
7000
7000
7000
E000
EFE0
FFE0
7FE0
01C0
01C0
03C0
0380
0380
0700
1F00
1F00
1F80
0F00
0E00
0C00
0800
ENDCHAR
STARTCHAR 21B0
ENCODING 8624
SWIDTH 560 0
DWIDTH 21 0
BBX 13 18 4 5
BITMAP
0200
0E00
3FF8
FFF8
3FF8
0E38
0238
0038
0038
0038
0038
0038
0038
0038
0038
0038
0038
0030
ENDCHAR
STARTCHAR 21B1
ENCODING 8625
SWIDTH 560 0
DWIDTH 21 0
BBX 13 18 4 5
BITMAP
0100
0180
FFE0
FFF8
FFE0
E180
E100
E000
E000
E000
E000
E000
E000
E000
E000
E000
E000
C000
ENDCHAR
STARTCHAR 21B2
ENCODING 8626
SWIDTH 560 0
DWIDTH 21 0
BBX 13 18 4 5
BITMAP
0008
0038
0038
0038
0038
0038
0038
0038
0038
0038
0038
0238
0E38
3FF8
FFF8
3FF8
0E00
0200
ENDCHAR
ENDFONT
